<svg width="100" height="100" viewBox="0 0 100 100" fill="none" xmlns="http://www.w3.org/2000/svg">
<path d="M13 68.2857V43.8681L27.9835 47.7527L25.2088 68.2857H13Z" stroke="#747474" stroke-width="2"/>
<path d="M27.9835 49.4176L34.5263 48.7633C37.5161 48.4643 40.5332 48.9185 43.3024 50.0845L49.6264 52.7472C55.7308 56.0769 64.4989 56.1879 61.8352 58.8516C58.5055 62.1813 59.6154 62.7363 55.7308 62.7363C52.6231 62.7363 45.1868 60.1465 41.8571 58.8516" stroke="#747474" stroke-width="2"/>
<path d="M25.7637 65.511L50.1282 74.1102C52.665 75.0056 55.442 74.9402 57.934 73.9266L83.4032 63.5662C85.1616 62.8509 85.8044 60.6815 84.338 59.4759C82.9891 58.367 81.3082 57.4968 79.5934 57.7418C76.4857 58.1857 64.6099 60.8864 59.0604 62.1813" stroke="#747474" stroke-width="2"/>
<circle cx="61.2802" cy="36.6538" r="10.6538" stroke="#747474" stroke-width="2"/>
<path d="M62.4986 38.1294C62.4986 37.7997 62.4061 37.5383 62.2211 37.3453C62.0402 37.1483 61.7306 36.9673 61.2922 36.8024C60.8539 36.6376 60.476 36.4747 60.1583 36.3139C59.8406 36.149 59.5672 35.962 59.338 35.7529C59.1128 35.5398 58.9359 35.2905 58.8072 35.005C58.6825 34.7195 58.6202 34.3797 58.6202 33.9856C58.6202 33.3061 58.8373 32.7491 59.2716 32.3148C59.7059 31.8806 60.2829 31.6272 61.0027 31.5549V30.2641H61.9678V31.5729C62.6795 31.6735 63.2365 31.971 63.6386 32.4656C64.0407 32.9562 64.2418 33.5936 64.2418 34.3777H62.4986C62.4986 33.8952 62.3981 33.5353 62.197 33.298C62 33.0567 61.7346 32.9361 61.4008 32.9361C61.0711 32.9361 60.8157 33.0306 60.6348 33.2196C60.4538 33.4046 60.3634 33.6619 60.3634 33.9917C60.3634 34.2973 60.4518 34.5426 60.6288 34.7275C60.8057 34.9125 61.1334 35.1015 61.6119 35.2945C62.0945 35.4875 62.4905 35.6705 62.8002 35.8434C63.1098 36.0123 63.3712 36.2053 63.5843 36.4224C63.7974 36.6356 63.9603 36.8809 64.0729 37.1583C64.1855 37.4317 64.2418 37.7514 64.2418 38.1174C64.2418 38.8009 64.0286 39.3559 63.6024 39.7821C63.1762 40.2083 62.5891 40.4597 61.8411 40.5361V41.7364H60.8821V40.5421C60.0578 40.4536 59.4184 40.1621 58.964 39.6675C58.5136 39.1689 58.2885 38.5074 58.2885 37.6831H60.0316C60.0316 38.1616 60.1442 38.5295 60.3694 38.7869C60.5986 39.0402 60.9263 39.1669 61.3526 39.1669C61.7064 39.1669 61.9859 39.0744 62.191 38.8894C62.396 38.7004 62.4986 38.4471 62.4986 38.1294Z" fill="#747474"/>
</svg>
