<svg width="100" height="100" viewBox="0 0 100 100" fill="none" xmlns="http://www.w3.org/2000/svg">
<path d="M76.875 70.7917H86" stroke="#747474" stroke-width="2" stroke-linecap="round" stroke-linejoin="round"/>
<path d="M76.875 75.8611H84.9861" stroke="#747474" stroke-width="2" stroke-linecap="round" stroke-linejoin="round"/>
<path d="M75.8611 26.1806H86" stroke="#747474" stroke-width="2" stroke-linecap="round" stroke-linejoin="round"/>
<path d="M80.9306 86H79.341C78.4112 86 77.5195 85.6307 76.8621 84.9732V84.9732C76.22 84.3311 75.8521 83.4648 75.8358 82.5569L74.9143 30.9512C74.8708 28.5164 75.6406 26.1367 77.1017 24.1886V24.1886C77.6246 23.4913 78.0624 22.734 78.4057 21.9329L80.9306 16.0417" stroke="#747474" stroke-width="2" stroke-linecap="round" stroke-linejoin="round"/>
<path d="M80.9306 86H82.5201C83.4499 86 84.3416 85.6307 84.9991 84.9732V84.9732C85.6412 84.3311 86.0091 83.4648 86.0253 82.5569L86.9468 30.9512C86.9903 28.5164 86.2206 26.1367 84.7595 24.1886V24.1886C84.2365 23.4913 83.7987 22.734 83.4554 21.9329L80.9306 16.0417" stroke="#747474" stroke-width="2" stroke-linecap="round" stroke-linejoin="round"/>
<path d="M28.2083 42.4028V38.3472H32.2639V42.4028H28.2083Z" stroke="#747474" stroke-width="2" stroke-linecap="round" stroke-linejoin="round"/>
<path d="M28.2083 54.5694V50.5139H32.2639V54.5694H28.2083Z" stroke="#747474" stroke-width="2" stroke-linecap="round" stroke-linejoin="round"/>
<path d="M28.2083 66.7361V62.6806H32.2639V66.7361H28.2083Z" stroke="#747474" stroke-width="2" stroke-linecap="round" stroke-linejoin="round"/>
<path d="M38.3472 13L33.2778 17.0556H29.2222V26.1806H38.3472" stroke="#747474" stroke-width="2" stroke-linecap="round" stroke-linejoin="round"/>
<path d="M38.3472 80.9306H18.0695V22.125H29.2222" stroke="#747474" stroke-width="2" stroke-linecap="round" stroke-linejoin="round"/>
<path d="M28.2083 18.0694H13V86H38.3472" stroke="#747474" stroke-width="2" stroke-linecap="round" stroke-linejoin="round"/>
<path d="M38.3472 13L43.4167 17.0556H47.4722V26.1806H38.3472" stroke="#747474" stroke-width="2" stroke-linecap="round" stroke-linejoin="round"/>
<path d="M38.3472 80.9306H58.625V22.125H47.4722" stroke="#747474" stroke-width="2" stroke-linecap="round" stroke-linejoin="round"/>
<path d="M48.4861 18.0694H63.6945V86H38.3472" stroke="#747474" stroke-width="2" stroke-linecap="round" stroke-linejoin="round"/>
<path d="M37.3333 38.3472H47.4722" stroke="#747474" stroke-width="2" stroke-linecap="round" stroke-linejoin="round"/>
<path d="M37.3333 42.4028H43.4166" stroke="#747474" stroke-width="2" stroke-linecap="round" stroke-linejoin="round"/>
<path d="M37.3333 50.5139H47.4722" stroke="#747474" stroke-width="2" stroke-linecap="round" stroke-linejoin="round"/>
<path d="M37.3333 54.5694H43.4166" stroke="#747474" stroke-width="2" stroke-linecap="round" stroke-linejoin="round"/>
<path d="M37.3333 62.6806H47.4722" stroke="#747474" stroke-width="2" stroke-linecap="round" stroke-linejoin="round"/>
<path d="M37.3333 66.7361H43.4166" stroke="#747474" stroke-width="2" stroke-linecap="round" stroke-linejoin="round"/>
</svg>
