<svg width="100" height="100" viewBox="0 0 100 100" fill="none" xmlns="http://www.w3.org/2000/svg">
<path d="M67.9999 14.3181H66.1212C64.763 14.3181 63.4603 14.8576 62.4999 15.8181V15.8181C61.5394 16.7785 60.9999 18.0811 60.9999 19.4394V38.5155C60.9999 39.6418 61.5628 40.6935 62.4999 41.3183V41.3183C63.437 41.943 63.9999 42.9948 63.9999 44.1211V44.9397C63.9999 45.8387 63.7338 46.7175 63.2352 47.4654L62.709 48.2547C62.2616 48.9258 62.1491 49.7659 62.4041 50.5311L62.6025 51.1263C62.8398 51.8382 63.5061 52.3184 64.2565 52.3184V52.3184C65.2194 52.3184 65.9999 53.099 65.9999 54.0618V78.3186M65.9999 84.3187V78.3186M67.9999 78.3186H65.9999" stroke="#747474" stroke-width="2.00002" stroke-linecap="round" stroke-linejoin="round"/>
<path d="M72 84.3187V78.3186M72 78.3186V54.0618C72 53.099 72.7805 52.3184 73.7434 52.3184V52.3184C74.4938 52.3184 75.16 51.8382 75.3974 51.1263L75.5957 50.5311C75.8508 49.7659 75.7383 48.9258 75.2909 48.2547L74.7647 47.4654C74.2661 46.7175 74 45.8387 74 44.9397V44.1211C74 42.9948 74.5629 41.943 75.5 41.3183V41.3183C76.4371 40.6935 77 39.6418 77 38.5155V19.4394C77 18.0811 76.4604 16.7785 75.5 15.8181V15.8181C74.5395 14.8576 73.2369 14.3181 71.8786 14.3181H69.9999H67.9999M72 78.3186H69.9999H67.9999" stroke="#747474" stroke-width="2.00002" stroke-linecap="round" stroke-linejoin="round"/>
<path d="M38.0001 85.3187C37.0001 85.3187 34.8001 85.1187 34.0001 84.3187C33.0001 83.3187 32.0001 82.3187 32.0001 81.3186C32.0001 80.5777 32.0001 59.1908 32.0001 46.2388C32.0001 44.3388 31.3838 42.4966 30.2438 40.9767V40.9767C29.4259 39.8861 28.3411 39.031 27.2419 38.2247C25.9505 37.2774 24.5269 35.899 24 34.3182C23 31.3182 23 28.3182 23 22.3181C23.0002 21.3181 23.4944 19.3299 24 18.3181C24.9995 16.3181 25.9995 15.3181 27.9996 14.318C29.0117 13.812 29.6664 13.9847 29.9996 14.318V21.8326C29.9996 23.4241 30.6318 24.9503 31.7572 26.0756L32.2428 26.5611C33.368 27.6861 34.894 28.3182 36.4852 28.3182H38.0001M36.9996 77.3186V75.3186V79.3186" stroke="#747474" stroke-width="2.00002" stroke-linecap="round" stroke-linejoin="round"/>
<path d="M37.9996 85.3187C38.9996 85.3187 41.1996 85.1187 41.9997 84.3187C42.9997 83.3187 43.9997 82.3187 43.9997 81.3186C43.9997 80.5777 43.9997 59.1908 43.9997 46.2388C43.9997 44.3388 44.6159 42.4966 45.7559 40.9767V40.9767C46.5739 39.8861 47.6586 39.031 48.7579 38.2247C50.0493 37.2774 51.4728 35.899 51.9997 34.3182C52.9998 31.3182 52.9998 28.3182 52.9998 22.3181C52.9996 21.3181 52.5054 19.3299 51.9997 18.3181C51.0002 16.3181 50.0002 15.3181 48.0002 14.318C46.988 13.812 46.3334 13.9847 46.0002 14.318V21.8326C46.0002 23.4241 45.3679 24.9503 44.2425 26.0756L43.757 26.5611C42.6318 27.6861 41.1058 28.3182 39.5146 28.3182H37.9996M39.0001 77.3186V75.3186V79.3186" stroke="#747474" stroke-width="2.00002" stroke-linecap="round" stroke-linejoin="round"/>
<path d="M66.0004 85.0006H69.0004H72.0004" stroke="#747474" stroke-width="2.00002" stroke-linecap="round" stroke-linejoin="round"/>
</svg>
