<svg width="8" height="4" viewBox="0 0 8 4" fill="none" xmlns="http://www.w3.org/2000/svg">
<path d="M3.57938 1.1133C3.38123 0.688814 3.04735 0.352605 2.63718 0.164515C2.22701 -0.0235752 1.76716 -0.0513418 1.33948 0.0861576C0.9118 0.223657 0.544042 0.517501 0.301666 0.915384C0.0592903 1.31327 -0.0419759 1.78938 0.0158928 2.25896C0.0737615 2.72854 0.28701 3.16113 0.617681 3.47973C0.948351 3.79833 1.37499 3.98226 1.82165 3.99878C2.26831 4.01531 2.70602 3.86335 3.05685 3.56997C3.40769 3.27659 3.64889 2.86081 3.73753 2.39665L3.14965 2.2706C3.08918 2.58727 2.92462 2.87093 2.68527 3.07108C2.44592 3.27124 2.14731 3.3749 1.84258 3.36363C1.53785 3.35236 1.24679 3.22687 1.02119 3.00952C0.7956 2.79216 0.650115 2.49703 0.610635 2.17667C0.571155 1.85631 0.640242 1.53149 0.805598 1.26004C0.970955 0.988593 1.22185 0.788123 1.51363 0.694317C1.80541 0.600511 2.11913 0.619454 2.39896 0.747775C2.58139 0.831432 2.7417 0.958037 2.86865 1.11628L3.57938 1.1133Z" fill="#E0C467"/>
<rect x="1.49219" y="1.95349" width="6.23317" height="0.558139" fill="#E0C467"/>
<path d="M5.53073 3.30231L6.63484 2.32556L6.91629 2.68249L5.53073 3.89318L5.53073 3.30231Z" fill="#E0C467"/>
<path d="M7.72562 3.30231L6.60241 2.32556L6.32096 2.68249L7.72562 3.89318L7.72562 3.30231Z" fill="#E0C467"/>
</svg>
