<svg width="168" height="35" viewBox="0 0 168 35" fill="none" xmlns="http://www.w3.org/2000/svg">
<path d="M4.02473 14.0376C4.02473 8.53957 8.13919 4.42512 13.6373 4.42512C17.7153 4.42512 20.0092 6.39132 21.5021 8.32111L24.5606 6.28208C22.6308 3.47843 18.9897 0.711185 13.6373 0.711185C6.13658 0.711185 0.3108 6.53696 0.3108 14.0376C0.3108 21.5383 6.13658 27.3641 13.6373 27.3641C21.2108 27.3641 27.0365 21.4655 27.0365 14.0012C27.0365 13.5643 27.0001 13.1274 27.0001 12.654H14.2198V16.368H23.0677C22.3031 19.8634 19.0625 23.6502 13.6373 23.6502C8.13919 23.6502 4.02473 19.5357 4.02473 14.0376ZM32.9636 19.4993C32.9636 17.0598 34.9662 15.0572 37.4057 15.0572C39.8453 15.0572 41.8479 17.0598 41.8479 19.4993C41.8479 21.9389 39.8453 23.9415 37.4057 23.9415C34.9662 23.9415 32.9636 21.9389 32.9636 19.4993ZM45.2341 19.4993C45.2341 15.1664 41.7387 11.6709 37.4057 11.6709C33.0728 11.6709 29.5774 15.1664 29.5774 19.4993C29.5774 23.8322 33.0728 27.3277 37.4057 27.3277C41.7387 27.3277 45.2341 23.8322 45.2341 19.4993ZM52.6535 27V0.0557868H49.1216V27H52.6535ZM73.6026 0.0557868H70.0708V14.1469C69.1241 13.091 67.4492 11.6345 64.2086 11.6345C59.9849 11.6345 56.453 15.13 56.453 19.6085C56.453 24.0507 60.0941 27.3277 64.2086 27.3277C67.2671 27.3277 69.0513 25.8713 70.0708 24.8153V27H73.6026V0.0557868ZM64.7547 24.2328C61.9875 24.2328 59.9849 22.2301 59.9849 19.4629C59.9849 16.6592 61.9875 14.6566 64.7547 14.6566C67.5584 14.6566 69.561 16.6592 69.561 19.4629C69.561 22.2301 67.5584 24.2328 64.7547 24.2328ZM88.4097 17.4967H80.5449C80.9455 16.0403 82.4019 14.6566 84.4409 14.6566C86.5892 14.6566 87.8272 15.9674 88.4097 17.4967ZM76.6854 19.4993C76.6854 23.9415 79.9259 27.3277 84.4409 27.3277C87.9 27.3277 89.8662 25.4343 90.6672 24.1963L88.1549 22.4122C87.5723 23.1404 86.2979 24.1235 84.623 24.1235C81.6737 24.1235 80.2536 22.1573 80.2536 19.7178H92.1965C92.1965 14.8387 88.8831 11.6709 84.4409 11.6709C79.9624 11.6709 76.6854 15.3849 76.6854 19.4993ZM95.0493 27H98.5812V18.6983C98.5812 17.2054 99.6007 15.13 102.004 15.13C104.043 15.13 104.844 16.5136 104.844 18.589V27H108.376V17.8972C108.376 14.4746 106.774 11.6345 102.732 11.6345C99.9284 11.6345 99.0546 13.1638 98.5812 14.1105V11.9622H95.0493V27ZM115.58 11.9622V1.00247H111.866V27H115.58V17.4603L116.928 15.9674L126.067 27H130.946L119.476 13.1638L130.618 1.00247H125.593L115.58 11.9622ZM144.804 17.4967H136.939C137.34 16.0403 138.796 14.6566 140.835 14.6566C142.984 14.6566 144.222 15.9674 144.804 17.4967ZM133.08 19.4993C133.08 23.9415 136.32 27.3277 140.835 27.3277C144.295 27.3277 146.261 25.4343 147.062 24.1963L144.549 22.4122C143.967 23.1404 142.692 24.1235 141.018 24.1235C138.068 24.1235 136.648 22.1573 136.648 19.7178H148.591C148.591 14.8387 145.278 11.6709 140.835 11.6709C136.357 11.6709 133.08 15.3849 133.08 19.4993ZM159.127 21.7568L153.847 11.9622H150.06L157.342 25.5436L153.301 34.1366H157.015L167.356 11.9622H163.714L159.127 21.7568Z" fill="white"/>
</svg>
