<svg width="44" height="44" viewBox="0 0 44 44" fill="none" xmlns="http://www.w3.org/2000/svg">
<circle cx="22" cy="22" r="22" fill="url(#paint0_linear)"/>
<path d="M29.2388 13.2H15.8611C14.3508 13.2 13.2 14.3507 13.2 15.8611V29.2388C13.2 30.7492 14.3508 31.9 15.8611 31.9H29.2388C30.7492 31.9 31.9 30.7492 31.9 29.2388V15.8611C31.9 14.3507 30.7492 13.2 29.2388 13.2ZM22.55 28.16C25.6427 28.16 28.16 25.7146 28.16 22.7657C28.16 22.2623 28.0881 21.6869 27.9442 21.2553H29.5265V28.8792C29.5265 29.2388 29.2388 29.5984 28.8073 29.5984H16.2927C15.9331 29.5984 15.5735 29.3107 15.5735 28.8792V21.1834H17.2277C17.0838 21.6869 17.0119 22.1903 17.0119 22.6938C16.94 25.7146 19.4573 28.16 22.55 28.16ZM22.55 26.0023C20.5362 26.0023 18.9538 24.42 18.9538 22.478C18.9538 20.5361 20.5362 18.9538 22.55 18.9538C24.5638 18.9538 26.1462 20.5361 26.1462 22.478C26.1462 24.4919 24.5638 26.0023 22.55 26.0023ZM29.4546 18.3065C29.4546 18.738 29.095 19.0976 28.6635 19.0976H26.6496C26.2181 19.0976 25.8585 18.738 25.8585 18.3065V16.3646C25.8585 15.933 26.2181 15.5734 26.6496 15.5734H28.6635C29.095 15.5734 29.4546 15.933 29.4546 16.3646V18.3065Z" fill="white"/>
<defs>
<linearGradient id="paint0_linear" x1="9.35" y1="39.05" x2="38.5" y2="8.8" gradientUnits="userSpaceOnUse">
<stop stop-color="#EEA054"/>
<stop offset="0.502762" stop-color="#D64763"/>
<stop offset="1" stop-color="#B62A99"/>
</linearGradient>
</defs>
</svg>
