<svg width="27" height="27" viewBox="0 0 27 27" fill="none" xmlns="http://www.w3.org/2000/svg">
<ellipse cx="13.5" cy="13.3612" rx="13.5" ry="13.3612" fill="url(#paint0_linear)"/>
<path d="M17.4346 7.91772H9.56538C8.67692 7.91772 8 8.58769 8 9.46702V17.2554C8 18.1347 8.67692 18.8047 9.56538 18.8047H17.4346C18.3231 18.8047 19 18.1347 19 17.2554V9.46702C19 8.58769 18.3231 7.91772 17.4346 7.91772ZM13.5 16.6273C15.3192 16.6273 16.8 15.2036 16.8 13.4868C16.8 13.3741 16.7937 13.2552 16.7812 13.1372C16.7531 12.8726 16.9486 12.6075 17.2147 12.6075C17.4296 12.6075 17.6038 12.7817 17.6038 12.9966V17.046C17.6038 17.2554 17.4346 17.4648 17.1808 17.4648H9.81923C9.60769 17.4648 9.39616 17.2973 9.39616 17.046V12.9833C9.39616 12.7526 9.58317 12.5656 9.81387 12.5656C10.0919 12.5656 10.2912 12.8333 10.2608 13.1096C10.2485 13.2214 10.2423 13.3332 10.2423 13.445C10.2 15.2036 11.6808 16.6273 13.5 16.6273ZM13.5 15.3711C12.3154 15.3711 11.3846 14.4499 11.3846 13.3193C11.3846 12.1888 12.3154 11.2676 13.5 11.2676C14.6846 11.2676 15.6154 12.1888 15.6154 13.3193C15.6154 14.4918 14.6846 15.3711 13.5 15.3711ZM17.5615 10.8907C17.5615 11.1419 17.35 11.3513 17.0962 11.3513H15.9115C15.6577 11.3513 15.4462 11.1419 15.4462 10.8907V9.76013C15.4462 9.5089 15.6577 9.29953 15.9115 9.29953H17.0962C17.35 9.29953 17.5615 9.5089 17.5615 9.76013V10.8907Z" fill="white"/>
<defs>
<linearGradient id="paint0_linear" x1="5.7375" y1="23.7161" x2="23.4334" y2="5.16173" gradientUnits="userSpaceOnUse">
<stop stop-color="#EEA054"/>
<stop offset="0.502762" stop-color="#D64763"/>
<stop offset="1" stop-color="#B62A99"/>
</linearGradient>
</defs>
</svg>
