<svg width="261" height="84" viewBox="0 0 261 84" fill="none" xmlns="http://www.w3.org/2000/svg">
<g clip-path="url(#clip0)">
<path d="M81.1199 41.2067V25.37H86.6665C88.4966 25.37 89.8899 25.729 90.8454 26.4468C91.8015 27.1647 92.2795 28.2342 92.2795 29.6555C92.2795 30.3806 92.0794 31.0332 91.6793 31.6134C91.2791 32.1934 90.6939 32.643 89.9229 32.962C90.7975 33.1941 91.472 33.6328 91.9459 34.2782C92.4275 34.9163 92.6683 35.6849 92.6683 36.5841C92.6683 38.0706 92.1795 39.2126 91.2012 40.0103C90.2308 40.808 88.8374 41.2067 87.0223 41.2067H81.1199ZM83.9318 34.0607V39.0096H87.0553C87.9371 39.0096 88.6265 38.7957 89.1226 38.3679C89.6192 37.9401 89.8678 37.3455 89.8678 36.5841C89.8678 34.938 89.0081 34.0969 87.2889 34.0607H83.9318ZM83.9318 32.0375H86.6886C87.5632 32.0375 88.245 31.8454 88.7338 31.4611C89.2304 31.0695 89.4784 30.5184 89.4784 29.8078C89.4784 29.0247 89.249 28.459 88.7895 28.111C88.3372 27.7629 87.6297 27.5889 86.6665 27.5889H83.9318V32.0375ZM94.7135 35.2136C94.7135 34.0607 94.9471 33.0237 95.4137 32.1028C95.881 31.1746 96.5363 30.464 97.3816 29.9709C98.2262 29.4706 99.1967 29.2204 100.294 29.2204C101.916 29.2204 103.232 29.7316 104.239 30.754C105.255 31.7765 105.803 33.1325 105.884 34.822L105.895 35.442C105.895 36.6022 105.666 37.6392 105.206 38.5528C104.755 39.4664 104.102 40.1734 103.25 40.6738C102.405 41.1741 101.428 41.4243 100.316 41.4243C98.6186 41.4243 97.2594 40.8732 96.2362 39.771C95.2214 38.6616 94.7135 37.186 94.7135 35.3441V35.2136ZM97.4145 35.442C97.4145 36.653 97.6703 37.6029 98.1819 38.2917C98.6929 38.9734 99.4046 39.3142 100.316 39.3142C101.227 39.3142 101.935 38.9661 102.439 38.27C102.95 37.5738 103.206 36.5551 103.206 35.2136C103.206 34.0244 102.943 33.0817 102.417 32.3856C101.898 31.6894 101.19 31.3414 100.294 31.3414C99.4118 31.3414 98.7115 31.6859 98.1927 32.3747C97.6739 33.0564 97.4145 34.0788 97.4145 35.442ZM107.429 39.0966C108.178 38.2772 108.678 37.5013 108.93 36.769C109.189 36.0294 109.345 35.0867 109.397 33.941L109.552 29.4379H117.9V39.0966H119.567V44.7091H116.878V41.2067H109.164V44.7091H106.429L106.44 39.0966H107.429ZM110.597 39.0966H115.21V31.7113H112.176L112.098 33.9628C111.994 36.1236 111.494 37.8349 110.597 39.0966ZM120.99 35.2136C120.99 34.0607 121.223 33.0237 121.69 32.1028C122.157 31.1746 122.813 30.464 123.658 29.9709C124.502 29.4706 125.473 29.2204 126.569 29.2204C128.192 29.2204 129.508 29.7316 130.515 30.754C131.531 31.7765 132.079 33.1325 132.16 34.822L132.172 35.442C132.172 36.6022 131.942 37.6392 131.482 38.5528C131.031 39.4664 130.378 40.1734 129.526 40.6738C128.682 41.1741 127.703 41.4243 126.592 41.4243C124.895 41.4243 123.535 40.8732 122.513 39.771C121.497 38.6616 120.99 37.186 120.99 35.3441V35.2136ZM123.691 35.442C123.691 36.653 123.946 37.6029 124.458 38.2917C124.969 38.9734 125.681 39.3142 126.592 39.3142C127.503 39.3142 128.211 38.9661 128.715 38.27C129.226 37.5738 129.482 36.5551 129.482 35.2136C129.482 34.0244 129.218 33.0817 128.693 32.3856C128.174 31.6894 127.466 31.3414 126.569 31.3414C125.688 31.3414 124.987 31.6859 124.469 32.3747C123.95 33.0564 123.691 34.0788 123.691 35.442ZM139.396 39.3142C140.071 39.3142 140.63 39.122 141.075 38.7377C141.519 38.3534 141.756 37.8784 141.786 37.3128H144.332C144.302 38.0452 144.068 38.7304 143.632 39.3686C143.194 39.9994 142.601 40.4997 141.853 40.8696C141.105 41.2394 140.297 41.4243 139.43 41.4243C137.748 41.4243 136.414 40.8913 135.428 39.8254C134.443 38.7595 133.95 37.2874 133.95 35.4094V35.1375C133.95 33.3464 134.439 31.9143 135.417 30.8411C136.396 29.7606 137.729 29.2204 139.418 29.2204C140.849 29.2204 142.012 29.6301 142.909 30.4495C143.813 31.2616 144.287 32.3312 144.332 33.6582H141.786C141.756 32.9838 141.519 32.4291 141.075 31.994C140.637 31.559 140.078 31.3414 139.396 31.3414C138.522 31.3414 137.848 31.6532 137.373 32.2768C136.899 32.8932 136.659 33.8322 136.651 35.094V35.5181C136.651 36.7944 136.884 37.7479 137.351 38.3788C137.826 39.0024 138.507 39.3142 139.396 39.3142ZM156.558 41.2067H153.857V36.4535H149.177V41.2067H146.477V29.4379H149.177V34.3434H153.857V29.4379H156.558V41.2067ZM166.628 41.2067C166.51 40.9819 166.406 40.6158 166.317 40.1082C165.458 40.9856 164.405 41.4243 163.16 41.4243C161.953 41.4243 160.967 41.0871 160.204 40.4127C159.441 39.7384 159.059 38.9045 159.059 37.911C159.059 36.6566 159.533 35.6958 160.482 35.0287C161.438 34.3543 162.801 34.0172 164.572 34.0172H166.228V33.2449C166.228 32.6358 166.054 32.1499 165.706 31.7873C165.358 31.4176 164.828 31.2327 164.116 31.2327C163.501 31.2327 162.997 31.3849 162.605 31.6894C162.212 31.9868 162.016 32.3675 162.016 32.8316H159.315C159.315 32.1862 159.533 31.5843 159.97 31.026C160.408 30.4604 161 30.0181 161.749 29.699C162.505 29.38 163.345 29.2204 164.272 29.2204C165.68 29.2204 166.803 29.5685 167.64 30.2646C168.478 30.9535 168.907 31.9252 168.929 33.1796V38.4875C168.929 39.5462 169.081 40.391 169.385 41.0219V41.2067H166.628ZM163.661 39.3033C164.194 39.3033 164.695 39.1764 165.161 38.9226C165.636 38.6688 165.991 38.328 166.228 37.9002V35.6813H164.772C163.772 35.6813 163.02 35.8517 162.516 36.1925C162.012 36.5333 161.76 37.0155 161.76 37.6392C161.76 38.1467 161.931 38.5528 162.271 38.8573C162.619 39.1546 163.082 39.3033 163.661 39.3033ZM177.421 30.0906C178.933 30.0906 180.145 30.5873 181.056 31.5807C181.967 32.5669 182.423 33.9084 182.423 35.6051V35.7357C182.423 37.4325 181.927 38.8066 180.933 39.858C179.948 40.9094 178.607 41.4351 176.91 41.4351C175.257 41.4351 173.923 40.8986 172.909 39.8254C171.893 38.7522 171.386 37.2874 171.386 35.4311V34.6697C171.386 32.1318 171.845 30.1232 172.764 28.6439C173.683 27.1647 175.054 26.2402 176.877 25.8703C177.899 25.6673 178.559 25.4534 178.855 25.2286C179.159 24.9965 179.311 24.6847 179.311 24.2932H181.489C181.489 25.0256 181.367 25.6202 181.123 26.077C180.878 26.5338 180.504 26.9073 180 27.1973C179.496 27.4801 178.629 27.7484 177.399 28.0022C176.273 28.2342 175.413 28.6476 174.82 29.2421C174.235 29.8368 173.842 30.6598 173.642 31.7113C174.717 30.6308 175.976 30.0906 177.421 30.0906ZM176.888 32.2116C176.013 32.2116 175.328 32.5016 174.832 33.0817C174.335 33.6546 174.087 34.5392 174.087 35.7357C174.087 36.8669 174.331 37.7479 174.82 38.3788C175.31 39.0096 176.006 39.325 176.91 39.325C177.806 39.325 178.5 39.0096 178.988 38.3788C179.485 37.7406 179.733 36.7835 179.733 35.5072C179.733 34.4921 179.485 33.6908 178.988 33.1035C178.5 32.5088 177.799 32.2116 176.888 32.2116ZM194.95 36.4753H193.516V41.2067H190.815V36.4753H189.392L186.624 41.2067H183.312L187.302 35.0831L183.523 29.4379H186.824L189.548 34.0607H190.815V29.4379H193.516V34.0607H194.794L197.528 29.4379H200.83L197.062 35.0504L201.074 41.2067H197.718L194.95 36.4753ZM207.821 41.4243C206.11 41.4243 204.72 40.8986 203.653 39.8472C202.593 38.7885 202.064 37.3817 202.064 35.6269V35.3006C202.064 34.1259 202.293 33.0781 202.752 32.1572C203.219 31.229 203.871 30.5075 204.709 29.9927C205.546 29.4779 206.48 29.2204 207.509 29.2204C209.147 29.2204 210.411 29.7316 211.3 30.754C212.196 31.7765 212.645 33.2231 212.645 35.094V36.1599H204.787C204.868 37.1316 205.198 37.9002 205.776 38.4658C206.361 39.0314 207.095 39.3142 207.977 39.3142C209.214 39.3142 210.222 38.8247 211 37.8458L212.456 39.2054C211.974 39.9088 211.33 40.4562 210.522 40.8478C209.722 41.2321 208.821 41.4243 207.821 41.4243ZM207.499 31.3414C206.758 31.3414 206.157 31.5952 205.698 32.1028C205.246 32.6104 204.957 33.3174 204.831 34.2238H209.978V34.028C209.918 33.1434 209.677 32.4763 209.255 32.0266C208.832 31.5698 208.247 31.3414 207.499 31.3414ZM224.938 41.2067H222.237V36.4535H217.558V41.2067H214.857V29.4379H217.558V34.3434H222.237V29.4379H224.938V41.2067ZM235.331 29.4379H238.021V41.2067H235.331V33.3536L230.618 41.2067H227.928V29.4379H230.618V37.2911L235.331 29.4379ZM246.19 41.4243C244.478 41.4243 243.089 40.8986 242.022 39.8472C240.963 38.7885 240.432 37.3817 240.432 35.6269V35.3006C240.432 34.1259 240.662 33.0781 241.122 32.1572C241.589 31.229 242.241 30.5075 243.078 29.9927C243.915 29.4779 244.849 29.2204 245.879 29.2204C247.517 29.2204 248.78 29.7316 249.669 30.754C250.566 31.7765 251.014 33.2231 251.014 35.094V36.1599H243.156C243.237 37.1316 243.567 37.9002 244.145 38.4658C244.731 39.0314 245.464 39.3142 246.346 39.3142C247.583 39.3142 248.591 38.8247 249.369 37.8458L250.825 39.2054C250.344 39.9088 249.699 40.4562 248.892 40.8478C248.091 41.2321 247.191 41.4243 246.19 41.4243ZM245.868 31.3414C245.127 31.3414 244.527 31.5952 244.067 32.1028C243.615 32.6104 243.326 33.3174 243.201 34.2238H248.346V34.028C248.287 33.1434 248.046 32.4763 247.624 32.0266C247.202 31.5698 246.616 31.3414 245.868 31.3414ZM88.3132 55.5368C88.2102 56.6038 87.8077 57.4374 87.1056 58.0373C86.4035 58.6327 85.4702 58.9304 84.3044 58.9304C83.4903 58.9304 82.7721 58.7426 82.1497 58.367C81.5321 57.9869 81.0546 57.4488 80.7174 56.7527C80.3807 56.0565 80.2052 55.2482 80.1908 54.3277V53.3935C80.1908 52.45 80.3615 51.6188 80.7036 50.8998C81.045 50.1808 81.5345 49.6266 82.1706 49.2373C82.8116 48.8481 83.5514 48.6534 84.3889 48.6534C85.5169 48.6534 86.4251 48.9534 87.1128 49.5533C87.8005 50.1533 88.2006 51.0005 88.3132 52.0951H86.5443C86.4598 51.3761 86.2447 50.8585 85.8985 50.5426C85.5564 50.222 85.0532 50.0617 84.3889 50.0617C83.6167 50.0617 83.0225 50.3387 82.6061 50.8929C82.194 51.4424 81.9837 52.2508 81.9741 53.3179V54.2041C81.9741 55.2849 82.1706 56.1092 82.5636 56.6771C82.9614 57.245 83.5418 57.529 84.3044 57.529C85.0023 57.529 85.5265 57.3755 85.8775 57.0687C86.228 56.7619 86.4508 56.2512 86.5443 55.5368H88.3132ZM98.0639 54.0529C98.0639 55.033 97.8908 55.894 97.5445 56.6359C97.1983 57.3732 96.7023 57.9411 96.0565 58.3396C95.4149 58.7334 94.6757 58.9304 93.8382 58.9304C93.0098 58.9304 92.2699 58.7334 91.6194 58.3396C90.9736 57.9411 90.4728 57.3755 90.1176 56.6427C89.7665 55.91 89.5886 55.065 89.5838 54.1079V53.5446C89.5838 52.5691 89.7593 51.7081 90.1104 50.9616C90.4662 50.2151 90.9646 49.6449 91.6056 49.2511C92.2514 48.8526 92.9906 48.6534 93.8239 48.6534C94.6571 48.6534 95.394 48.8504 96.0355 49.2442C96.6813 49.6335 97.1797 50.1968 97.5308 50.9341C97.8818 51.6669 98.0591 52.521 98.0639 53.4965V54.0529ZM96.2877 53.5308C96.2877 52.4225 96.0727 51.573 95.642 50.9822C95.2161 50.3914 94.6104 50.096 93.8239 50.096C93.0565 50.096 92.455 50.3914 92.0195 50.9822C91.5894 51.5684 91.369 52.3997 91.36 53.4759V54.0529C91.36 55.1521 91.5774 56.0016 92.0129 56.6015C92.4526 57.2015 93.0613 57.5015 93.8382 57.5015C94.6242 57.5015 95.228 57.2084 95.6492 56.6222C96.0751 56.036 96.2877 55.1795 96.2877 54.0529V53.5308ZM107.653 48.7908V58.793H105.884V54.8567C105.126 55.0445 104.335 55.1383 103.512 55.1383C102.29 55.1383 101.366 54.875 100.739 54.3483C100.111 53.8216 99.7958 53.0271 99.791 51.9646V48.7908H101.56V51.9783C101.565 52.6149 101.714 53.0683 102.009 53.3385C102.304 53.6087 102.805 53.7438 103.512 53.7438C104.326 53.7438 105.117 53.6476 105.884 53.4552V48.7908H107.653ZM116.05 48.7908H117.826V58.793H116.05V51.6692L111.563 58.793H109.788V48.7908H111.563V55.9215L116.05 48.7908Z" fill="#2B5EAA"/>
<path d="M49.9698 23.5035H25.5926V21.1587H49.9698V23.5035Z" fill="#2B5EAA"/>
<path d="M49.9698 29.131H25.5926V26.7861H49.9698V29.131Z" fill="#2B5EAA"/>
<path d="M33.7584 34.9929V29.1309H36.1601V34.9929H33.7584Z" fill="#2B5EAA"/>
<path d="M30.8763 36.0481C30.8763 35.4653 31.3602 34.9929 31.9571 34.9929H43.7254C44.3223 34.9929 44.8062 35.4653 44.8062 36.0481V37.3377H30.8763V36.0481Z" fill="#2B5EAA"/>
<path d="M39.5225 34.9929V29.1309H41.9242V34.9929H39.5225Z" fill="#2B5EAA"/>
<path d="M30.8763 39.2137V36.8689H33.278V39.2137H30.8763Z" fill="#2B5EAA"/>
<path d="M42.4045 39.2137V36.8689H44.8062V39.2137H42.4045Z" fill="#2B5EAA"/>
<path d="M34.3588 18.3448V16.9379C34.3588 16.4199 34.7889 16 35.3195 16L37.7212 16V18.3448H34.3588Z" fill="#2B5EAA"/>
<path d="M41.3238 18.3448V16.9379C41.3238 16.4199 40.8937 16 40.3631 16L37.7212 16V18.3448H41.3238Z" fill="#2B5EAA"/>
<path d="M34.8392 21.1585H32.1973L34.3589 16.8792H37.0007L34.8392 21.1585Z" fill="#2B5EAA"/>
<path d="M40.8434 21.2173H43.4853L41.3238 16.938H38.6819L40.8434 21.2173Z" fill="#2B5EAA"/>
<path d="M30.3521 51.8993C30.3521 56.3546 33.8947 59.4027 37.9175 59.4027C39.3585 59.4027 39.2985 61.7475 37.9175 61.7475C31.3129 61.7475 27.9504 56.4719 27.9504 51.8993C27.9504 50.6098 30.3521 50.6097 30.3521 51.8993Z" fill="#2B5EAA"/>
<path d="M12.9237 65.8275C12.2936 65.8275 11.7828 65.3289 11.7828 64.7137V39.624C11.7828 39.0089 12.2936 38.5103 12.9237 38.5103C13.5537 38.5103 14.0645 39.0089 14.0645 39.624V64.7137C14.0645 65.3289 13.5537 65.8275 12.9237 65.8275Z" fill="#2B5EAA"/>
<path d="M12.9837 65.8275C12.3205 65.8275 11.7828 65.3026 11.7828 64.6551V39.6827C11.7828 39.0351 12.3205 38.5103 12.9837 38.5103C13.6469 38.5103 14.1845 39.0351 14.1845 39.6827V64.6551C14.1845 65.3026 13.6469 65.8275 12.9837 65.8275Z" fill="#2B5EAA"/>
<path d="M18.7477 65.8275C18.0845 65.8275 17.5469 65.3026 17.5469 64.6551V39.6827C17.5469 39.0351 18.0845 38.5103 18.7477 38.5103C19.4109 38.5103 19.9486 39.0351 19.9486 39.6827V64.6551C19.9486 65.3026 19.4109 65.8275 18.7477 65.8275Z" fill="#2B5EAA"/>
<path d="M18.7477 40.8551H12.9836V38.5103H18.7477V40.8551Z" fill="#2B5EAA"/>
<path d="M18.7477 65.8275H12.9836V63.4827H18.7477V65.8275Z" fill="#2B5EAA"/>
<path d="M56.8748 65.8275C56.2448 65.8275 55.734 65.3289 55.734 64.7137V39.624C55.734 39.0089 56.2448 38.5103 56.8748 38.5103C57.5048 38.5103 58.0156 39.0089 58.0156 39.624V64.7137C58.0156 65.3289 57.5048 65.8275 56.8748 65.8275Z" fill="#2B5EAA"/>
<path d="M56.9349 65.8275C56.2717 65.8275 55.734 65.3026 55.734 64.6551V39.6827C55.734 39.0351 56.2717 38.5103 56.9349 38.5103C57.5981 38.5103 58.1357 39.0351 58.1357 39.6827V64.6551C58.1357 65.3026 57.5981 65.8275 56.9349 65.8275Z" fill="#2B5EAA"/>
<path d="M62.6987 65.8275C62.0355 65.8275 61.4982 65.3026 61.4982 64.6551V39.6827C61.4982 39.0351 62.0355 38.5103 62.6987 38.5103C63.3624 38.5103 63.8997 39.0351 63.8997 39.6827V64.6551C63.8997 65.3026 63.3624 65.8275 62.6987 65.8275Z" fill="#2B5EAA"/>
<path d="M62.6987 40.8551H56.9348V38.5103H62.6987V40.8551Z" fill="#2B5EAA"/>
<path d="M62.6987 65.8275H56.9348V63.4827H62.6987V65.8275Z" fill="#2B5EAA"/>
<path d="M19.9486 42.4966H26.6734V44.9587H19.9486V42.4966Z" fill="#2B5EAA"/>
<path d="M49.0092 42.4966H55.734V44.9587H49.0092V42.4966Z" fill="#2B5EAA"/>
<path d="M19.9486 59.262H26.6734V61.724H19.9486V59.262Z" fill="#2B5EAA"/>
<path d="M49.2494 59.262H55.734V61.724H49.2494V59.262Z" fill="#2B5EAA"/>
<path d="M25.049 60.1168C26.4239 62.2417 28.3313 63.9891 30.5908 65.1934C32.8504 66.3978 35.3873 67.0194 37.9616 66.9994C40.5358 66.9794 43.0623 66.3186 45.302 65.0793C47.5416 63.84 49.4203 62.0632 50.7604 59.9172L50.0452 59.4915C49.2524 59.0196 48.226 59.2731 47.6416 59.9775C46.6512 61.1714 45.4375 62.1775 44.06 62.9398C42.1931 63.9728 40.0873 64.5236 37.9415 64.5403C35.7958 64.5569 33.6812 64.0389 31.7979 63.035C30.2667 62.2189 28.9296 61.1037 27.8672 59.7634C27.4613 59.2513 26.724 59.0838 26.1633 59.4296L25.049 60.1168Z" fill="#2B5EAA"/>
<path d="M25.0709 44.0881C26.997 41.2078 29.8851 39.0673 33.2445 38.0305L33.2255 39.9727C33.2211 40.4292 32.9143 40.8265 32.4776 40.9896C30.4829 41.7346 29.1196 42.8297 27.8637 44.4683C27.4663 44.9867 26.727 45.1437 26.1717 44.7897L25.0709 44.0881Z" fill="#2B5EAA"/>
<path d="M50.5781 44.0992C48.6521 41.2188 45.764 39.0783 42.4045 38.0415L42.4235 39.9837C42.428 40.4402 42.7347 40.8375 43.1715 41.0007C45.1661 41.7456 46.5295 42.8407 47.7854 44.4793C48.1828 44.9978 48.9221 45.1547 49.4774 44.8007L50.5781 44.0992Z" fill="#2B5EAA"/>
<path d="M25.5926 21.1587C24.5098 21.1587 23.4713 21.5787 22.7056 22.3262C21.9399 23.0738 21.5097 24.0877 21.5097 25.1449C21.5097 26.2021 21.9399 27.216 22.7056 27.9636C23.4713 28.7111 24.5098 29.1311 25.5926 29.1311V26.7634C25.153 26.7634 24.7313 26.5928 24.4205 26.2893C24.1096 25.9858 23.9349 25.5741 23.9349 25.1449C23.9349 24.7157 24.1096 24.304 24.4205 24.0005C24.7313 23.697 25.153 23.5264 25.5926 23.5264V21.1587Z" fill="#2B5EAA"/>
<path d="M49.9698 21.1587C51.0527 21.1587 52.0913 21.5787 52.8569 22.3262C53.6226 23.0738 54.0528 24.0877 54.0528 25.1449C54.0528 26.2021 53.6226 27.216 52.8569 27.9636C52.0913 28.7111 51.0527 29.1311 49.9698 29.1311V26.7634C50.4095 26.7634 50.8312 26.5928 51.1421 26.2893C51.4529 25.9858 51.6276 25.5741 51.6276 25.1449C51.6276 24.7157 51.4529 24.304 51.1421 24.0005C50.8312 23.697 50.4095 23.5264 49.9698 23.5264V21.1587Z" fill="#2B5EAA"/>
</g>
<defs>
<clipPath id="clip0">
<rect width="251" height="51" fill="white" transform="translate(1 16)"/>
</clipPath>
</defs>
</svg>
