<svg width="261" height="84" viewBox="0 0 261 84" fill="none" xmlns="http://www.w3.org/2000/svg">
<g filter="url(#filter0_d)">
<g clip-path="url(#clip0)">
<path d="M73.8594 52.4956C74.3904 52.491 74.9153 52.6066 75.3937 52.8334V53.9131C75.0031 53.6336 74.5306 53.4871 74.0478 53.4958C73.7989 53.4755 73.5485 53.508 73.3134 53.591C73.0783 53.674 72.864 53.8056 72.6849 53.9769C72.5057 54.1482 72.3659 54.3553 72.2749 54.5842C72.1838 54.8131 72.1436 55.0586 72.1569 55.3041C72.1575 55.5398 72.2083 55.7728 72.3062 55.9879C72.404 56.2031 72.5467 56.3955 72.725 56.5529C72.9033 56.7103 73.1132 56.829 73.341 56.9015C73.5689 56.9739 73.8097 56.9984 74.0478 56.9733C74.5346 56.9872 75.0109 56.8325 75.3937 56.5361V57.6622C74.9081 57.8888 74.3766 58.0043 73.8392 58C73.4658 58.0286 73.0903 57.9802 72.737 57.8578C72.3836 57.7354 72.0601 57.5418 71.7871 57.2893C71.5141 57.0368 71.2977 56.731 71.1516 56.3914C71.0056 56.0518 70.9331 55.686 70.939 55.3173C70.9189 54.937 70.9812 54.5569 71.1216 54.202C71.2621 53.8472 71.4775 53.5257 71.7536 53.259C72.0296 52.9922 72.3601 52.7862 72.7232 52.6546C73.0862 52.523 73.4735 52.4688 73.8594 52.4956ZM76.2146 57.894L78.4083 52.5949H79.6465L81.8335 57.894H80.6424L80.2521 56.9071H77.8027L77.4057 57.894H76.2146ZM78.1593 55.9731H79.8955L79.1418 54.0787C79.0907 53.9433 79.0524 53.8036 79.0274 53.6614C79.0041 53.8047 78.9634 53.9448 78.9063 54.0787L78.1593 55.9731ZM87.6071 52.6148V57.9139H86.4631V55.7677H84.0541V57.894H82.9034V52.5949H84.0541V54.7212H86.4631V52.6148H87.6071ZM93.199 52.6148V53.6349H91.5504V57.894H90.4064V53.6349H88.7578V52.6148H93.199ZM98.1247 52.6148V53.6084H95.4936V54.7344H97.8959V55.7214H95.4936V56.9004H98.1853V57.894H94.3631V52.5949L98.1247 52.6148ZM98.9322 57.894L100.85 55.1451L99.0466 52.6015H100.392L101.577 54.337L102.761 52.6015H104.107L102.29 55.1451L104.215 57.8808H102.869L101.57 55.9598L100.271 57.8808L98.9322 57.894ZM109.928 52.6148V57.9139H108.777V55.7677H106.368V57.894H105.217V52.5949H106.368V54.7212H108.777V52.6148H109.928ZM115.102 57.894V55.1451V54.4231L112.666 57.894H111.583V52.5949H112.734V56.0393L115.23 52.5949H116.307V57.894H115.102ZM117.882 57.894V52.5949H119.032V54.6881H119.894L121.239 52.5949H122.518L120.775 55.165L122.619 57.8741H121.347L119.88 55.7148H119.019V57.8741L117.882 57.894ZM123.097 57.894L125.29 52.5949H126.528L128.715 57.894H127.524L127.134 56.9071H124.685L124.288 57.894H123.097ZM125.048 55.9731H126.798L126.044 54.0787C125.996 53.9423 125.958 53.8029 125.93 53.6614C125.906 53.8047 125.866 53.9448 125.808 54.0787L125.048 55.9731ZM135.546 57.894V55.1451V54.4231L133.042 57.8675H131.966V52.5684H133.116V56.0128L135.613 52.5684H136.696V57.8675L135.546 57.894ZM140.471 57.894V52.5949H141.602V54.6881H142.463L143.809 52.5949H145.087L143.351 55.165L145.188 57.8741H143.917L142.45 55.7148H141.602V57.8741L140.471 57.894ZM150.02 52.6148V53.6084H147.389V54.7344H149.791V55.7214H147.389V56.9004H150.081V57.894H146.252V52.5949L150.02 52.6148ZM153.465 52.6148C154.764 52.6148 155.78 53.0188 155.78 54.39C155.78 55.7611 154.764 56.1586 153.465 56.1586H152.59V57.894H151.447V52.5949L153.465 52.6148ZM153.519 53.6084H152.59V55.1451H153.519C154.111 55.1451 154.609 54.9861 154.609 54.3701C154.609 53.7541 154.111 53.6084 153.519 53.6084ZM155.982 57.894L158.176 52.5949H159.414L161.594 57.894H160.443L160.053 56.9071H157.604L157.2 57.894H155.982ZM157.927 55.9731H159.656L158.909 54.0787C158.855 53.9443 158.816 53.8043 158.795 53.6614C158.768 53.804 158.728 53.9437 158.674 54.0787L157.927 55.9731ZM168.471 52.6148V57.9139H167.321V54.6417L165.901 56.7613H165.228L163.808 54.6351V57.894H162.657V52.5949H163.721L165.564 55.3372L167.395 52.5949L168.471 52.6148ZM173.653 57.894V55.1451V54.4231L171.21 57.894H170.133V52.5949H171.277V56.0393L173.774 52.5949H174.857V57.894H173.653ZM179.467 57.894V55.9996C179.033 56.1433 178.579 56.2193 178.121 56.2248C176.93 56.2248 176.156 55.6286 176.156 54.4099V52.6148H177.307V54.3701C177.307 54.9464 177.764 55.1915 178.41 55.1915C178.775 55.1896 179.136 55.1176 179.473 54.9795V52.6148H180.631V57.9139L179.467 57.894ZM186.014 52.6148V53.6084H183.39V54.7344H185.792V55.7214H183.39V56.9004H186.081V57.894H182.246V52.5949L186.014 52.6148ZM189.957 52.4956C190.488 52.491 191.013 52.6066 191.492 52.8334V53.9131C191.101 53.6336 190.629 53.4871 190.146 53.4958C189.897 53.4757 189.646 53.5082 189.411 53.5911C189.175 53.674 188.96 53.8055 188.781 53.9767C188.601 54.1479 188.461 54.3548 188.369 54.5838C188.277 54.8127 188.236 55.0583 188.248 55.3041C188.25 55.5401 188.301 55.7732 188.4 55.9884C188.499 56.2035 188.642 56.3959 188.821 56.5532C189 56.7105 189.21 56.8291 189.438 56.9015C189.666 56.9738 189.907 56.9983 190.146 56.9733C190.644 56.9951 191.134 56.84 191.525 56.5361V57.6622C191.037 57.8887 190.504 58.0042 189.964 58C189.591 58.0277 189.217 57.9785 188.864 57.8557C188.511 57.7329 188.189 57.5391 187.917 57.2867C187.644 57.0343 187.428 56.7288 187.283 56.3897C187.137 56.0506 187.065 55.6854 187.071 55.3173C187.05 54.9397 187.111 54.5621 187.249 54.2092C187.387 53.8563 187.599 53.5361 187.872 53.2697C188.144 53.0032 188.471 52.7965 188.831 52.6631C189.19 52.5297 189.574 52.4726 189.957 52.4956ZM192.864 57.894V52.5949H194.015V54.6881H194.876L196.222 52.5949H197.501L195.765 55.165L197.602 57.8741H196.33L194.863 55.7148H194.002V57.8741L192.864 57.894ZM198.08 57.894L200.273 52.5949H201.491L203.671 57.894H202.487L202.09 56.9071H199.641L199.244 57.894H198.08ZM200.031 55.9731H201.76L201.007 54.0787C200.959 53.9423 200.921 53.8029 200.892 53.6614C200.872 53.8054 200.831 53.9459 200.771 54.0787L200.031 55.9731ZM204.311 57.894L205.805 55.9532C205.454 55.863 205.144 55.6577 204.928 55.3711C204.711 55.0844 204.6 54.7337 204.614 54.3767C204.614 53.1116 205.63 52.6148 206.767 52.6148H208.947V57.9139H207.796V56.0989H206.996L205.65 57.894H204.311ZM206.774 55.1451H207.796V53.6084H206.774C206.188 53.6084 205.791 53.8534 205.791 54.3767C205.791 54.9 206.202 55.1451 206.774 55.1451ZM212.749 57.894V52.5949H217.412V57.894H216.295V53.6349H213.92V57.894H212.749ZM223.697 52.6148V57.9139H222.547V53.6349H221.073C220.891 55.8804 220.642 57.9536 219.162 57.9603C218.958 57.9639 218.755 57.9302 218.563 57.8609V56.8673C218.681 56.9028 218.804 56.9163 218.926 56.9071C219.835 56.8474 219.882 54.4695 220.017 52.6148H223.697ZM228.852 57.894V55.1451V54.4231L226.389 57.894H225.306V52.5949H226.456V56.0393L228.953 52.5949H230.03V57.894H228.852ZM235.581 52.6148V53.6349H233.939V57.894H232.795V53.6349H231.147V52.6148H235.581ZM236.739 57.894V52.5949H237.882V54.6881H238.751L240.096 52.5949H241.382L239.639 55.165L241.476 57.8741H240.204L238.744 55.7148H237.876V57.8741L236.739 57.894ZM241.954 57.894L244.147 52.5949H245.385L247.572 57.894H246.381L245.991 56.9071H243.542L243.138 57.894H241.954ZM243.898 55.9731H245.634L244.881 54.0787C244.83 53.9433 244.791 53.8036 244.766 53.6614C244.74 53.804 244.699 53.9437 244.645 54.0787L243.898 55.9731ZM70.9793 46.905V26H77.9844V33.4188H79.7407L83.9868 26H91.6849L85.225 36.3531L91.8061 46.905H84.1079L79.5927 39.4465H77.9844V46.905H70.9793ZM110.991 26V31.4316H101.9V33.8493H109.874V38.9232H101.9V41.3939H111.146V46.8851H94.9284V26H110.991ZM115.654 46.905V26H125.506C130.021 26 134.543 27.6692 134.543 33.3724C134.543 36.6247 133.022 38.5655 130.902 39.6055L136.36 46.8917H128.662L124.294 40.7183H122.659V46.8917L115.654 46.905ZM122.659 35.5715H125.351C125.63 35.6014 125.912 35.5716 126.177 35.4842C126.443 35.3967 126.687 35.2538 126.891 35.065C127.096 34.8763 127.257 34.6462 127.362 34.3907C127.468 34.1351 127.517 33.86 127.504 33.5844C127.517 33.3087 127.468 33.0336 127.362 32.778C127.257 32.5225 127.096 32.2924 126.891 32.1037C126.687 31.9149 126.443 31.772 126.177 31.6845C125.912 31.5971 125.63 31.5673 125.351 31.5972H122.659V35.5715ZM138.702 46.905L146.642 26H154.158L162.072 46.8851H154.979L154.071 44.1097H146.736L145.794 46.8851L138.702 46.905ZM148.331 39.1484H152.483L151.023 34.7038C150.744 33.8281 150.541 32.9306 150.417 32.0211C150.284 32.9269 150.091 33.8231 149.838 34.7038L148.331 39.1484ZM189.742 26V46.905H182.926V37.36L179.44 42.6591H175.772L172.287 37.3268V46.905H165.463V26H171.681L177.589 35.1343L183.531 26H189.742ZM205.448 26C213.086 26 216.968 30.7162 216.968 36.4657C216.968 42.2153 213.119 46.9249 205.482 46.9249C197.844 46.9249 193.955 42.2087 193.955 36.4657C193.955 30.7228 197.804 26 205.448 26ZM205.448 31.9615C202.716 31.9615 201.141 33.7036 201.141 36.4525C201.141 39.2014 202.716 40.9369 205.448 40.9369C208.18 40.9369 209.748 39.1948 209.748 36.4525C209.748 33.7102 208.173 31.9615 205.448 31.9615ZM236.873 26V32.0277H228.125V34.6111H235.978V40.4599H228.145V46.905H221.147V26H236.873ZM257 26V32.0277H248.252V34.6111H256.098V40.4599H248.272V46.905H241.267V26H257Z" fill="#483D3E"/>
<path d="M55.7109 57.1323C54.9798 57.6744 54.0893 57.9674 53.174 57.9669H43.9483L37.1653 46.7394H34.6083V57.947H23.4109V26H34.6083V37.1149H37.421L43.7801 26H53.2009C54.0602 25.9979 54.8992 26.257 55.6032 26.7419L46.1824 41.8311L55.7109 57.1323Z" fill="white"/>
<path d="M34.5948 26V37.1149H37.4076L43.7801 26H34.5948ZM34.5948 57.9471H43.9483L37.1653 46.7394H34.5948V57.9471ZM23.411 26H9.27974C8.7198 25.9974 8.16483 26.1035 7.64659 26.3122C7.12834 26.5209 6.65698 26.8282 6.25948 27.2164C5.86198 27.6046 5.54614 28.0662 5.33003 28.5746C5.11391 29.0831 5.00176 29.6285 5 30.1797V53.7674C5.00355 54.8748 5.45204 55.9359 6.24757 56.719C7.0431 57.5021 8.12105 57.9436 9.24609 57.9471H23.411V26ZM55.5763 26.7419L46.1555 41.8311L55.7109 57.1323C56.2359 56.7473 56.6633 56.2481 56.9598 55.6735C57.2563 55.099 57.4138 54.4648 57.4201 53.8204V30.1797C57.4187 29.5025 57.2501 28.8358 56.9289 28.237C56.6078 27.6381 56.1436 27.1251 55.5763 26.7419Z" fill="#8B3C45"/>
</g>
</g>
<defs>
<filter id="filter0_d" x="-4" y="0" width="269" height="92" filterUnits="userSpaceOnUse" color-interpolation-filters="sRGB">
<feFlood flood-opacity="0" result="BackgroundImageFix"/>
<feColorMatrix in="SourceAlpha" type="matrix" values="0 0 0 0 0 0 0 0 0 0 0 0 0 0 0 0 0 0 127 0"/>
<feOffset dy="4"/>
<feGaussianBlur stdDeviation="2"/>
<feColorMatrix type="matrix" values="0 0 0 0 0 0 0 0 0 0 0 0 0 0 0 0 0 0 0.25 0"/>
<feBlend mode="normal" in2="BackgroundImageFix" result="effect1_dropShadow"/>
<feBlend mode="normal" in="SourceGraphic" in2="effect1_dropShadow" result="shape"/>
</filter>
<clipPath id="clip0">
<rect width="252" height="32" fill="white" transform="translate(5 26)"/>
</clipPath>
</defs>
</svg>
