<svg width="419" height="87" viewBox="0 0 419 87" fill="none" xmlns="http://www.w3.org/2000/svg">
<path d="M133.746 43V15.9844H143.005C146.06 15.9844 148.386 16.5967 149.981 17.8213C151.577 19.0459 152.375 20.8704 152.375 23.2949C152.375 24.5319 152.041 25.6452 151.373 26.6348C150.705 27.6243 149.728 28.3913 148.441 28.9355C149.901 29.3314 151.027 30.0798 151.818 31.1807C152.622 32.2692 153.024 33.5804 153.024 35.1143C153.024 37.6501 152.208 39.5983 150.575 40.959C148.955 42.3197 146.629 43 143.599 43H133.746ZM138.44 30.8096V39.252H143.654C145.126 39.252 146.277 38.887 147.105 38.1572C147.934 37.4274 148.349 36.4131 148.349 35.1143C148.349 32.3063 146.914 30.8714 144.044 30.8096H138.44ZM138.44 27.3584H143.042C144.502 27.3584 145.64 27.0306 146.456 26.375C147.285 25.707 147.699 24.7669 147.699 23.5547C147.699 22.2188 147.316 21.2539 146.549 20.6602C145.794 20.0664 144.613 19.7695 143.005 19.7695H138.44V27.3584ZM156.438 32.7764C156.438 30.8096 156.828 29.0407 157.607 27.4697C158.387 25.8864 159.481 24.6742 160.892 23.833C162.302 22.9795 163.922 22.5527 165.753 22.5527C168.462 22.5527 170.658 23.4248 172.34 25.1689C174.035 26.9131 174.95 29.2262 175.086 32.1084L175.104 33.166C175.104 35.1452 174.721 36.9141 173.954 38.4727C173.2 40.0312 172.111 41.2373 170.688 42.0908C169.278 42.9443 167.646 43.3711 165.79 43.3711C162.957 43.3711 160.688 42.431 158.98 40.5508C157.286 38.6582 156.438 36.141 156.438 32.999V32.7764ZM160.947 33.166C160.947 35.2318 161.374 36.8522 162.228 38.0273C163.081 39.1901 164.269 39.7715 165.79 39.7715C167.312 39.7715 168.493 39.1777 169.334 37.9902C170.188 36.8027 170.614 35.0648 170.614 32.7764C170.614 30.7477 170.175 29.1396 169.297 27.9521C168.431 26.7646 167.25 26.1709 165.753 26.1709C164.281 26.1709 163.112 26.7585 162.246 27.9336C161.38 29.0964 160.947 30.8405 160.947 33.166ZM177.665 39.4004C178.914 38.0026 179.749 36.679 180.17 35.4297C180.603 34.168 180.863 32.5599 180.949 30.6055L181.209 22.9238H195.144V39.4004H197.927V48.9746H193.437V43H180.56V48.9746H175.995L176.014 39.4004H177.665ZM182.953 39.4004H190.653V26.8018H185.588L185.458 30.6426C185.285 34.3288 184.45 37.248 182.953 39.4004ZM200.302 32.7764C200.302 30.8096 200.691 29.0407 201.471 27.4697C202.25 25.8864 203.345 24.6742 204.755 23.833C206.165 22.9795 207.785 22.5527 209.616 22.5527C212.325 22.5527 214.521 23.4248 216.203 25.1689C217.898 26.9131 218.813 29.2262 218.949 32.1084L218.968 33.166C218.968 35.1452 218.584 36.9141 217.817 38.4727C217.063 40.0312 215.974 41.2373 214.552 42.0908C213.142 42.9443 211.509 43.3711 209.653 43.3711C206.821 43.3711 204.551 42.431 202.844 40.5508C201.149 38.6582 200.302 36.141 200.302 32.999V32.7764ZM204.811 33.166C204.811 35.2318 205.237 36.8522 206.091 38.0273C206.944 39.1901 208.132 39.7715 209.653 39.7715C211.175 39.7715 212.356 39.1777 213.197 37.9902C214.051 36.8027 214.478 35.0648 214.478 32.7764C214.478 30.7477 214.038 29.1396 213.16 27.9521C212.294 26.7646 211.113 26.1709 209.616 26.1709C208.144 26.1709 206.975 26.7585 206.109 27.9336C205.243 29.0964 204.811 30.8405 204.811 33.166ZM231.028 39.7715C232.154 39.7715 233.088 39.4437 233.83 38.7881C234.572 38.1325 234.968 37.3223 235.018 36.3574H239.267C239.217 37.6068 238.827 38.7757 238.098 39.8643C237.368 40.9404 236.378 41.7939 235.129 42.4248C233.88 43.0557 232.531 43.3711 231.084 43.3711C228.276 43.3711 226.049 42.4619 224.404 40.6436C222.759 38.8252 221.937 36.3141 221.937 33.1104V32.6465C221.937 29.5911 222.753 27.1481 224.386 25.3174C226.019 23.4743 228.245 22.5527 231.065 22.5527C233.453 22.5527 235.395 23.2516 236.892 24.6494C238.401 26.0348 239.192 27.8594 239.267 30.123H235.018C234.968 28.9727 234.572 28.0264 233.83 27.2842C233.1 26.542 232.166 26.1709 231.028 26.1709C229.569 26.1709 228.443 26.7028 227.651 27.7666C226.86 28.818 226.458 30.4199 226.445 32.5723V33.2959C226.445 35.473 226.835 37.0996 227.614 38.1758C228.406 39.2396 229.544 39.7715 231.028 39.7715ZM259.677 43H255.168V34.8916H247.356V43H242.848V22.9238H247.356V31.292H255.168V22.9238H259.677V43ZM276.487 43C276.289 42.6165 276.116 41.9919 275.968 41.126C274.533 42.6227 272.776 43.3711 270.698 43.3711C268.682 43.3711 267.037 42.7959 265.763 41.6455C264.489 40.4951 263.852 39.0726 263.852 37.3779C263.852 35.238 264.643 33.599 266.227 32.4609C267.822 31.3105 270.098 30.7354 273.055 30.7354H275.819V29.418C275.819 28.3789 275.529 27.5501 274.947 26.9316C274.366 26.3008 273.481 25.9854 272.294 25.9854C271.267 25.9854 270.426 26.2451 269.771 26.7646C269.115 27.2718 268.787 27.9212 268.787 28.7129H264.278C264.278 27.612 264.643 26.5853 265.373 25.6328C266.103 24.668 267.092 23.9134 268.342 23.3691C269.604 22.8249 271.007 22.5527 272.554 22.5527C274.904 22.5527 276.778 23.1465 278.176 24.334C279.574 25.5091 280.291 27.1667 280.328 29.3066V38.3613C280.328 40.1673 280.582 41.6084 281.089 42.6846V43H276.487ZM271.533 39.7529C272.424 39.7529 273.259 39.5365 274.038 39.1035C274.83 38.6706 275.424 38.0892 275.819 37.3594V33.5742H273.389C271.719 33.5742 270.463 33.8649 269.622 34.4463C268.781 35.0277 268.36 35.8503 268.36 36.9141C268.36 37.7799 268.645 38.4727 269.214 38.9922C269.795 39.4993 270.568 39.7529 271.533 39.7529ZM294.504 24.0371C297.027 24.0371 299.05 24.8844 300.571 26.5791C302.093 28.2614 302.854 30.5498 302.854 33.4443V33.667C302.854 36.5615 302.025 38.9056 300.367 40.6992C298.722 42.4928 296.483 43.3896 293.65 43.3896C290.892 43.3896 288.665 42.4743 286.971 40.6436C285.276 38.8128 284.429 36.3141 284.429 33.1475V31.8486C284.429 27.5192 285.196 24.0928 286.729 21.5693C288.263 19.0459 290.552 17.4688 293.595 16.8379C295.302 16.4915 296.403 16.1266 296.897 15.7432C297.405 15.3473 297.658 14.8154 297.658 14.1475H301.295C301.295 15.3968 301.091 16.4111 300.683 17.1904C300.274 17.9697 299.65 18.6068 298.809 19.1016C297.967 19.584 296.52 20.0417 294.467 20.4746C292.587 20.8704 291.152 21.5755 290.162 22.5898C289.185 23.6042 288.529 25.0081 288.195 26.8018C289.989 24.9587 292.092 24.0371 294.504 24.0371ZM293.613 27.6553C292.154 27.6553 291.009 28.1501 290.181 29.1396C289.352 30.1169 288.938 31.626 288.938 33.667C288.938 35.5967 289.346 37.0996 290.162 38.1758C290.979 39.252 292.141 39.79 293.65 39.79C295.147 39.79 296.304 39.252 297.12 38.1758C297.949 37.0872 298.363 35.4544 298.363 33.2773C298.363 31.5456 297.949 30.1787 297.12 29.1768C296.304 28.1624 295.135 27.6553 293.613 27.6553ZM323.765 34.9287H321.371V43H316.862V34.9287H314.487L309.867 43H304.338L310.999 32.5537L304.69 22.9238H310.201L314.747 30.8096H316.862V22.9238H321.371V30.8096H323.505L328.069 22.9238H333.58L327.29 32.498L333.988 43H328.385L323.765 34.9287ZM345.251 43.3711C342.394 43.3711 340.074 42.4743 338.293 40.6807C336.524 38.8747 335.64 36.4749 335.64 33.4814V32.9248C335.64 30.9209 336.023 29.1335 336.79 27.5625C337.569 25.9792 338.658 24.7484 340.056 23.8701C341.453 22.9919 343.012 22.5527 344.731 22.5527C347.465 22.5527 349.574 23.4248 351.059 25.1689C352.555 26.9131 353.304 29.3809 353.304 32.5723V34.3906H340.186C340.322 36.0482 340.872 37.3594 341.837 38.3242C342.814 39.2891 344.039 39.7715 345.511 39.7715C347.576 39.7715 349.259 38.9365 350.558 37.2666L352.988 39.5859C352.184 40.7858 351.108 41.7197 349.76 42.3877C348.424 43.0433 346.921 43.3711 345.251 43.3711ZM344.713 26.1709C343.476 26.1709 342.474 26.6038 341.707 27.4697C340.952 28.3356 340.47 29.5417 340.26 31.0879H348.851V30.7539C348.752 29.2448 348.35 28.1068 347.645 27.3398C346.939 26.5605 345.962 26.1709 344.713 26.1709ZM373.825 43H369.316V34.8916H361.505V43H356.996V22.9238H361.505V31.292H369.316V22.9238H373.825V43ZM391.174 22.9238H395.664V43H391.174V29.6035L383.307 43H378.816V22.9238H383.307V36.3203L391.174 22.9238ZM409.302 43.3711C406.444 43.3711 404.125 42.4743 402.344 40.6807C400.575 38.8747 399.69 36.4749 399.69 33.4814V32.9248C399.69 30.9209 400.074 29.1335 400.841 27.5625C401.62 25.9792 402.709 24.7484 404.106 23.8701C405.504 22.9919 407.063 22.5527 408.782 22.5527C411.516 22.5527 413.625 23.4248 415.109 25.1689C416.606 26.9131 417.354 29.3809 417.354 32.5723V34.3906H404.236C404.372 36.0482 404.923 37.3594 405.888 38.3242C406.865 39.2891 408.09 39.7715 409.562 39.7715C411.627 39.7715 413.31 38.9365 414.608 37.2666L417.039 39.5859C416.235 40.7858 415.159 41.7197 413.811 42.3877C412.475 43.0433 410.972 43.3711 409.302 43.3711ZM408.764 26.1709C407.527 26.1709 406.525 26.6038 405.758 27.4697C405.003 28.3356 404.521 29.5417 404.311 31.0879H412.901V30.7539C412.802 29.2448 412.4 28.1068 411.695 27.3398C410.99 26.5605 410.013 26.1709 408.764 26.1709ZM145.754 67.4453C145.582 69.2656 144.91 70.6875 143.738 71.7109C142.566 72.7266 141.008 73.2344 139.062 73.2344C137.703 73.2344 136.504 72.9141 135.465 72.2734C134.434 71.625 133.637 70.707 133.074 69.5195C132.512 68.332 132.219 66.9531 132.195 65.3828V63.7891C132.195 62.1797 132.48 60.7617 133.051 59.5352C133.621 58.3086 134.438 57.3633 135.5 56.6992C136.57 56.0352 137.805 55.7031 139.203 55.7031C141.086 55.7031 142.602 56.2148 143.75 57.2383C144.898 58.2617 145.566 59.707 145.754 61.5742H142.801C142.66 60.3477 142.301 59.4648 141.723 58.9258C141.152 58.3789 140.312 58.1055 139.203 58.1055C137.914 58.1055 136.922 58.5781 136.227 59.5234C135.539 60.4609 135.188 61.8398 135.172 63.6602V65.1719C135.172 67.0156 135.5 68.4219 136.156 69.3906C136.82 70.3594 137.789 70.8438 139.062 70.8438C140.227 70.8438 141.102 70.582 141.688 70.0586C142.273 69.5352 142.645 68.6641 142.801 67.4453H145.754ZM162.031 64.9141C162.031 66.5859 161.742 68.0547 161.164 69.3203C160.586 70.5781 159.758 71.5469 158.68 72.2266C157.609 72.8984 156.375 73.2344 154.977 73.2344C153.594 73.2344 152.359 72.8984 151.273 72.2266C150.195 71.5469 149.359 70.582 148.766 69.332C148.18 68.082 147.883 66.6406 147.875 65.0078V64.0469C147.875 62.3828 148.168 60.9141 148.754 59.6406C149.348 58.3672 150.18 57.3945 151.25 56.7227C152.328 56.043 153.562 55.7031 154.953 55.7031C156.344 55.7031 157.574 56.0391 158.645 56.7109C159.723 57.375 160.555 58.3359 161.141 59.5938C161.727 60.8438 162.023 62.3008 162.031 63.9648V64.9141ZM159.066 64.0234C159.066 62.1328 158.707 60.6836 157.988 59.6758C157.277 58.668 156.266 58.1641 154.953 58.1641C153.672 58.1641 152.668 58.668 151.941 59.6758C151.223 60.6758 150.855 62.0938 150.84 63.9297V64.9141C150.84 66.7891 151.203 68.2383 151.93 69.2617C152.664 70.2852 153.68 70.7969 154.977 70.7969C156.289 70.7969 157.297 70.2969 158 69.2969C158.711 68.2969 159.066 66.8359 159.066 64.9141V64.0234ZM178.039 55.9375V73H175.086V66.2852C173.82 66.6055 172.5 66.7656 171.125 66.7656C169.086 66.7656 167.543 66.3164 166.496 65.418C165.449 64.5195 164.922 63.1641 164.914 61.3516V55.9375H167.867V61.375C167.875 62.4609 168.125 63.2344 168.617 63.6953C169.109 64.1562 169.945 64.3867 171.125 64.3867C172.484 64.3867 173.805 64.2227 175.086 63.8945V55.9375H178.039ZM192.055 55.9375H195.02V73H192.055V60.8477L184.566 73H181.602V55.9375H184.566V68.1016L192.055 55.9375Z" fill="#2B5EAA"/>
<path d="M81.7465 12.8L41.053 12.8V8.8L81.7465 8.8V12.8Z" fill="#2B5EAA"/>
<path d="M81.7465 22.4L41.053 22.4V18.4L81.7465 18.4V22.4Z" fill="#2B5EAA"/>
<path d="M54.6843 32.4V22.4H58.6936V32.4H54.6843Z" fill="#2B5EAA"/>
<path d="M49.8733 34.2C49.8733 33.2059 50.681 32.4 51.6774 32.4H71.3226C72.319 32.4 73.1267 33.2059 73.1267 34.2V36.4H49.8733V34.2Z" fill="#2B5EAA"/>
<path d="M64.3065 32.4V22.4H68.3157V32.4H64.3065Z" fill="#2B5EAA"/>
<path d="M49.8733 39.6V35.6H53.8825V39.6H49.8733Z" fill="#2B5EAA"/>
<path d="M69.1175 39.6V35.6H73.1267V39.6H69.1175Z" fill="#2B5EAA"/>
<path d="M55.6866 4V1.6C55.6866 0.716345 56.4046 -1.05373e-08 57.2903 0L61.2995 4.76997e-08V4H55.6866Z" fill="#2B5EAA"/>
<path d="M67.3134 4V1.6C67.3134 0.716345 66.5954 -1.05373e-08 65.7097 0L61.2995 4.76997e-08V4H67.3134Z" fill="#2B5EAA"/>
<path d="M56.4885 8.8H52.0783L55.6867 1.5L60.0968 1.5L56.4885 8.8Z" fill="#2B5EAA"/>
<path d="M66.5115 8.9H70.9217L67.3134 1.6L62.9032 1.6L66.5115 8.9Z" fill="#2B5EAA"/>
<path d="M48.9981 61.2402C48.9981 68.8405 54.9119 74.0402 61.6272 74.0402C64.0327 74.0402 63.9325 78.0402 61.6272 78.0402C50.602 78.0402 44.9889 69.0406 44.9889 61.2402C44.989 59.0405 48.9982 59.0404 48.9981 61.2402Z" fill="#2B5EAA"/>
<path d="M19.9044 85C18.8526 85 18 84.1494 18 83.1L18 40.3C18 39.2507 18.8526 38.4 19.9044 38.4C20.9561 38.4 21.8088 39.2507 21.8088 40.3L21.8088 83.1C21.8088 84.1494 20.9561 85 19.9044 85Z" fill="#2B5EAA"/>
<path d="M20.0046 85C18.8975 85 18 84.1046 18 83L18 40.4C18 39.2954 18.8975 38.4 20.0046 38.4C21.1117 38.4 22.0092 39.2954 22.0092 40.4L22.0092 83C22.0092 84.1046 21.1117 85 20.0046 85Z" fill="#2B5EAA"/>
<path d="M29.6267 85C28.5196 85 27.6221 84.1046 27.6221 83L27.6221 40.4C27.6221 39.2954 28.5196 38.4 29.6267 38.4C30.7338 38.4 31.6313 39.2954 31.6313 40.4L31.6313 83C31.6313 84.1046 30.7338 85 29.6267 85Z" fill="#2B5EAA"/>
<path d="M29.6267 42.4H20.0046L20.0046 38.4H29.6267L29.6267 42.4Z" fill="#2B5EAA"/>
<path d="M29.6267 85H20.0046L20.0046 81H29.6267L29.6267 85Z" fill="#2B5EAA"/>
<path d="M93.273 85C92.2213 85 91.3687 84.1494 91.3687 83.1V40.3C91.3687 39.2507 92.2213 38.4 93.273 38.4C94.3248 38.4 95.1774 39.2507 95.1774 40.3L95.1774 83.1C95.1774 84.1494 94.3248 85 93.273 85Z" fill="#2B5EAA"/>
<path d="M93.3733 85C92.2662 85 91.3687 84.1046 91.3687 83V40.4C91.3687 39.2954 92.2662 38.4 93.3733 38.4C94.4804 38.4 95.3779 39.2954 95.3779 40.4L95.3779 83C95.3779 84.1046 94.4804 85 93.3733 85Z" fill="#2B5EAA"/>
<path d="M102.995 85C101.888 85 100.991 84.1046 100.991 83V40.4C100.991 39.2954 101.888 38.4 102.995 38.4C104.103 38.4 105 39.2954 105 40.4V83C105 84.1046 104.103 85 102.995 85Z" fill="#2B5EAA"/>
<path d="M102.995 42.4H93.3733V38.4H102.995V42.4Z" fill="#2B5EAA"/>
<path d="M102.995 85H93.3733V81H102.995V85Z" fill="#2B5EAA"/>
<path d="M31.6313 45.2H42.8571V49.4H31.6313V45.2Z" fill="#2B5EAA"/>
<path d="M80.1429 45.2H91.3687V49.4H80.1429V45.2Z" fill="#2B5EAA"/>
<path d="M31.6313 73.8H42.8571V78H31.6313V73.8Z" fill="#2B5EAA"/>
<path d="M80.5438 73.8H91.3687V78H80.5438V73.8Z" fill="#2B5EAA"/>
<path d="M40.1456 75.2582C42.4407 78.8831 45.6248 81.8639 49.3967 83.9184C53.1686 85.9729 57.4035 87.0333 61.7008 86.9992C65.9981 86.9651 70.2156 85.8377 73.9543 83.7236C77.693 81.6095 80.8292 78.5786 83.0662 74.9178L81.8723 74.1915C80.5488 73.3866 78.8355 73.819 77.8599 75.0207C76.2067 77.0572 74.1805 78.7736 71.881 80.0739C68.7647 81.8361 65.2493 82.7758 61.6674 82.8042C58.0855 82.8326 54.5555 81.9488 51.4116 80.2363C48.8556 78.8441 46.6235 76.9417 44.8501 74.6554C44.1725 73.7818 42.9417 73.496 42.0057 74.0859L40.1456 75.2582Z" fill="#2B5EAA"/>
<path d="M40.1821 47.9149C43.3973 43.0013 48.2185 39.3499 53.8265 37.5813L53.7948 40.8944C53.7873 41.6732 53.2753 42.351 52.5462 42.6292C49.2165 43.9 46.9406 45.7681 44.8441 48.5634C44.1808 49.4478 42.9466 49.7155 42.0196 49.1117L40.1821 47.9149Z" fill="#2B5EAA"/>
<path d="M82.7618 47.9337C79.5467 43.0201 74.7255 39.3687 69.1175 37.6L69.1492 40.9132C69.1567 41.6919 69.6687 42.3697 70.3978 42.648C73.7275 43.9188 76.0034 45.7869 78.0999 48.5822C78.7632 49.4666 79.9974 49.7342 80.9244 49.1304L82.7618 47.9337Z" fill="#2B5EAA"/>
<path d="M41.053 8.8C39.2454 8.8 37.5118 9.51643 36.2336 10.7917C34.9554 12.0669 34.2373 13.7965 34.2373 15.6C34.2373 17.4035 34.9554 19.1331 36.2336 20.4083C37.5118 21.6836 39.2454 22.4 41.053 22.4V18.3609C40.3191 18.3609 39.6152 18.07 39.0963 17.5522C38.5773 17.0345 38.2857 16.3322 38.2857 15.6C38.2857 14.8678 38.5773 14.1655 39.0963 13.6478C39.6152 13.13 40.3191 12.8391 41.053 12.8391V8.8Z" fill="#2B5EAA"/>
<path d="M81.7465 8.8C83.5542 8.8 85.2878 9.51643 86.5659 10.7917C87.8441 12.0669 88.5622 13.7965 88.5622 15.6C88.5622 17.4035 87.8441 19.1331 86.5659 20.4083C85.2878 21.6836 83.5542 22.4 81.7465 22.4V18.3609C82.4805 18.3609 83.1843 18.07 83.7033 17.5522C84.2222 17.0345 84.5138 16.3322 84.5138 15.6C84.5138 14.8678 84.2222 14.1655 83.7033 13.6478C83.1843 13.13 82.4805 12.8391 81.7465 12.8391V8.8Z" fill="#2B5EAA"/>
</svg>
