<svg width="261" height="84" viewBox="0 0 261 84" fill="none" xmlns="http://www.w3.org/2000/svg">
<g clip-path="url(#clip0)">
<path d="M229.107 26.9719H225.813V39.0031H216.145V45.0187H225.813V57.1931H233.046V30.6959C233.046 30.6242 233.046 26.9719 229.107 26.9719Z" fill="#000C2C"/>
<path d="M210.845 26.9719H207.838V57.1215H215.071V30.9823C215.071 26.9719 210.845 26.9719 210.845 26.9719Z" fill="#000C2C"/>
<path d="M128.203 26.9719C125.338 26.9719 124.264 29.9797 124.264 29.9797L114.023 56.4053L113.737 57.1931H120.97L128.417 37.4992L132.141 47.2387H125.983L123.691 53.1827H134.433L135.865 57.1215H143.17L131.568 26.9719H128.203Z" fill="#000C2C"/>
<path d="M115.455 49.1726C113.808 50.4616 111.875 51.1777 109.726 51.1777C104.713 51.1777 100.631 47.0957 100.631 42.0828C100.631 37.0698 104.713 32.9878 109.726 32.9878C111.946 32.9878 112.877 33.5607 112.877 33.5607C114.453 34.4917 116.673 34.1336 117.819 32.7729L119.752 30.4813C116.959 28.0464 113.378 26.7573 109.726 26.7573C101.204 26.7573 94.3291 33.6323 94.3291 42.1544C94.3291 50.6764 101.204 57.5514 109.726 57.5514C110.586 57.5514 111.445 57.4798 112.304 57.3366C112.376 57.1217 112.519 56.692 112.662 56.4772C112.734 56.2624 113.378 54.7585 114.023 53.0397L115.455 49.1726Z" fill="#000C2C"/>
<path d="M194.875 26.9719H179.12C176.184 26.9719 175.11 29.9797 175.11 29.9797L169.094 41.7961L163.15 29.9797C163.15 29.9797 161.718 26.9719 158.424 26.9719H133.001L135.292 32.9159H144.674V57.1215H151.835V32.9159H156.991L165.084 48.9575C165.657 49.8168 165.227 51.1775 163.007 51.1775H158.997V57.1215H163.007C165.084 57.1215 166.588 57.2647 168.02 56.4053C169.524 55.6892 170.67 53.7556 172.174 50.891L181.269 33.274V57.1215H188.502V32.9159H194.374C197.31 32.9159 199.673 35.2792 199.673 38.2153C199.673 41.1515 197.31 43.5148 194.374 43.5148H189.648V49.4588H194.947C201.177 49.4588 206.19 44.3742 206.19 38.2153C206.119 31.9849 201.106 26.9719 194.875 26.9719Z" fill="#000C2C"/>
<path d="M78.574 26.4707C76.0675 26.4707 74.0623 27.0436 74.0623 27.7598L73.9907 37.4993C73.9907 38.2154 75.9959 38.7883 78.5024 38.7883C81.0089 38.7883 83.0141 38.2154 83.0141 37.4993L83.0857 27.8314C83.0857 27.0436 81.0089 26.4707 78.574 26.4707ZM81.8682 28.3327V33.847C81.8682 34.1334 81.725 34.4199 81.4386 34.4915C81.2237 34.5631 81.0805 34.3483 81.0805 34.0618V32.1282C81.0805 31.8418 80.9373 31.6985 80.6508 31.7702C80.436 31.8418 80.2927 32.1282 80.2927 32.4147V32.4863C80.2927 32.7727 80.1495 33.0592 79.863 33.1308C79.6482 33.2024 79.4334 32.9876 79.4334 32.7011V29.192L78.9321 28.9056H78.4308C76.2823 28.9056 74.492 28.4759 74.492 27.8314C74.492 27.2585 76.2823 26.7572 78.4308 26.7572C80.5792 26.7572 82.3695 27.1868 82.3695 27.8314C82.5128 27.9746 82.2979 28.1894 81.8682 28.3327Z" fill="#ED1C24"/>
<path d="M42.6237 33.2024V25.1816C42.6237 25.1816 42.5521 24.8236 42.0508 24.7519C41.5495 24.6087 34.4597 22.4603 34.4597 22.4603C34.4597 22.4603 34.3165 22.3887 33.9584 22.5319C33.6003 22.6751 27.4415 24.8236 27.4415 24.8236C27.4415 24.8236 27.155 24.8952 27.155 25.3965C27.155 25.8262 27.0118 33.274 27.0118 33.274L24.2189 34.9211L24.1472 38.0006L25.2931 38.3586L27.6563 36.9263L29.2319 37.4276V39.5761L30.3777 39.9341L32.6693 38.4302L34.7461 38.9315V41.08L35.892 41.438L44.2708 36.7831L44.3424 33.6321L42.6237 33.2024ZM27.8712 24.8952C28.3009 24.7519 33.9584 22.7467 33.9584 22.7467C33.9584 22.7467 34.1732 22.6035 34.3881 22.6751C34.6029 22.7467 41.4779 24.7519 41.4779 24.7519C41.4779 24.7519 41.6211 24.8236 41.4063 24.8952C41.1914 25.0384 36.3217 27.1868 36.3217 27.1868C36.3217 27.1868 36.0352 27.33 35.7487 27.2584C35.4623 27.1868 27.7996 25.0384 27.7996 25.0384C27.7996 25.0384 27.5131 25.0384 27.8712 24.8952ZM27.4415 25.7545C27.4415 25.5397 27.6563 25.5397 27.6563 25.5397L35.892 27.903C35.892 27.903 36.25 28.0462 36.25 28.1894C36.25 28.4043 36.1068 28.4043 36.1068 28.4043L27.4415 25.8978V25.7545ZM27.4415 27.0436C27.4415 26.8288 27.6563 26.8287 27.6563 26.8287L35.892 29.192C35.892 29.192 36.25 29.3352 36.25 29.5501C36.25 29.7649 36.1068 29.7649 36.1068 29.7649L27.4415 27.1868V27.0436ZM27.4415 28.3326C27.4415 28.0462 27.6563 28.1178 27.6563 28.1178L35.892 30.4811C35.892 30.4811 36.25 30.6243 36.25 30.8391C36.25 31.054 36.1068 31.054 36.1068 31.054L27.4415 28.4759V28.3326ZM27.3699 29.6217C27.3699 29.3352 27.5847 29.4069 27.5847 29.4069L35.892 31.7701C35.892 31.7701 36.25 31.9134 36.25 32.1282C36.25 32.343 36.1068 32.343 36.1068 32.343L27.3699 29.7649V29.6217ZM27.3699 30.9108C27.3699 30.6959 27.5847 30.6959 27.5847 30.6959L35.8204 33.0592C35.8204 33.0592 36.1784 33.2024 36.1784 33.4172C36.1784 33.6321 36.0352 33.6321 36.0352 33.6321L27.3699 31.054V30.9108ZM27.3699 32.1998C27.3699 31.9134 27.5847 31.985 27.5847 31.985L35.8204 34.3482C35.8204 34.3482 36.1784 34.4915 36.1784 34.7063C36.1784 34.9211 36.0352 34.9211 36.0352 34.9211L27.3699 32.343V32.1998ZM27.3699 33.3456C27.3699 33.0592 27.5847 33.1308 27.5847 33.1308L35.8204 35.4941C35.8204 35.4941 36.1784 35.6373 36.1784 35.7805C36.1784 35.9954 36.0352 35.9954 36.0352 35.9954L27.3699 33.4889V33.3456ZM26.0092 37.2844V36.2818L27.0834 36.6399L26.0092 37.2844ZM31.0938 38.7883V37.7857L32.0964 38.1438L31.0938 38.7883ZM36.7513 40.4354V38.7883L38.7565 37.6425L38.8281 38.3586L39.7591 38.5735L36.7513 40.4354ZM40.7617 38.1438V36.5683L42.3372 35.7089V36.5683H43.3398L40.7617 38.1438ZM35.892 38.0006L25.1498 34.8495L26.8686 33.8469L36.1784 36.5683L42.194 33.3456L43.7695 33.7037L35.892 38.0006Z" fill="#ED1C24"/>
<path d="M35.0073 19.6008L34.98 17.4526L35.5529 17.4454L35.5801 19.5936L35.0073 19.6008Z" fill="#000C2C"/>
<path d="M34.3648 19.5483L34.3375 17.4001L34.8388 17.3938L34.8661 19.542L34.3648 19.5483Z" fill="#000C2C"/>
<path d="M33.8868 19.2376L34.1732 19.5957V17.4473L33.8152 17.8053L33.8868 19.2376Z" fill="#000C2C"/>
<path d="M39.974 21.2427C41.4779 21.2427 42.6953 19.9537 42.6953 18.3782C42.6953 16.8026 41.4063 15.5852 39.9024 15.5852C39.6159 15.5852 39.2578 15.6568 38.9714 15.7284H38.8998C38.8282 15.7284 38.8282 15.7284 38.7565 15.8C38.3269 16.0149 37.3959 16.373 36.6797 16.731C35.7488 17.1607 35.8204 17.662 35.8204 18.3065V18.4498C35.8204 19.0943 35.8204 19.6672 36.7513 20.0253C37.4675 20.3117 38.3985 20.7414 38.8282 20.8846C38.8998 20.8846 38.8998 20.9563 38.9714 20.9563H39.043C39.3295 21.2427 39.6875 21.2427 39.974 21.2427Z" fill="#000C2C"/>
<path d="M62.3176 48.4563H62.4608C62.5324 48.4563 62.5324 48.4563 62.6041 48.3847C62.6757 48.3847 62.6757 48.3847 62.7473 48.313C62.8189 48.313 62.8189 48.2414 62.8905 48.2414C62.9621 48.2414 62.9621 48.1698 63.0337 48.1698C63.1054 48.0982 63.177 48.0266 63.2486 48.0266L63.4634 47.8118C63.535 47.7401 63.6067 47.6685 63.6067 47.5969C63.8215 47.2388 63.9647 46.8808 63.9647 46.4511C63.9647 45.2336 62.9621 44.231 61.7447 44.231H53.8671H53.7955H53.2226C52.6497 44.1594 51.8619 44.5175 51.7903 44.6607C51.6471 44.7323 51.5755 44.8756 51.5755 45.0188V45.2336H51.5039V45.0188C51.5039 45.0188 51.5039 44.8756 51.4322 44.8756H51.0742C50.4297 44.8756 49.6419 44.9472 48.9258 45.0904C48.6393 45.162 48.4245 45.3053 48.4245 45.3769V45.5917C48.3528 45.5917 48.138 45.6633 48.0664 45.7349C47.9948 45.7349 47.9948 45.8066 47.9948 45.8066V45.8782C47.9232 45.8782 47.7799 45.9498 47.7083 45.9498V46.3079C47.7799 46.3795 47.8515 46.3795 47.9948 46.3795V46.4511C47.9948 46.5227 47.9948 46.5227 48.0664 46.5227C48.138 46.5227 48.3528 46.6659 48.4245 46.7375V47.024C48.4245 47.1672 48.6393 47.2388 48.9258 47.3104C49.6419 47.5253 50.4297 47.5969 51.0742 47.5969H51.3606C51.5039 47.5969 51.5039 47.4537 51.5039 47.4537V47.3104H51.5755V47.5969C51.5755 48.4563 53.7955 48.5279 53.7955 48.5279C53.7955 48.8143 54.082 48.8144 54.082 48.8144H54.5833C55.8007 49.4589 55.013 50.6047 55.5143 50.6763C55.7291 50.6763 55.9439 50.7479 56.0872 50.7479C56.0872 50.8195 56.1588 50.8195 56.1588 50.8195C56.8033 50.9628 57.0182 51.3208 57.1614 51.8938C57.1614 52.7531 57.5911 53.8273 57.5911 53.8273C57.5911 53.899 57.5911 54.0422 57.6627 54.1854C56.3736 54.257 56.1588 54.5435 56.1588 54.8299L56.3736 57.408C56.3736 57.7661 56.7317 57.9093 58.4504 57.9093C60.1692 57.9093 62.3176 57.6229 62.3176 57.2648L62.4608 54.7583C62.4608 54.6151 62.246 54.4719 61.8879 54.4003L61.8163 53.8273L61.5298 52.3234L60.9569 49.6021C60.6705 48.4563 61.315 48.7427 61.8163 48.6711C61.8879 48.6711 61.9595 48.5995 61.9595 48.5995C62.1028 48.5279 62.3176 48.4563 62.3176 48.4563Z" fill="#ED1C24"/>
<path d="M51.4322 73.2348C51.4322 73.2348 61.1002 74.6671 63.177 70.4419C64.1796 68.4367 64.3944 66.8611 65.5402 66.2882C65.8267 66.145 66.0415 66.0734 66.2564 66.0734C66.6144 66.0734 66.9725 65.7153 66.9725 65.214C66.9725 64.7843 66.328 64.4263 65.6118 64.4263L48.6393 64.4979C47.9232 64.4979 47.2786 64.856 47.2786 65.2856C47.2786 65.7153 47.3502 66.0734 47.4935 66.0734C47.5651 66.0734 47.9232 66.6463 48.0664 67.6489C48.2096 68.6515 48.7109 72.0174 51.4322 73.2348Z" fill="#000C2C"/>
<path d="M39.1862 54.9731C39.1862 55.188 39.3294 55.4028 39.5443 55.4028H50.1432C50.358 55.4028 50.5013 55.188 50.5013 54.9731V50.4614C50.5013 50.2466 50.358 50.0317 50.1432 50.0317H39.5443C39.3294 50.0317 39.1862 50.2466 39.1862 50.4614V54.9731Z" fill="#000C2C"/>
<path d="M44.4857 61.2036H44.9153V60.1294C44.9153 59.4849 44.7005 59.0552 44.2708 58.8404C43.9127 58.6255 39.9024 56.4771 39.2578 56.1907C38.6849 55.9042 38.5417 55.6894 38.5417 55.4029L38.7565 53.5409C38.7565 53.2545 38.8998 52.968 39.1146 52.968H39.4727V52.5383H39.1146C38.6133 52.5383 38.3268 53.0396 38.3268 53.5409L38.112 55.4029C38.112 55.9758 38.4701 56.2623 39.043 56.5487C39.6159 56.8352 43.6263 58.912 43.9844 59.1984C44.2708 59.3417 44.414 59.6997 44.414 60.1294L44.4857 61.2036Z" fill="#000C2C"/>
<path d="M43.6263 61.4184C43.6263 61.2035 43.7695 61.0603 43.9844 61.0603H45.4883C45.7031 61.0603 45.8463 61.2035 45.8463 61.4184L46.1328 71.516C46.1328 71.7308 45.9896 71.874 45.7747 71.874H43.6979C43.4831 71.874 43.3398 71.7308 43.3398 71.516L43.6263 61.4184Z" fill="#000C2C"/>
<path d="M33.3139 58.9119C33.0274 58.9836 32.8126 58.9119 32.5261 58.6255L31.8816 57.981L31.6667 58.2674L32.3113 58.8403C32.6693 59.1984 33.099 59.27 33.4571 59.1984" fill="#ED1C24"/>
<path d="M32.168 57.3365C32.3113 57.4081 32.3113 57.6229 32.168 57.6945L31.3803 58.5539C31.3087 58.6971 31.0938 58.6971 30.9506 58.5539L25.6512 54.1855C25.5079 54.0422 25.5079 53.899 25.6512 53.7558L26.7254 52.5383C26.797 52.3951 27.0118 52.3951 27.0834 52.5383L32.168 57.3365Z" fill="#ED1C24"/>
<path d="M33.099 64.7127C30.879 62.2778 31.7383 60.4874 33.4571 58.9119C35.1758 57.3364 37.0378 56.6203 39.2578 58.9835C41.4779 61.4184 42.194 66.9327 41.4779 67.5772C40.7617 68.2934 35.2474 67.1475 33.099 64.7127Z" fill="#ED1C24"/>
<path d="M36.6081 51.3922L34.1016 49.96L31.5951 51.3922V54.2568L34.1016 55.6891L36.6081 54.2568V51.3922ZM33.5287 53.8271C32.9558 53.4691 32.8126 52.7529 33.099 52.2516C33.3855 51.6787 34.1016 51.5355 34.6745 51.8219C35.2474 52.18 35.3907 52.8961 35.1042 53.3974C34.8178 53.9703 34.1016 54.1852 33.5287 53.8271Z" fill="#000C2C"/>
<path d="M28.086 42.2259C28.4441 42.3692 28.3725 42.584 28.3725 42.584L28.7306 45.735L27.2983 48.1699C27.2983 48.1699 27.1551 48.4564 27.0834 48.4564C27.0118 48.5996 26.7254 48.5996 26.2241 48.3847C25.3647 48.0267 24.2189 48.0983 23.9324 47.9551C23.646 47.8118 23.8608 47.5254 24.004 47.3821C24.3621 47.0241 23.9324 46.5944 23.7892 46.0931C23.646 45.5202 23.3595 44.3027 23.5027 43.8731C23.646 43.4434 23.5743 43.1569 23.2879 42.8705C23.0014 42.584 22.6434 41.7246 23.7892 42.0827C25.0066 42.3692 26.5821 41.7246 28.086 42.2259ZM25.4363 43.3001C25.5079 43.4434 25.6512 43.5866 25.5795 43.8731C25.5079 44.1595 25.3647 44.446 25.5079 44.5892C25.5795 44.7324 25.5795 45.0905 25.5079 45.2337C25.4363 45.4486 25.5079 45.5918 25.5079 45.8066C25.5795 46.1647 25.2931 46.2363 25.2931 46.5944C25.2931 46.9525 25.5079 47.1673 25.866 47.2389C26.2241 47.3105 26.3673 47.3105 26.4389 47.3821C26.5105 47.3821 26.6538 47.3821 26.6538 47.0241V43.7298C26.6538 43.3001 26.5821 43.2285 26.2241 43.1569C25.7944 43.0853 25.6512 43.0853 25.5795 43.0853C25.4363 43.0137 25.3647 43.1569 25.4363 43.3001Z" fill="#000C2C"/>
<path d="M46.7057 11.2169C46.6341 11.2169 46.5625 11.1453 46.4909 11.1453H46.3477C46.3477 11.1453 46.276 11.2169 46.2044 11.2169C46.1328 11.2169 46.1328 11.2885 46.2044 11.3601C46.276 11.6466 46.5625 12.1479 46.6341 12.5059C46.7057 12.864 46.7057 12.9356 46.4909 13.1505C46.4193 13.2221 46.3477 13.2221 46.276 13.2937C46.1328 13.3653 45.918 13.4369 45.7031 13.4369H45.4167C45.1302 13.4369 44.7721 13.4369 44.5573 13.2221C44.4141 13.0788 44.056 11.7898 43.9844 11.7182H43.9128C43.9128 11.7182 43.8412 11.7898 43.7695 11.7898L43.6979 11.8614C42.9102 13.1505 43.4115 13.8666 43.6979 14.2963C44.1992 14.8692 44.5573 15.3705 44.5573 15.3705C44.5573 15.3705 44.8438 15.8002 44.8438 16.1583C44.8438 16.5163 44.987 26.6139 44.9154 26.972C44.9154 27.3301 44.7721 27.6165 44.5573 27.903C44.4141 28.1178 44.2708 28.3327 44.056 28.6191C43.9844 28.7623 43.7695 28.9772 43.7695 29.4069C43.7695 29.6933 43.9128 29.9082 44.1276 30.1946C44.4141 30.4811 44.5573 30.6959 45.0586 30.9824L45.1302 31.054H45.2734C45.2734 31.054 45.3451 30.9824 45.4167 30.9824V30.9108C45.4167 30.6959 45.1302 30.123 44.987 29.8366V29.6217C45.0586 29.5501 45.1302 29.4069 45.2018 29.3353C45.6315 29.1204 46.276 28.9772 46.7057 29.192C46.7057 29.192 46.7773 29.192 46.7773 29.2636L46.849 29.3353C47.0638 29.9082 47.1354 30.2662 47.2786 30.4095C47.2786 30.4095 47.3503 30.4811 47.4219 30.4095C47.4935 30.4095 47.5651 30.3379 47.5651 30.3379C47.6367 30.3379 47.6367 30.2662 47.7083 30.2662C48.6393 28.9772 47.4935 28.0462 47.207 27.5449C46.9206 27.1868 46.9206 27.0436 46.849 26.6855C46.7773 26.3275 46.7057 16.3731 46.6341 16.0866C46.6341 15.8002 46.6341 15.5853 46.7773 15.3705C46.9922 14.7976 47.1354 14.7976 47.4219 14.3679C47.6367 14.0814 48.4961 13.4369 47.7083 12.2911C47.5651 11.8614 46.9922 11.3601 46.7057 11.2169Z" fill="#000C2C"/>
<path d="M57.8775 38.7884C57.8775 38.7168 57.8775 38.6452 57.9491 38.5735C57.9491 38.5019 57.9491 38.5019 57.8775 38.5019C57.9491 38.2871 57.9491 38.1439 57.9491 38.0006V37.8574C57.9491 37.8574 58.0208 37.8574 58.0208 37.7858V37.5709C58.0208 37.4993 58.0208 37.4993 57.9491 37.4993V36.8548L58.0208 36.7832V36.7116V36.4967C58.0208 36.4251 58.0208 36.4251 57.9491 36.4251V35.7806V35.5657C57.9491 35.4941 57.8775 35.4941 57.8775 35.4941C57.8775 35.2793 57.8059 35.0644 57.8059 34.8496V34.6348C57.8059 34.5631 57.7343 34.5631 57.7343 34.5631C57.7343 34.3483 57.6627 34.1335 57.6627 33.9186C57.6627 33.847 57.6627 33.7754 57.5911 33.7038C57.5911 33.6322 57.5195 33.6322 57.5195 33.6322C57.4478 33.4173 57.4478 33.2025 57.3762 32.9876C57.3762 32.916 57.3762 32.8444 57.3046 32.7728C57.3046 32.7012 57.233 32.7012 57.233 32.7012C57.1614 32.4863 57.1614 32.2715 57.0898 32.0567C57.0898 31.985 57.0182 31.9134 57.0182 31.8418C57.0182 31.7702 56.9465 31.7702 56.9465 31.7702C56.8749 31.627 56.8749 31.4837 56.8033 31.3405V31.2689C56.6601 30.696 56.4452 30.1947 56.2304 29.6218C56.1588 29.4069 56.2304 29.0489 56.3736 28.9056C56.4452 28.834 56.5169 28.834 56.5885 28.7624C56.7317 28.6192 56.8749 28.4759 56.8749 28.3327V28.2611C56.8033 28.1895 56.6601 28.1179 56.5169 28.1895C56.3736 28.1895 56.1588 28.1895 55.9439 28.2611C55.7291 28.3327 55.5859 28.3327 55.4426 28.4043V27.1869L55.1562 27.1153C55.2278 26.972 55.2278 26.8288 55.2278 26.614V26.5424C55.2278 26.3991 55.2278 26.1843 55.1562 26.0411L55.4426 25.9694V25.8978V23.821C55.4426 23.6062 55.371 23.3913 55.371 23.3913L54.082 20.4552L53.4374 20.3835L52.8645 20.4552H52.7929L51.5039 22.9617C51.5039 22.9617 51.4323 23.1049 51.4323 23.3197V25.5398H51.5039L51.7187 25.6114C51.6471 25.7546 51.6471 25.8978 51.6471 26.1127V26.1843C51.6471 26.3275 51.6471 26.5424 51.7187 26.6856L51.4323 26.7572V27.9746C51.289 27.903 51.0742 27.903 50.931 27.8314C50.7161 27.7598 50.5013 27.7598 50.358 27.7598C50.2148 27.7598 50 27.7598 50 27.8314V27.903C50 28.0463 50.1432 28.1895 50.2864 28.3327C50.358 28.4043 50.4297 28.4043 50.5013 28.4759C50.7161 28.6192 50.7877 28.9772 50.7161 29.1921C50.5013 29.765 50.358 30.2663 50.1432 30.8392V30.9108C50.0716 31.0541 50.0716 31.1973 50 31.3405C49.9284 31.3405 49.9284 31.3405 49.9284 31.4121C49.9284 31.4837 49.8567 31.5554 49.8567 31.627L49.9284 31.6986C49.8567 31.9134 49.8567 32.1283 49.7851 32.3431C49.7135 32.3431 49.7135 32.4147 49.7135 32.4147C49.7135 32.4863 49.7135 32.558 49.6419 32.6296C49.5703 32.8444 49.5703 33.0592 49.4987 33.2741C49.4271 33.2741 49.4271 33.3457 49.4271 33.3457V33.5605C49.4271 33.7754 49.3554 33.9902 49.3554 34.2051C49.2838 34.2051 49.2838 34.2767 49.2838 34.2767V34.4915C49.2838 34.7064 49.2838 34.9212 49.2122 35.1361C49.1406 35.1361 49.1406 35.2077 49.1406 35.2077V36.067C49.069 36.067 49.069 36.1387 49.069 36.1387V36.998C48.9974 36.998 48.9974 37.0696 48.9974 37.0696V37.2845L49.069 37.3561V37.4993C49.069 37.6426 49.1406 37.8574 49.1406 38.0006C49.069 38.0006 49.069 38.0722 49.069 38.0722C49.069 38.1439 49.069 38.2155 49.1406 38.2871L49.2122 38.3587C49.4987 39.2181 49.7851 40.0774 50.1432 40.8652C50.2864 41.08 50.5729 41.2233 50.8593 41.2233C51.1458 41.1516 51.5039 41.08 51.7903 41.0084C51.9336 41.0084 52.0052 40.9368 52.0768 40.8652L52.1484 40.7936C52.22 40.722 52.2916 40.5787 52.22 40.5071C52.22 40.2923 52.22 40.149 52.1484 39.9342C52.1484 39.7194 52.0768 39.2181 52.0768 39.2181C52.0768 39.0032 52.0052 38.9316 51.9336 38.9316H51.8619C51.7903 38.86 51.7187 38.7168 51.7187 38.5019C51.289 35.2077 51.7903 31.7702 53.0794 28.6192C53.151 28.4043 53.0794 28.1179 52.7929 28.0463V27.0437H53.5091V28.0463C53.2942 28.1179 53.151 28.4043 53.2226 28.6192C54.6549 31.7702 55.1562 35.1361 54.7981 38.5019C54.7981 38.7168 54.7265 38.86 54.6549 38.9316H54.5833C54.5117 38.9316 54.44 39.0748 54.44 39.2181V40.0058C54.44 40.2207 54.4401 40.3639 54.3684 40.5787C54.3684 40.722 54.3684 40.7936 54.44 40.8652C54.44 40.8652 54.44 40.9368 54.5117 40.9368C54.5833 41.0084 54.6549 41.08 54.7981 41.08C55.0846 41.1516 55.4426 41.2233 55.7291 41.2233C56.0156 41.2949 56.302 41.1516 56.3736 40.8652C56.7317 40.0774 57.0182 39.2181 57.3046 38.3587C57.8059 38.86 57.8059 38.86 57.8775 38.7884ZM53.151 22.3887V22.3171V22.2455V22.1023L53.2226 22.0307V21.8158V21.7442H53.2942C53.2942 21.7442 53.3658 21.7442 53.3658 21.6726L53.4374 21.5294H53.5807L53.6523 21.6726C53.6523 21.6726 53.6523 21.7442 53.7239 21.7442H53.7955V22.0307L53.8671 22.1023V22.4604L53.7955 22.532V22.8184H53.7239C53.7239 22.8184 53.6523 22.8184 53.6523 22.89L53.5807 23.0333H53.5091H53.4374L53.3658 22.8184C53.3658 22.8184 53.3658 22.7468 53.2942 22.7468H53.2226V22.532V22.4604L53.151 22.3887V22.532V22.3887Z" fill="#000C2C"/>
<path fill-rule="evenodd" clip-rule="evenodd" d="M68.4764 53.326V56.119C68.548 56.119 68.548 56.1906 68.548 56.1906V57.1216C68.548 57.1216 68.548 57.1932 68.4764 57.1932C68.548 57.4796 68.6196 58.4106 68.8345 58.8403C69.1209 59.4132 69.7655 59.7713 70.6248 59.7713C71.6274 59.7713 73.2746 58.9835 73.6326 58.4106C73.8475 58.1958 74.2055 58.339 74.2055 58.5538C73.4894 59.8429 71.8423 61.132 70.41 61.7765C68.9777 62.3494 67.617 62.4926 66.7577 62.5642H66.2564L65.9699 62.421C65.9699 62.421 65.8983 62.421 65.8983 62.3494C65.6835 62.2062 65.2538 61.9913 64.3944 61.9197H64.1796C64.1796 62.1346 64.1079 62.2778 64.0363 62.2778L62.1028 62.2062C62.0311 62.2062 61.9595 61.5616 61.8879 60.7739C61.8879 59.9861 61.9595 59.27 62.0311 59.27C62.1027 59.27 64.0363 59.3416 64.0363 59.3416C64.1079 59.3416 64.1079 59.4848 64.1796 59.6997C66.3996 59.6281 66.6144 57.1216 66.6144 57.1216H66.5428V56.119C66.5428 56.119 66.5428 56.0473 66.6144 56.0473V53.2544L66.2564 52.395C66.0415 48.6711 65.6835 41.3665 65.6835 41.2948C65.6835 41.2232 66.4712 40.9368 67.4022 40.9368C68.2616 40.9368 68.9777 41.2232 68.9777 41.2948C68.9777 41.3665 68.9061 48.6711 68.7629 52.395L68.4764 53.326Z" fill="#000C2C"/>
<path d="M60.5272 28.1178H60.5988L60.4556 28.9055H60.384V33.7037H60.4556V34.205L60.5272 34.2766H60.4556V34.3482C60.6705 34.563 60.8853 34.9211 60.4556 35.2792C60.384 35.3508 60.384 35.3508 60.384 35.4224V35.5656C60.5272 35.5656 60.7421 35.6372 61.315 35.6372H61.5298L61.6014 40.2205H61.4582L61.2434 40.7218L61.5298 41.9393H62.3176L62.604 40.7218L62.4608 40.2205H62.3176L62.246 35.6372H62.7473C63.177 35.6372 63.2486 35.5656 63.3202 35.5656V35.4224C63.3202 35.3508 63.2486 35.2792 63.2486 35.2792C62.8189 34.9211 63.0337 34.563 63.2486 34.3482C63.2486 34.3482 63.2486 34.2766 63.3202 34.2766V33.7037H63.3918V28.9055H63.3202V28.4758L63.3918 28.4042C63.2486 27.6881 63.1053 27.4732 63.0337 27.33C63.0337 27.2584 63.0337 27.33 62.9621 27.2584C62.8189 27.2584 62.4608 27.1868 61.9595 27.1868H61.8879C61.4582 27.1868 61.1001 27.1868 60.9569 27.2584C60.9569 27.2584 60.8853 27.2584 60.8853 27.33C60.7421 27.4016 60.5988 27.6165 60.5272 28.1178Z" fill="#000C2C"/>
<path d="M76.4457 58.2219L79.8443 61.4027L78.6209 62.7099L75.2223 59.5291L76.4457 58.2219Z" fill="#ED1C24"/>
<path d="M73.6326 66.4313L73.9191 66.0732H70.6248L70.3384 66.3597L73.6326 66.4313Z" fill="#ED1C24"/>
<path d="M72.0571 68.0069L72.4152 67.7205H69.9087L70.2668 68.0069H72.0571Z" fill="#ED1C24"/>
<path d="M74.3488 65.5722L74.7068 65.2141H71.4126L71.0545 65.5722H74.3488Z" fill="#ED1C24"/>
<path d="M72.8448 67.2192L73.1313 66.8611H69.8371L69.5506 67.2192H72.8448Z" fill="#ED1C24"/>
<path d="M75.1365 64.7843L75.423 64.4263H72.1287L71.8423 64.7843H75.1365Z" fill="#ED1C24"/>
<path d="M71.6274 68.5081H70.7681L71.1978 68.9377L71.6274 68.5081Z" fill="#ED1C24"/>
<path d="M77.5714 62.1347L75.7811 60.4875L73.3462 63.1373H76.6404L77.5714 62.1347Z" fill="#ED1C24"/>
<path d="M75.9243 63.9249L76.2107 63.6384H72.9165L72.63 63.9249H75.9243Z" fill="#ED1C24"/>
<path d="M49.4987 64.0681V60.0577H52.2916C52.2916 60.0577 52.1484 60.7022 53.2226 60.4874C54.2968 60.2725 57.5194 59.5564 57.5194 59.5564C57.5194 59.5564 57.8059 59.5564 57.8775 59.9145C57.9491 60.1293 58.0207 60.7022 58.0207 60.7022L55.1562 61.3468C55.1562 61.3468 53.6523 61.6332 52.8645 62.6358C52.2916 63.2803 52.3632 64.2113 52.3632 64.2113H49.4987V64.0681Z" fill="#000C2C"/>
<path d="M49.069 59.6997C49.069 59.6997 48.8541 58.9835 49.4987 58.4106C50.1432 57.9093 51.5755 57.1216 53.3658 56.477C55.2278 55.9041 55.2994 55.8325 55.2994 55.8325C55.2994 55.8325 55.5143 56.1906 54.7981 56.4054C54.082 56.6203 51.7903 57.4796 51.7903 58.1958C51.7903 58.8403 51.7903 58.7687 51.8619 59.5565C51.8619 59.5565 51.1458 59.6997 50.5013 59.7713C49.7135 59.9861 49.069 59.6997 49.069 59.6997Z" fill="#000C2C"/>
<path d="M56.5508 61.0796L57.9492 60.7698L58.0421 61.1893L56.6437 61.4991L56.5508 61.0796Z" fill="#000C2C"/>
<path d="M73.4894 21.4577L73.4178 21.5293C73.2746 21.5293 73.1313 21.4577 73.0597 21.4577C72.2003 22.3171 70.9829 22.89 69.6939 22.8184C67.1874 22.7468 65.2538 20.5983 65.3254 18.0919C65.397 16.946 65.8267 15.8718 66.6144 15.0841C66.5428 14.9408 66.5428 14.7976 66.5428 14.6544L66.6144 14.5828C66.8293 14.3679 66.6144 14.2247 66.3996 14.4395C65.397 15.3705 64.7525 16.6596 64.6809 18.0919C64.6809 19.0228 64.8957 19.9538 65.3254 20.7416C65.2538 20.9564 65.1822 21.4577 65.1822 21.4577C65.0389 22.1739 63.0337 21.3861 59.1666 21.5293C59.095 21.5293 59.095 21.4577 59.095 21.4577C59.0233 21.4577 59.0233 21.5293 59.0233 21.5293C58.9517 21.8158 58.9517 23.6778 59.0233 24.0358C59.0233 24.0358 59.0233 24.1074 59.095 24.1074C59.1666 24.1074 59.1666 24.1074 59.1666 24.0358C63.1053 24.3939 64.5376 23.821 65.1105 24.2507C65.1105 24.2507 65.2538 24.3223 65.3254 24.6804V24.8236C65.3254 24.9668 65.4686 24.9668 65.5402 24.8952C65.5402 24.8236 65.5402 24.3223 65.6118 23.821H66.6144C66.9009 24.0358 67.1874 23.7494 67.5454 23.8926V24.0358H66.1131V24.9668L66.1848 25.8978V25.4681V26.1126L66.2564 26.972L66.328 28.4759C66.328 28.4759 67.5454 30.4095 67.5454 30.5527C67.617 30.8392 67.6887 30.9108 67.6887 30.9824V31.054C67.9035 31.1972 68.0467 31.9134 68.0467 31.9134C68.19 33.4173 68.7629 35.9954 69.5506 37.7857C69.6222 38.0006 69.7655 38.2154 69.8371 38.4303C69.8371 38.4303 69.9087 38.5735 69.9803 38.5735H70.1235C70.2668 38.7167 70.2668 38.9316 70.7681 38.86V39.0032L70.9829 39.4329L71.341 39.2896C71.2694 39.1464 71.1978 39.0748 71.1261 38.9316V38.7883C71.1978 38.7883 71.341 38.7167 71.4126 38.7167H71.5558C71.7707 38.7167 71.9855 38.5735 72.0571 38.5019C72.0571 38.4303 72.1287 38.4303 72.1287 38.3587V37.929C72.1287 37.929 72.1287 37.8574 72.0571 37.8574C71.7707 37.7141 71.4842 37.4993 71.4126 37.4277C71.4126 37.4277 71.341 37.3561 71.341 37.2844C71.2694 37.0696 71.1261 36.5683 70.9829 35.9954L71.0545 35.9238V35.8522H71.1261L71.2694 35.7805C71.341 35.7089 71.4126 35.6373 71.4126 35.4941V35.4225L71.341 35.2076V35.136L70.8397 34.6347C70.8397 34.6347 70.8397 34.5631 70.7681 34.5631V34.4199V34.3483V34.2766C70.7681 34.2766 70.6964 34.1334 70.9113 34.0618C70.9829 34.0618 71.0545 33.9902 71.1977 33.9902C71.341 33.9186 71.341 33.9186 71.4126 33.7037C71.4126 33.6321 71.5558 32.7727 71.5558 32.7727C71.6274 32.4147 71.341 31.6985 71.2694 30.5527V28.0462V27.9746C71.2694 26.3991 71.341 25.0384 71.4842 24.752V24.6804V23.1048C72.3436 22.8184 73.0597 22.2455 73.6326 21.6009C73.8475 21.3861 73.7042 21.2429 73.4894 21.4577ZM65.397 22.1739C65.397 22.1022 65.4686 21.3861 65.4686 21.2429C65.5402 21.3145 65.9699 21.8874 66.4712 22.2455L65.397 22.1739Z" fill="#000C2C"/>
<path d="M73.9907 18.9512C73.8475 19.0228 73.7759 19.0228 73.7042 19.0228C73.561 19.0228 73.561 18.9512 73.4894 18.8796V18.6648L73.9191 18.5215L74.0623 18.2351C74.0623 18.2351 74.0623 18.1635 73.9907 18.1635C73.8475 18.2351 73.7759 18.3067 73.6326 18.3067C73.561 18.3067 73.4894 18.3067 73.4894 18.2351V18.0202L73.9191 17.7338L73.9907 17.4473C73.9907 17.4473 73.9907 17.3757 73.9191 17.4473C73.7758 17.5906 73.6326 17.5906 73.561 17.5906C73.4894 17.5906 73.4894 17.5906 73.4178 17.5189C73.4178 17.4473 73.4178 17.3757 73.3462 17.3041L73.7042 17.0176V16.7312C73.7042 16.7312 73.7042 16.6596 73.6326 16.7312C73.4894 16.8744 73.3462 16.946 73.2746 16.946H73.2029C73.2029 16.8744 73.1313 16.8028 73.1313 16.8028L73.4178 16.4447V16.1583H73.3462C73.2029 16.3731 73.0597 16.4447 72.9881 16.4447H72.9165C72.9165 16.3731 72.8449 16.3015 72.8449 16.3015L73.0597 15.8718L72.9881 15.5854H72.9165C72.8449 15.8718 72.7016 15.9434 72.5584 15.9434L72.4152 15.8002L72.5584 15.3705L72.4152 15.0841H72.3436H72.272C72.2003 15.3705 72.1287 15.5137 71.9855 15.5137L71.8423 15.3705L71.9139 14.8692L71.8423 14.5828H71.7707H71.699C71.699 14.9408 71.5558 15.0124 71.4842 15.0124C71.4126 15.0124 71.4126 14.9408 71.341 14.9408V14.4395L71.1261 14.2247H71.0545C71.1261 14.5828 70.9829 14.6544 70.9113 14.726C70.8397 14.726 70.8397 14.726 70.7681 14.6544L70.6964 14.1531L70.41 14.0098H70.3384C70.4816 14.3679 70.41 14.4395 70.2668 14.5111H70.1235L69.9803 14.0815L69.6938 13.9382C69.6938 13.9382 69.6222 13.9382 69.6222 14.0098C69.8371 14.2963 69.7655 14.4395 69.6222 14.5111H69.479L69.1925 14.0815L68.9061 14.0098C68.9061 14.0098 68.8345 14.0098 68.9061 14.0815C69.1209 14.3679 69.1209 14.5111 69.0493 14.5828H68.9061L68.548 14.2247H68.2616C68.2616 14.2247 68.1899 14.2247 68.2616 14.2963C68.548 14.5111 68.548 14.726 68.4764 14.7976C68.4048 14.7976 68.4048 14.7976 68.3332 14.8692L67.9751 14.5828H67.6886C67.6886 14.5828 67.617 14.6544 67.6886 14.6544C68.0467 14.8692 68.0467 15.0124 67.9751 15.0841C67.9035 15.0841 67.9035 15.1557 67.8319 15.1557L67.4022 14.9408L66.9725 15.0841C66.9725 15.0841 66.9009 15.1557 66.9725 15.1557C67.3306 15.2989 67.3306 15.4421 67.3306 15.5854L67.259 15.657L66.8293 15.5137L66.5428 15.657V15.7286C66.9009 15.8002 66.9725 15.9434 66.9725 16.0867L66.9009 16.1583L66.328 16.015L66.0415 16.2299V16.3015H66.1131C66.4712 16.3015 66.4712 16.4447 66.4712 16.588C66.4712 16.6596 66.3996 16.6596 66.3996 16.7312H65.8983L65.6835 16.946V17.0176H65.8983C66.1131 17.0176 66.1848 17.1609 66.1848 17.2325C66.1848 17.2325 66.1847 17.3041 66.1131 17.3757L65.6118 17.4473L65.5402 17.5906V17.6622C65.6835 17.5906 65.7551 17.5906 65.8267 17.5906C65.9699 17.5906 66.0415 17.6622 66.0415 17.7338V17.877L65.5402 18.0919V18.3783C65.5402 18.3783 65.5402 18.4499 65.6118 18.4499C65.7551 18.3783 65.8983 18.3067 65.9699 18.3067C66.1131 18.3067 66.1131 18.3783 66.1848 18.4499V18.5215L65.7551 18.808L65.6835 19.0945C65.6835 19.0945 65.6834 19.1661 65.7551 19.0945C65.8983 18.9512 66.0415 18.9512 66.1131 18.9512C66.1847 18.9512 66.2564 19.0228 66.2564 19.0228V19.0945L65.8983 19.4525V19.739C65.8983 19.739 65.8983 19.8106 65.9699 19.739C66.1131 19.5958 66.2564 19.5241 66.328 19.5241C66.3996 19.5241 66.4712 19.5958 66.4712 19.5958C66.4712 19.5958 66.4712 19.6674 66.5428 19.6674L66.1848 20.0971V20.3835H66.2564C66.3996 20.1687 66.5428 20.0971 66.6144 20.0971C66.686 20.0971 66.686 20.097 66.7577 20.1687L66.8293 20.2403L66.6144 20.67L66.686 20.9564H66.7577C66.8293 20.67 66.9725 20.5983 67.1157 20.5983H67.1873L67.259 20.67L66.9725 21.3145L67.1157 21.6009H67.1873C67.259 21.2429 67.4022 21.1713 67.4738 21.1713H67.5454L67.617 21.2429L67.4738 21.7442L67.6886 22.0306H67.8319C67.8319 21.6726 67.9751 21.6009 68.1183 21.5293C68.1183 21.5293 68.1899 21.5293 68.1899 21.6009V22.1022L68.4048 22.3171H68.4764C68.4048 21.959 68.548 21.8158 68.6196 21.8158H68.7629L68.8345 22.3171L69.1209 22.4603H69.1925C69.0493 22.1022 69.1925 21.959 69.2642 21.959H69.4074L69.6222 22.4603L69.9087 22.6035C69.9087 22.6035 69.9803 22.6035 69.9087 22.5319C69.6938 22.1739 69.8371 22.0306 69.9087 22.0306H70.0519L70.3384 22.4603H70.5532C70.5532 22.4603 70.6248 22.4603 70.5532 22.3887C70.3384 22.1022 70.3384 21.959 70.4816 21.8874H70.6248L70.9829 22.2455H71.2694C71.2694 22.2455 71.341 22.2455 71.2694 22.1739C70.9829 21.959 70.9829 21.7442 71.0545 21.6726C71.1261 21.6726 71.1261 21.6726 71.1977 21.6009L71.5558 21.8874H71.8423C71.8423 21.8874 71.9139 21.8874 71.8423 21.8158C71.5558 21.6009 71.5558 21.4577 71.5558 21.3861C71.6274 21.3861 71.6274 21.3145 71.699 21.3145L72.1287 21.5293L72.4152 21.4577V21.3861C72.0571 21.2429 72.0571 21.0996 72.0571 21.028L72.2003 20.8848L72.63 21.028L72.9165 20.8848V20.8132C72.5584 20.7416 72.4868 20.5983 72.4868 20.5267C72.5584 20.4551 72.5584 20.4551 72.5584 20.3835L72.9881 20.4551L73.2746 20.2403V20.1687H73.2029C72.9165 20.1687 72.8449 20.0254 72.8449 19.9538C72.8449 19.8822 72.9165 19.8822 72.9165 19.8106H73.4178L73.6326 19.5958V19.5241H73.4178C73.2745 19.5241 73.2029 19.4525 73.1313 19.3809C73.1313 19.3093 73.2029 19.2377 73.2029 19.2377L73.7042 19.1661L73.9907 18.9512C73.9907 18.9512 73.9907 19.0228 73.9907 18.9512Z" fill="#000C2C"/>
<path d="M83.3722 46.451C83.3005 46.3794 83.3005 46.3794 83.2289 46.3794H81.8683V47.0239H81.9399V47.8833H81.2237V48.4562H81.1521C81.1521 48.0981 81.0805 47.8117 80.8657 47.5252V47.0239V46.9523V46.8091C80.8657 46.0929 80.0063 45.3052 79.0037 44.6606C78.7889 44.1593 78.0727 43.8013 77.1417 43.8013C76.2107 43.8013 75.423 44.1593 75.2798 44.6606C74.2772 45.2336 73.4178 46.0213 73.4178 46.8091V47.4536C73.2029 47.74 73.1313 48.0981 73.1313 48.3846H73.0597V47.8117H72.3436V48.3846H71.9139V47.5968C71.9139 47.5968 71.9139 47.5252 71.8423 47.5252V44.8755C71.8423 44.7323 71.6991 44.589 71.5558 44.589H71.4842C71.341 44.589 71.1978 44.7323 71.1978 44.8755V48.3846C71.0545 48.3846 70.9829 48.4562 70.9829 48.5994C70.9829 48.7426 71.0545 48.8143 71.1978 48.8143V52.3233C71.1978 52.4666 71.341 52.6098 71.4842 52.6098H71.5558C71.6991 52.6098 71.8423 52.4666 71.8423 52.3233V49.6736C71.9139 49.6736 71.9139 49.6736 71.9139 49.602V48.9575H72.3436V57.4796H73.0597V54.9731L74.7068 53.684H81.367V54.4718C81.2237 54.4718 81.0805 54.4002 80.9373 54.4002C79.9347 54.4002 79.0753 55.2595 79.0753 56.2621C79.0753 57.2647 79.9347 58.1241 80.9373 58.1241C81.9399 58.1241 82.7992 57.2647 82.7992 56.2621C82.7992 55.4744 82.3696 54.8298 81.6534 54.5434V53.684H81.7966V51.1059H85.5922H84.518H85.7354V47.5968C85.6638 47.5968 83.3722 46.451 83.3722 46.451ZM77.0701 44.3026C77.9295 44.3026 78.6456 44.6606 78.6456 45.0903C78.6456 45.52 77.9295 45.8781 77.0701 45.8781C76.2107 45.8781 75.4946 45.52 75.4946 45.0903C75.4946 44.6606 76.2107 44.3026 77.0701 44.3026ZM81.2237 53.0395H72.9165V48.9575H73.0597C73.1313 49.1723 73.203 49.3872 73.3462 49.602V49.9601C73.3462 51.1059 74.9933 52.3233 77.0701 52.3233C79.1469 52.3233 80.7941 51.0343 80.7941 49.9601V49.602C80.9373 49.3872 81.0089 49.2439 81.0805 49.0291H81.2237V53.0395ZM81.0089 57.1215C80.5792 57.1215 80.2927 56.7634 80.2927 56.4054C80.2927 55.9757 80.6508 55.6892 81.0089 55.6892C81.4386 55.6892 81.725 56.0473 81.725 56.4054C81.725 56.7634 81.367 57.1215 81.0089 57.1215Z" fill="#000C2C"/>
<path d="M77.3565 21.6008C76.6404 21.6008 75.9959 22.1737 75.9959 22.9615C75.9959 23.6776 76.5688 24.3222 77.3565 24.3222C78.0727 24.3222 78.7172 23.7493 78.7172 22.9615C78.7172 22.1737 78.0727 21.6008 77.3565 21.6008Z" fill="#000C2C"/>
<path d="M79.9347 22.9615V22.4602L79.8631 22.2453L79.7914 22.0305L79.7198 21.8157L79.5766 21.6008L79.4334 21.386L79.2901 21.2428H79.2185L79.1469 21.0995V21.0279L79.0037 20.8847H78.9321L78.7888 20.7415V20.6698L78.6456 20.5982H78.574L78.4308 20.5266L78.2875 20.455L78.1443 20.3834L77.9295 20.3118H76.9269L76.7836 20.3834V20.455L76.6404 20.5266H76.5688L76.4256 20.5982V20.6698L76.2824 20.7415H76.2107L76.0675 20.8131V20.8847L75.9959 20.9563L75.9243 21.0279V21.0995L75.7811 21.2428H75.7094L75.5662 21.386V21.4576L75.423 21.6008H75.3514L75.2081 21.8157V21.8873L75.1365 22.1021H75.0649L74.8501 22.0305V22.317H74.7785L74.7068 22.5318V22.7466H74.6352V23.2479L74.7068 23.4628L74.7785 23.6776V23.7492L74.8501 23.8925H74.9217L74.9933 24.1073L75.0649 24.2505H75.1365L75.2798 24.4654L75.423 24.6086H75.4946L75.6378 24.7518V24.8235L75.8527 24.9667L76.0675 25.1099V25.1815L76.2824 25.3248L76.5688 25.3964V25.468L76.8553 25.5396H77.7146L78.0011 25.468L78.2159 25.3964H78.2875L78.5024 25.3248L78.7172 25.2531H78.7888L78.9321 25.1099V25.0383L79.0753 24.8951L79.2185 24.7518V24.6802L79.3618 24.537H79.4334L79.5766 24.3938V24.3222L79.6482 24.1789L79.7198 23.9641V23.8925L79.7914 23.6776H79.8631L79.9347 23.4628L80.0063 23.2479L79.9347 22.9615ZM77.3566 24.6086C76.4256 24.6086 75.7094 23.8925 75.7094 22.9615C75.7094 22.0305 76.4256 21.3144 77.3566 21.3144C78.2875 21.3144 79.0037 22.0305 79.0037 22.9615C79.0037 23.8925 78.2875 24.6086 77.3566 24.6086Z" fill="#000C2C"/>
<path d="M56.5885 14.1531H62.9621V17.7338H56.5885V14.1531Z" fill="#ED1C24"/>
<path d="M49.2838 14.1531H55.9439V17.7338H49.2838V14.1531Z" fill="#ED1C24"/>
<path d="M86.2367 39.8625C85.5922 38.9316 84.5896 38.9316 83.9451 39.8625C83.8018 40.149 83.6586 40.4355 83.587 40.7935C83.0141 40.7935 82.4412 40.8651 81.8683 40.8651C81.7966 40.7219 81.7966 40.6503 81.725 40.5787C81.6534 40.4355 81.2953 39.9342 81.2237 39.9342C81.1521 39.9342 80.6508 40.7219 80.5076 40.9368H79.9347L79.2901 40.0058C79.2901 40.0058 78.8605 40.6503 78.6456 40.9368H77.9295C77.8579 40.7935 77.5714 40.2922 77.4282 40.0774C77.4282 40.0774 76.9985 40.6503 76.8553 40.9368C76.354 41.0084 76.2823 41.0084 76.354 41.4381V41.6529C76.2823 42.0826 76.354 42.0826 76.9269 42.1542C77.2133 42.1542 77.4998 42.1542 77.7146 42.2258L78.3592 43.0852C78.4308 42.942 78.8605 42.2258 78.8605 42.2258C78.8605 42.2258 79.505 42.2974 79.6482 42.2974C79.7198 42.5123 80.2211 43.2284 80.2211 43.2284C80.2211 43.2284 80.7224 42.5839 80.8657 42.369H81.5818C81.725 42.6555 82.1547 43.3716 82.2979 43.3716C82.3696 43.3 82.7992 42.6555 82.9425 42.4407H83.587C83.587 42.5123 83.6586 42.5123 83.6586 42.5839C83.7302 42.7987 83.8018 43.0852 83.9451 43.2284C84.5896 44.1594 85.5922 44.1594 86.2367 43.2284C86.8096 42.369 86.8096 40.8651 86.2367 39.8625ZM85.9503 41.8677H85.3057V42.8703C85.3057 43.0852 85.2341 43.2284 85.0909 43.2284C84.9477 43.2284 84.876 43.0852 84.876 42.8703V41.8677H84.2315C84.0883 41.8677 84.0167 41.7245 84.0167 41.5097C84.0167 41.2948 84.0883 41.1516 84.2315 41.1516H84.876V40.149C84.876 39.9342 84.9477 39.7909 85.0909 39.7909C85.2341 39.7909 85.3057 39.9342 85.3057 40.149V41.1516H85.9503C86.0935 41.1516 86.1651 41.2948 86.1651 41.5097C86.2367 41.7245 86.0935 41.8677 85.9503 41.8677Z" fill="#000C2C"/>
<path d="M45.4166 44.446V44.3027C45.4166 44.0163 45.345 43.1569 45.345 43.0137C45.345 42.7272 45.2734 42.584 45.0586 42.584H28.6589L29.0886 45.8066C29.0886 45.8066 27.7996 48.0983 27.6563 48.2415L27.8712 48.5996L28.0144 48.7428C28.2293 48.6712 28.5157 49.3873 28.6589 49.3873C28.8022 49.3873 28.7306 48.5996 28.9454 48.528C29.1602 48.4563 29.4467 49.1725 29.5899 49.1725C29.7332 49.1725 29.6615 48.3847 29.8764 48.3131C30.0912 48.2415 30.3777 48.9576 30.5209 48.9576C30.6641 48.9576 30.5925 48.1699 30.8074 48.0983C31.0222 48.0267 31.3087 48.7428 31.4519 48.7428C31.5951 48.7428 31.5235 47.955 31.7383 47.8834C31.9532 47.8118 32.2396 48.528 32.3829 48.528C32.5261 48.528 32.4545 47.7402 32.6693 47.6686C32.8842 47.597 33.1706 48.3131 33.3139 48.3131C33.4571 48.3131 33.3855 47.5254 33.6003 47.4537C33.8152 47.3821 34.1016 48.0983 34.2448 48.0983C34.3881 48.0983 34.3165 47.3105 34.5313 47.2389C34.7461 47.1673 35.0326 47.8834 35.1758 47.8834C35.2474 47.8834 35.2474 47.0957 35.4623 47.0241C35.6771 46.9525 35.9636 47.6686 36.1068 47.6686C36.25 47.6686 36.1784 46.8808 36.3933 46.8092C36.6081 46.8092 36.8946 47.5254 36.9662 47.5254C37.1094 47.5254 37.0378 46.7376 37.2526 46.666C37.4675 46.5944 37.7539 47.3105 37.8972 47.3105C38.0404 47.3105 37.9688 46.5228 38.1836 46.4511C38.3985 46.3795 38.6849 47.0957 38.8281 47.0957C38.9714 47.0957 38.8998 46.3079 39.1146 46.2363C39.3294 46.1647 39.6159 46.8808 39.7591 46.8808C39.9024 46.8808 39.8307 46.0931 40.0456 46.0215C40.2604 45.9499 40.5469 46.666 40.6901 46.666C40.8333 46.666 40.7617 45.8782 40.9766 45.8066C41.1914 45.735 41.4779 46.4511 41.6211 46.4511C41.7643 46.4511 41.6927 45.6634 41.9076 45.5918C42.1224 45.5202 42.4089 46.2363 42.5521 46.2363C42.6953 46.2363 42.6237 45.4486 42.8385 45.3769C43.0534 45.3053 43.3398 46.0215 43.4831 46.0215C43.6263 46.0215 43.5547 45.2337 43.7695 45.1621C43.9844 45.0905 44.2708 45.8066 44.4141 45.8066C44.5573 45.8066 44.4857 45.0189 44.7005 44.9473C44.9153 44.8756 45.2018 45.5918 45.345 45.5918C45.4166 45.5918 45.4166 45.0189 45.4166 44.446ZM44.4857 43.515H43.9844C43.8411 43.515 43.7695 43.3717 43.7695 43.3001C43.7695 43.1569 43.9128 43.0853 43.9844 43.0853H44.4857C44.6289 43.0853 44.7005 43.2285 44.7005 43.3001C44.7721 43.3717 44.6289 43.515 44.4857 43.515Z" fill="#000C2C"/>
<path d="M53.7239 9.99927H60.384V13.58H53.7239V9.99927Z" fill="#ED1C24"/>
<path d="M238.059 28.3325H239.491C240.279 28.3325 241.067 28.619 241.067 29.55C241.067 30.1229 240.708 30.5526 240.136 30.6958L241.281 32.5578H240.35L239.348 30.7674H238.846V32.5578H238.13V28.3325H238.059ZM239.419 30.1229C239.849 30.1229 240.35 30.0513 240.35 29.4783C240.35 29.0487 239.921 28.9054 239.491 28.9054H238.846V30.1229H239.419Z" fill="#000C2C"/>
<path d="M239.491 34.0616C237.557 34.0616 235.982 32.4861 235.982 30.5525C235.982 28.619 237.557 27.0435 239.491 27.0435C241.425 27.0435 243 28.619 243 30.5525C243 32.4861 241.425 34.0616 239.491 34.0616ZM239.491 27.4731C237.844 27.4731 236.483 28.8338 236.483 30.4809C236.483 32.1281 237.844 33.4887 239.491 33.4887C241.138 33.4887 242.499 32.1281 242.499 30.4809C242.499 28.8338 241.138 27.4731 239.491 27.4731Z" fill="#000C2C"/>
</g>
<defs>
<clipPath id="clip0">
<rect width="220" height="63.4692" fill="white" transform="translate(23 9.99902)"/>
</clipPath>
</defs>
</svg>
