<svg width="92" height="78" viewBox="0 0 92 78" fill="none" xmlns="http://www.w3.org/2000/svg">
<path d="M40.7715 11.968C38.5145 7.40475 34.7114 3.7905 30.0393 1.76854C25.3672 -0.253434 20.1292 -0.551924 15.2576 0.926195C10.386 2.40431 6.197 5.56313 3.43618 9.84039C0.675357 14.1176 -0.478133 19.2358 0.18103 24.2838C0.840193 29.3318 3.26924 33.9822 7.0358 37.4071C10.8024 40.832 15.662 42.8093 20.7498 42.9869C25.8376 43.1646 30.8233 41.5311 34.8196 38.3772C38.8159 35.2233 41.5634 30.7537 42.573 25.7639L35.8767 24.409C35.1879 27.8132 33.3134 30.8625 30.5871 33.0141C27.8607 35.1658 24.4593 36.2802 20.9882 36.159C17.5172 36.0379 14.2018 34.6889 11.6321 32.3523C9.06242 30.0157 7.40525 26.8431 6.95555 23.3992C6.50585 19.9553 7.29279 16.4635 9.17631 13.5454C11.0598 10.6274 13.9177 8.47233 17.2412 7.46391C20.5648 6.45549 24.1383 6.65913 27.3258 8.03858C29.4038 8.93789 31.2298 10.2989 32.6759 12L40.7715 11.968Z" fill="#E0C467"/>
<rect x="17" y="21" width="71" height="6" fill="#E0C467"/>
<path d="M62.9999 35.4999L75.5764 24.9999L78.7824 28.8369L62.9999 41.8518L62.9999 35.4999Z" fill="#E0C467"/>
<path d="M88.0001 35.5L75.206 24.9999L72.0001 28.8369L88.0001 41.8518L88.0001 35.5Z" fill="#E0C467"/>
<path d="M6.45394 63.6695C6.45394 60.9844 8.46332 58.9751 11.1484 58.9751C13.14 58.9751 14.2603 59.9353 14.9894 60.8777L16.4831 59.8819C15.5406 58.5127 13.7624 57.1613 11.1484 57.1613C7.4853 57.1613 4.64016 60.0064 4.64016 63.6695C4.64016 67.3327 7.4853 70.1778 11.1484 70.1778C14.8471 70.1778 17.6923 67.2971 17.6923 63.6518C17.6923 63.4384 17.6745 63.225 17.6745 62.9938H11.4329V64.8076H15.754C15.3806 66.5147 13.798 68.364 11.1484 68.364C8.46332 68.364 6.45394 66.3547 6.45394 63.6695ZM20.5869 66.3369C20.5869 65.1455 21.5649 64.1675 22.7563 64.1675C23.9477 64.1675 24.9257 65.1455 24.9257 66.3369C24.9257 67.5283 23.9477 68.5063 22.7563 68.5063C21.5649 68.5063 20.5869 67.5283 20.5869 66.3369ZM26.5795 66.3369C26.5795 64.2208 24.8724 62.5137 22.7563 62.5137C20.6402 62.5137 18.9331 64.2208 18.9331 66.3369C18.9331 68.453 20.6402 70.16 22.7563 70.16C24.8724 70.16 26.5795 68.453 26.5795 66.3369ZM30.2029 70V56.8412H28.478V70H30.2029ZM40.4338 56.8412H38.709V63.7229C38.2466 63.2072 37.4287 62.4959 35.846 62.4959C33.7833 62.4959 32.0584 64.203 32.0584 66.3902C32.0584 68.5596 33.8367 70.16 35.846 70.16C37.3398 70.16 38.2111 69.4488 38.709 68.9331V70H40.4338V56.8412ZM36.1128 68.6486C34.7613 68.6486 33.7833 67.6705 33.7833 66.3191C33.7833 64.9499 34.7613 63.9718 36.1128 63.9718C37.482 63.9718 38.46 64.9499 38.46 66.3191C38.46 67.6705 37.482 68.6486 36.1128 68.6486ZM47.6652 65.3589H43.8243C44.0199 64.6476 44.7312 63.9718 45.727 63.9718C46.7761 63.9718 47.3807 64.612 47.6652 65.3589ZM41.9394 66.3369C41.9394 68.5063 43.522 70.16 45.727 70.16C47.4163 70.16 48.3765 69.2354 48.7677 68.6308L47.5407 67.7594C47.2562 68.1151 46.6338 68.5952 45.8159 68.5952C44.3755 68.5952 43.682 67.635 43.682 66.4436H49.5146C49.5146 64.0608 47.8964 62.5137 45.727 62.5137C43.5398 62.5137 41.9394 64.3275 41.9394 66.3369ZM50.9078 70H52.6327V65.9457C52.6327 65.2166 53.1306 64.203 54.3042 64.203C55.3 64.203 55.6912 64.8787 55.6912 65.8923V70H57.4161V65.5545C57.4161 63.8829 56.6337 62.4959 54.6599 62.4959C53.2906 62.4959 52.8639 63.2428 52.6327 63.7051V62.656H50.9078V70ZM60.9346 62.656V57.3035H59.1208V70H60.9346V65.3411L61.5925 64.612L66.0559 70H68.4387L62.8373 63.2428L68.2786 57.3035H65.8247L60.9346 62.656ZM75.2067 65.3589H71.3658C71.5614 64.6476 72.2727 63.9718 73.2685 63.9718C74.3176 63.9718 74.9222 64.612 75.2067 65.3589ZM69.4809 66.3369C69.4809 68.5063 71.0635 70.16 73.2685 70.16C74.9578 70.16 75.918 69.2354 76.3092 68.6308L75.0823 67.7594C74.7977 68.1151 74.1754 68.5952 73.3574 68.5952C71.917 68.5952 71.2235 67.635 71.2235 66.4436H77.0561C77.0561 64.0608 75.4379 62.5137 73.2685 62.5137C71.0813 62.5137 69.4809 64.3275 69.4809 66.3369ZM82.2014 67.4394L79.623 62.656H77.7736L81.33 69.2887L79.3562 73.4853H81.17L86.2201 62.656H84.4419L82.2014 67.4394Z" fill="black"/>
</svg>
