<svg width="261" height="84" viewBox="0 0 261 84" fill="none" xmlns="http://www.w3.org/2000/svg">
<g clip-path="url(#clip0)">
<path fill-rule="evenodd" clip-rule="evenodd" d="M109.513 39.3131L130.443 3V3.00244V3C130.443 3 149.638 35.8559 150.524 37.7912C146.998 37.7937 144 39.3821 144 39.3821L130.463 17.0749L130.453 17.0709L117.649 39.2895L109.513 39.3131ZM137.83 50.6028C138.471 49.5774 138.784 48.5065 138.788 47.4186C138.785 44.3619 136.987 40.7154 127.567 40.7211C125.904 40.7211 123.814 40.817 120.865 41.3687L120.867 46.7093C122.724 46.0341 124.548 45.8009 125.909 45.7992C129.16 45.7992 130.392 47.1626 130.394 48.6527C130.389 49.3629 130.093 50.0121 129.592 50.6101L137.831 50.6028H137.83ZM117.448 50.6166C118.094 49.5896 118.409 48.5195 118.405 47.4316C118.405 44.3725 116.612 40.7284 107.185 40.7349C105.523 40.7374 103.435 40.8292 100.48 41.3825L100.485 46.7206C102.102 46.1331 103.807 45.8254 105.527 45.8106C108.785 45.8106 110.009 47.1781 110.009 48.6666C110.01 49.3783 109.716 50.0251 109.208 50.6231L117.447 50.6166H117.448ZM108.887 56.6006V56.5332C112.359 55.1828 114.852 53.6293 116.416 51.9507L107.653 51.9572C106.292 52.8778 104.509 53.6959 102.751 54.5028L100.031 55.7556L100.034 61.5L118.416 61.4894L118.413 56.5901L108.887 56.5998V56.6006ZM129.261 56.5876L129.263 56.5202C132.737 55.1723 135.229 53.6163 136.794 51.9377L128.032 51.9409C126.67 52.8647 124.89 53.6821 123.125 54.4873L120.405 55.7386V61.4886L138.792 61.4764L138.788 56.5803L129.261 56.5876ZM146.079 64.4705L146.083 66.8617L149.055 66.8576L149.057 72.5443H152.429L152.426 66.8592L155.4 66.8552L155.393 64.4616L146.079 64.4697V64.4705ZM140.362 70.6861V68.6768L141.055 68.6752C141.407 68.6752 142.562 68.6963 142.559 69.6762C142.562 70.6236 141.507 70.6837 141.041 70.6861H140.362ZM137.076 72.5532L142.347 72.5508C144.865 72.5484 145.959 71.2102 145.963 69.6746C145.955 68.1422 144.861 66.8024 142.345 66.804L140.45 66.8072L140.443 64.4746L137.071 64.4762L137.076 72.5532ZM132.441 72.5557H135.819L135.815 64.477L127.846 64.4835L127.848 67.0551C127.852 68.5704 128.037 70.5041 126.758 70.5066C126.508 70.4978 126.26 70.4734 126.013 70.4334L126.015 72.5053C126.543 72.6231 127.173 72.7052 127.724 72.7052C130.749 72.7028 130.81 70.6544 130.811 68.0593L130.81 66.6772L132.439 66.6748L132.441 72.5557ZM120.726 66.2913C121.997 66.2889 122.092 67.6831 122.091 68.5241C122.094 69.365 121.999 70.7625 120.726 70.7625C119.457 70.7625 119.368 69.3666 119.37 68.5241C119.368 67.6831 119.452 66.2905 120.726 66.2905L120.726 66.2913ZM120.726 64.347C117.615 64.3511 115.815 65.9549 115.818 68.5289C115.815 71.0989 117.623 72.7109 120.732 72.7084C123.841 72.7044 125.636 71.0916 125.636 68.52C125.632 65.9509 123.833 64.3454 120.726 64.347ZM109.555 69.2838L110.33 69.2821C110.622 69.2821 111.668 69.2797 111.668 70.1027C111.666 70.3928 111.487 70.9291 110.408 70.9315H109.553L109.555 69.2838ZM109.548 66.1329H110.415C111.347 66.1304 111.613 66.57 111.613 66.8991C111.614 67.1363 111.499 67.6904 110.344 67.6888L109.546 67.6904L109.548 66.1329ZM106.352 64.4949L106.36 72.5711L111.479 72.5671C112.6 72.5687 115.116 72.4598 115.114 70.4131C115.116 69.1456 114.009 68.6118 113.127 68.494L113.124 68.4485C114.22 68.2681 114.914 67.5149 114.915 66.5903C114.91 65.8387 114.405 64.4892 111.651 64.4932L106.352 64.4949ZM151.659 39.2976L151.53 40.6025L154.122 39.8054L153.722 41.0583L156.424 40.8146L155.778 41.9545L158.467 42.2779L157.6 43.2667L160.173 44.1409L159.114 44.9193L161.435 46.3079L160.246 46.8579L162.231 48.6974L160.947 48.981L162.513 51.1991L161.198 51.2105L162.256 53.7L160.976 53.4441L161.499 56.1009L160.297 55.5809L160.256 58.289L159.183 57.5253L158.59 60.1675L157.7 59.1933L156.559 61.6584L155.891 60.5266L154.271 62.6968L153.853 61.4521L151.805 63.2363L151.659 61.9322L149.287 63.2574L149.42 61.9428L146.826 62.7391L147.221 61.4902L144.522 61.7373L145.166 60.5957L142.48 60.2723L143.347 59.2851L140.782 58.4133L141.84 57.6252L139.509 56.2383L140.707 55.6979L138.716 53.8552L139.999 53.5741L138.852 51.9328L147.535 51.9304L147.538 56.2594C147.54 56.5366 147.651 56.802 147.847 56.9977C148.043 57.1934 148.309 57.3036 148.586 57.3042H152.363C152.944 57.3042 153.411 56.8363 153.411 56.2594V55.2389C153.469 55.26 153.53 55.2633 153.589 55.2681L157.508 55.2641C157.87 55.2641 158.166 54.9634 158.166 54.6027C158.168 54.5153 158.152 54.4285 158.12 54.3473C158.087 54.2662 158.039 54.1923 157.978 54.13C157.916 54.0676 157.843 54.0181 157.763 53.9844C157.682 53.9506 157.596 53.9332 157.508 53.9332L153.589 53.9348C153.529 53.9334 153.469 53.9427 153.412 53.9624L153.41 48.5626C153.466 48.5794 153.525 48.5879 153.584 48.5878L157.504 48.5837C157.679 48.5826 157.847 48.5123 157.97 48.388C158.093 48.2638 158.163 48.0957 158.162 47.9207C158.163 47.7443 158.095 47.5746 157.971 47.449C157.847 47.3233 157.678 47.2519 157.502 47.2504L153.586 47.2544C153.526 47.2526 153.465 47.2611 153.408 47.2796V46.2681C153.408 45.6863 152.938 45.2094 152.359 45.2118H148.578C148.3 45.2148 148.035 45.3278 147.84 45.5261C147.645 45.7243 147.536 45.9917 147.538 46.2697V50.5963L139.438 50.6003L138.686 48.8453L139.97 49.1077L139.443 46.4501L140.644 46.9717L140.69 44.2636L141.762 45.0233L142.359 42.3778L143.243 43.3447L144.395 40.8934L145.051 42.0236L146.679 39.8526L147.089 41.0997L149.135 39.3123L149.29 40.6163L151.658 39.2976H151.659ZM176 81.7662L175.988 81.7646L85 81.8125H85.0065L95.6949 63.268L103.822 63.2583L97.1639 74.8104L99.4381 73.3918L99.404 74.8218L99.4227 74.8242L101.708 73.3901L101.684 74.8201H101.694L103.984 73.3877L103.964 74.8282H103.972L106.268 73.3877L106.241 74.8258L106.249 74.8282L108.544 73.3861L108.523 74.8242H108.527L110.823 73.3836L110.799 74.8242H110.803L113.101 73.3812L113.073 74.8218L115.381 73.3788L115.357 74.8218L117.658 73.3788L117.634 74.8201L119.933 73.3788L119.912 74.8152L122.216 73.3771L122.19 74.8177L124.495 73.3747L124.47 74.8152L126.769 73.3723L126.739 74.8104L129.05 73.3747L129.018 74.8104L131.328 73.3706L131.294 74.8104L133.601 73.3682L133.573 74.8079L133.576 74.825L133.603 74.8274V74.8079L135.904 73.3682L135.878 74.8063L138.185 73.3666L138.156 74.8063L140.464 73.3666L140.443 74.8023L142.74 73.3641L142.715 74.8039L145.023 73.3625L144.995 74.8023L147.298 73.3593L147.273 74.7998L149.575 73.3593L149.551 74.7974L151.857 73.3593L151.824 74.7974L154.133 73.356L154.11 74.7957L156.407 73.356L156.381 74.7941L158.686 73.3503L158.664 74.7917L160.965 73.3536L160.939 74.7941L163.159 73.3999L157.247 63.2095C159.487 61.8071 161.179 60.1204 162.339 58.1427L176 81.7662Z" fill="black"/>
</g>
<defs>
<clipPath id="clip0">
<rect width="91" height="78.8125" fill="white" transform="translate(85 3)"/>
</clipPath>
</defs>
</svg>
