<svg width="30" height="30" viewBox="0 0 30 30" fill="none" xmlns="http://www.w3.org/2000/svg">
<path fill-rule="evenodd" clip-rule="evenodd" d="M26.1445 3.11232C26.2531 3.17952 26.3428 3.27334 26.405 3.38491C26.4673 3.49647 26.4999 3.62208 26.5 3.74982V26.2498C26.5 26.4487 26.421 26.6395 26.2803 26.7802C26.1397 26.9208 25.9489 26.9998 25.75 26.9998H21.25C21.0511 26.9998 20.8603 26.9208 20.7197 26.7802C20.579 26.6395 20.5 26.4487 20.5 26.2498V23.9998H19V26.2498C19 26.4487 18.921 26.6395 18.7803 26.7802C18.6397 26.9208 18.4489 26.9998 18.25 26.9998H4.75C4.55109 26.9998 4.36032 26.9208 4.21967 26.7802C4.07902 26.6395 4 26.4487 4 26.2498V17.9998C4.00012 17.8425 4.04972 17.6892 4.14179 17.5616C4.23385 17.434 4.36372 17.3385 4.513 17.2888L13 14.4598V9.74982C13 9.61066 13.0387 9.47423 13.1118 9.35582C13.185 9.23741 13.2896 9.14167 13.414 9.07932L25.414 3.07932C25.5285 3.02203 25.6557 2.99499 25.7835 3.00076C25.9114 3.00654 26.0357 3.04495 26.1445 3.11232ZM13 16.0408L5.5 18.5398V25.4998H13V16.0408ZM14.5 25.4998H17.5V23.2498C17.5 23.0509 17.579 22.8601 17.7197 22.7195C17.8603 22.5788 18.0511 22.4998 18.25 22.4998H21.25C21.4489 22.4998 21.6397 22.5788 21.7803 22.7195C21.921 22.8601 22 23.0509 22 23.2498V25.4998H25V4.96332L14.5 10.2133V25.4998Z" fill="#8A8A8A"/>
<path d="M7 19.5H8.5V21H7V19.5ZM10 19.5H11.5V21H10V19.5ZM7 22.5H8.5V24H7V22.5ZM10 22.5H11.5V24H10V22.5ZM16 16.5H17.5V18H16V16.5ZM19 16.5H20.5V18H19V16.5ZM16 19.5H17.5V21H16V19.5ZM19 19.5H20.5V21H19V19.5ZM22 16.5H23.5V18H22V16.5ZM22 19.5H23.5V21H22V19.5ZM16 13.5H17.5V15H16V13.5ZM19 13.5H20.5V15H19V13.5ZM22 13.5H23.5V15H22V13.5ZM16 10.5H17.5V12H16V10.5ZM19 10.5H20.5V12H19V10.5ZM22 10.5H23.5V12H22V10.5ZM22 7.5H23.5V9H22V7.5Z" fill="#8A8A8A"/>
</svg>
