<svg width="30" height="30" viewBox="0 0 30 30" fill="none" xmlns="http://www.w3.org/2000/svg">
<g clip-path="url(#clip0)">
<path d="M15.5 9.03125C15.5 8.84063 15.4243 8.65781 15.2895 8.52302C15.1547 8.38823 14.9719 8.3125 14.7812 8.3125C14.5906 8.3125 14.4078 8.38823 14.273 8.52302C14.1382 8.65781 14.0625 8.84063 14.0625 9.03125V16.9375C14.0625 17.0642 14.0961 17.1886 14.1597 17.2982C14.2233 17.4077 14.3147 17.4985 14.4247 17.5614L19.456 20.4364C19.6211 20.5256 19.8146 20.5467 19.995 20.4952C20.1755 20.4437 20.3287 20.3236 20.4218 20.1607C20.5149 19.9977 20.5406 19.8048 20.4933 19.6232C20.4461 19.4415 20.3297 19.2856 20.169 19.1886L15.5 16.5206V9.03125Z" fill="#8A8A8A"/>
<path d="M15.5 27C18.55 27 21.4751 25.7884 23.6317 23.6317C25.7884 21.4751 27 18.55 27 15.5C27 12.45 25.7884 9.52494 23.6317 7.36827C21.4751 5.2116 18.55 4 15.5 4C12.45 4 9.52494 5.2116 7.36827 7.36827C5.2116 9.52494 4 12.45 4 15.5C4 18.55 5.2116 21.4751 7.36827 23.6317C9.52494 25.7884 12.45 27 15.5 27ZM25.5625 15.5C25.5625 18.1687 24.5023 20.7282 22.6153 22.6153C20.7282 24.5023 18.1687 25.5625 15.5 25.5625C12.8313 25.5625 10.2718 24.5023 8.38474 22.6153C6.49765 20.7282 5.4375 18.1687 5.4375 15.5C5.4375 12.8313 6.49765 10.2718 8.38474 8.38474C10.2718 6.49765 12.8313 5.4375 15.5 5.4375C18.1687 5.4375 20.7282 6.49765 22.6153 8.38474C24.5023 10.2718 25.5625 12.8313 25.5625 15.5Z" fill="#8A8A8A"/>
</g>
<defs>
<clipPath id="clip0">
<rect width="23" height="23" fill="white" transform="translate(4 4)"/>
</clipPath>
</defs>
</svg>
