<svg width="30" height="30" viewBox="0 0 30 30" fill="none" xmlns="http://www.w3.org/2000/svg">
<path d="M4 9.75C4 8.9875 4.3029 8.25623 4.84207 7.71707C5.38124 7.1779 6.1125 6.875 6.875 6.875H24.125C24.8875 6.875 25.6188 7.1779 26.1579 7.71707C26.6971 8.25623 27 8.9875 27 9.75V21.25C27 22.0125 26.6971 22.7438 26.1579 23.2829C25.6188 23.8221 24.8875 24.125 24.125 24.125H6.875C6.1125 24.125 5.38124 23.8221 4.84207 23.2829C4.3029 22.7438 4 22.0125 4 21.25V9.75ZM6.875 8.3125C6.49375 8.3125 6.12812 8.46395 5.85853 8.73353C5.58895 9.00312 5.4375 9.36875 5.4375 9.75V11.1875H25.5625V9.75C25.5625 9.36875 25.411 9.00312 25.1415 8.73353C24.8719 8.46395 24.5062 8.3125 24.125 8.3125H6.875ZM25.5625 14.0625H5.4375V21.25C5.4375 21.6312 5.58895 21.9969 5.85853 22.2665C6.12812 22.536 6.49375 22.6875 6.875 22.6875H24.125C24.5062 22.6875 24.8719 22.536 25.1415 22.2665C25.411 21.9969 25.5625 21.6312 25.5625 21.25V14.0625Z" fill="#8A8A8A"/>
<path d="M6.875 18.375C6.875 17.9938 7.02645 17.6281 7.29603 17.3585C7.56562 17.089 7.93125 16.9375 8.3125 16.9375H9.75C10.1312 16.9375 10.4969 17.089 10.7665 17.3585C11.036 17.6281 11.1875 17.9938 11.1875 18.375V19.8125C11.1875 20.1937 11.036 20.5594 10.7665 20.829C10.4969 21.0985 10.1312 21.25 9.75 21.25H8.3125C7.93125 21.25 7.56562 21.0985 7.29603 20.829C7.02645 20.5594 6.875 20.1937 6.875 19.8125V18.375Z" fill="#8A8A8A"/>
</svg>
