<svg width="42" height="42" viewBox="0 0 42 42" fill="none" xmlns="http://www.w3.org/2000/svg">
<g clip-path="url(#clip0)">
<path d="M17.9878 9.31265C18.2025 9.31265 18.4048 9.21132 18.533 9.03924C18.6616 8.86715 18.7014 8.6449 18.6403 8.43892C18.1526 6.77353 17.3098 5.23371 16.1693 3.92611C15.2504 2.9484 13.8827 2.52981 12.5741 2.82581C12.3933 2.89491 12.2508 3.03776 12.1817 3.21849C12.1442 3.32015 12.1163 3.42513 12.0987 3.5321C12.0777 3.65901 12.0664 3.78724 12.0645 3.91581V3.92677C12.0728 5.01179 12.51 6.04963 13.281 6.81339C14.5886 7.95289 16.1274 8.79539 17.7918 9.28275C17.8556 9.30169 17.9214 9.31199 17.9878 9.31265ZM14.2458 5.84997C13.9757 5.57955 13.7637 5.2563 13.6225 4.90083V4.89418C13.5926 4.81877 13.5667 4.74303 13.5445 4.67027C13.5328 4.63074 13.5245 4.59353 13.5146 4.55466C13.5043 4.51579 13.4953 4.48656 13.4887 4.45267C13.4817 4.41845 13.4804 4.40483 13.4757 4.38058C13.4558 4.27892 13.4418 4.17627 13.4342 4.07295C14.1053 4.12378 14.7355 4.41347 15.2112 4.88953C15.8876 5.65429 16.4328 6.52569 16.8244 7.46885C15.8803 7.07584 15.0075 6.52868 14.2425 5.84997H14.2458Z" fill="black"/>
<path d="M38.8687 9.7828H28.3664C28.8205 9.47251 29.2471 9.12335 29.6408 8.73964C32.0746 6.29852 32.1543 2.59731 30.5996 1.04255C29.0448 -0.512222 25.3449 -0.433819 22.9011 2.00265C21.9018 3.09032 21.0899 4.33613 20.4986 5.68957C19.9072 4.33513 19.0946 3.08866 18.0943 2.00065C15.6532 -0.433155 11.9523 -0.512886 10.3972 1.04188C8.84178 2.59665 8.92218 6.29786 11.3563 8.73964C11.7503 9.12335 12.1769 9.47251 12.6307 9.7828H2.12837C1.75264 9.7828 1.448 10.0874 1.448 10.4632V17.2669C1.448 17.6427 1.75264 17.9473 2.12837 17.9473H3.48913V37.6783C3.49145 39.5559 5.01333 41.0778 6.89101 41.0801H34.1061C35.9841 41.0778 37.506 39.5559 37.508 37.6783V17.9473H38.8687C39.2445 17.9473 39.5491 17.6427 39.5491 17.2669V10.4632C39.5491 10.0874 39.2445 9.7828 38.8687 9.7828ZM23.8639 2.96408C25.8193 1.01464 28.6714 1.03723 29.6381 2.00398C30.6049 2.97072 30.6281 5.82146 28.6787 7.77755C27.786 8.60277 26.7668 9.27949 25.6598 9.7828H21.5942C21.5942 9.76851 21.5942 9.7529 21.5942 9.73861C21.5942 9.58347 21.5826 9.42633 21.5676 9.2682C21.562 9.21604 21.556 9.16421 21.55 9.11106C21.5344 8.9805 21.5151 8.85027 21.4919 8.72071C21.4846 8.67519 21.4769 8.62935 21.469 8.5845C21.4364 8.41507 21.4008 8.2483 21.36 8.08717C21.3547 8.06392 21.3484 8.04365 21.343 8.01907C21.3068 7.87821 21.2696 7.74698 21.2314 7.61111C21.2261 7.5925 21.2211 7.57224 21.2158 7.55363C21.7733 5.85801 22.6749 4.29527 23.8639 2.96408ZM23.2201 16.5866H17.777V11.1436H23.2201V16.5866ZM12.3191 7.77821C10.3693 5.82213 10.3922 2.97139 11.3593 2.00398C12.3261 1.03657 15.1768 1.01398 17.1316 2.96209C18.3694 4.34875 19.2973 5.98392 19.8531 7.75795C19.9298 7.99681 19.9889 8.22604 20.0447 8.44862C20.0604 8.51241 20.0733 8.5742 20.0869 8.63699C20.1238 8.8031 20.1534 8.96156 20.1756 9.11339C20.1829 9.16488 20.1926 9.21803 20.1986 9.2682C20.2202 9.43796 20.2318 9.60905 20.2334 9.78014H15.3373C14.231 9.27783 13.2121 8.60211 12.3191 7.77821ZM2.80875 11.1436H16.4163V16.5866H2.80875V11.1436ZM4.84988 37.6783V17.9473H17.777V39.7194H6.89101C5.76381 39.7194 4.84988 38.8055 4.84988 37.6783ZM19.1378 39.7194V17.9473H21.8593V39.7194H19.1378ZM36.1472 37.6783C36.1472 38.8055 35.2336 39.7194 34.1061 39.7194H23.2201V17.9473H36.1472V37.6783ZM38.1884 16.5866H24.5808V11.1436H38.1884V16.5866Z" fill="black"/>
<path d="M23.0071 9.31552C23.0725 9.31552 23.1376 9.30622 23.2004 9.28761C24.8668 8.80058 26.4073 7.95642 27.7146 6.8136C28.6826 5.88772 29.0999 4.52564 28.8169 3.21637C28.7484 3.03631 28.6059 2.89413 28.4258 2.82536C27.1166 2.54231 25.7545 2.95957 24.8286 3.92765C23.6861 5.23492 22.842 6.7754 22.3546 8.44179C22.2938 8.64776 22.3334 8.87035 22.4619 9.0421C22.5905 9.21419 22.7925 9.31552 23.0071 9.31552V9.31552ZM25.7907 4.88974C26.2671 4.41401 26.898 4.12465 27.5691 4.07316C27.5182 4.74457 27.2285 5.37578 26.7528 5.85217C25.9874 6.53321 25.1133 7.08137 24.1672 7.47438C24.5605 6.52823 25.1093 5.65484 25.7907 4.88974Z" fill="black"/>
<rect x="5.04004" y="37.6191" width="13" height="3" rx="1.5" fill="black"/>
<rect x="23.04" y="37.6191" width="13" height="3" rx="1.5" fill="black"/>
<rect x="19.04" y="17.6191" width="3" height="23" fill="black"/>
<path d="M15.8291 9.40348C15.7724 9.40348 15.6838 9.42002 15.6302 9.39655C15.6094 9.38744 15.6002 9.36729 15.5796 9.35636C15.513 9.32109 15.4358 9.29353 15.3703 9.25381C15.2528 9.18242 15.1064 9.11594 14.9754 9.0785C14.9537 9.07232 14.9241 9.0419 14.9033 9.0293C14.874 9.01149 14.8379 9.00301 14.807 8.98565C14.7583 8.95828 14.7027 8.9132 14.6629 8.8734C14.5739 8.78442 14.4552 8.73157 14.3919 8.61771C14.3589 8.55829 14.2815 8.50889 14.2298 8.46804C14.1617 8.41423 14.1013 8.35531 14.033 8.30313C13.9202 8.21684 13.8282 8.10205 13.7087 8.02527C13.66 7.99391 13.3423 7.57475 13.2847 7.63239" stroke="black" stroke-width="3" stroke-linecap="round"/>
<path d="M18.2862 11.2868C18.3081 11.131 18.3612 10.9844 18.4206 10.8392C18.4467 10.7753 18.5231 10.6771 18.5231 10.607C18.5231 10.5524 18.6167 10.4505 18.6603 10.413C18.7419 10.3431 18.7013 10.343 18.6021 10.3361C18.4751 10.3272 18.348 10.3132 18.221 10.3021C18.1934 10.2997 18.1536 10.3086 18.1393 10.2765C18.1235 10.2411 18.6407 10.0823 18.7019 10.0582C18.7677 10.0323 18.8272 9.9589 18.8918 9.94044C18.9622 9.92033 19.052 9.91979 19.1218 9.93975C19.1338 9.94317 19.1579 9.97598 19.1592 9.95222C19.1605 9.92951 19.1592 9.90639 19.1592 9.88362C19.1592 9.74783 19.2103 9.59832 19.2646 9.4755C19.3226 9.34421 19.4267 9.20064 19.3588 9.04797C19.2836 8.87886 19.2216 8.66607 19.2216 8.48047" stroke="black" stroke-width="3" stroke-linecap="round"/>
<path d="M19.1466 7.45717C19.138 7.40545 19.1312 7.3086 19.1023 7.26316C19.0749 7.22015 19.0462 7.17769 19.0219 7.13289C18.9864 7.06748 18.8939 7.0158 18.8376 6.97075C18.7381 6.89114 18.6653 6.7649 18.5979 6.65893C18.5472 6.5793 18.5175 6.46657 18.523 6.37207C18.5257 6.3273 18.8102 6.43472 18.8321 6.44967C18.9157 6.50673 18.9335 6.59184 18.997 6.65893C19.1346 6.80439 19.2915 6.93334 19.4155 7.0927C19.4819 7.17807 19.4096 7.17031 19.3282 7.17031C18.9579 7.17031 18.587 7.1768 18.2168 7.17031C18.1308 7.1688 18.1657 7.0477 18.1585 6.99015C18.1403 6.84455 18.0964 6.70412 18.0809 6.55777C18.0565 6.32626 18.0615 6.09313 18.0615 5.8607C18.0615 5.81631 18.0257 5.54438 18.0948 5.54888C18.1382 5.55171 18.1746 5.57242 18.2126 5.59184C18.3265 5.65002 18.444 5.70109 18.557 5.76092C18.7328 5.85402 18.8652 5.98126 18.9873 6.13648C19.1236 6.30982 19.2491 6.49947 19.4058 6.65616C19.5373 6.78765 19.1747 6.36292 19.0386 6.23626C18.9524 6.15611 18.8577 6.08512 18.7732 6.00344C18.7278 5.95957 18.6927 5.9057 18.6477 5.8607" stroke="black" stroke-linecap="round"/>
<path d="M18.2237 5.51217C17.9963 5.45842 17.8358 5.2498 17.688 5.08256C17.4441 4.80652 17.2333 4.45836 17.1088 4.11248C17.1033 4.09721 17.0201 3.89213 17.0651 3.89213C17.1012 3.89213 17.1463 3.91853 17.1787 3.93093C17.3002 3.97742 17.4237 4.01941 17.5432 4.0709C17.8887 4.21977 18.2542 4.43429 18.4204 4.79154C18.5519 5.07393 18.6407 5.37308 18.753 5.66184C18.7715 5.70921 18.7649 5.77172 18.7226 5.80181C18.6785 5.83308 18.6215 5.84256 18.5708 5.85793C18.4102 5.90667 18.2533 5.94313 18.0871 5.96741C17.9123 5.99296 17.7338 6.04511 17.6125 5.88634C17.5254 5.77229 17.4528 5.64563 17.3679 5.52949C17.2103 5.31396 17.0556 5.09599 16.921 4.86498C16.8075 4.67029 16.7104 4.47237 16.5842 4.28501C16.4133 4.03126 16.2341 3.79744 16.0964 3.52211C16.0804 3.49006 16.0619 3.45427 16.0548 3.41887C16.0458 3.37357 16.1349 3.39185 16.1567 3.39185C16.5359 3.39185 16.936 3.3565 17.3104 3.43203C17.5134 3.47299 17.6768 3.63816 17.8065 3.79096C17.9086 3.9112 17.9825 4.05755 18.0296 4.20741C18.0567 4.29362 18.0558 4.31574 17.9562 4.31481C17.6677 4.31211 17.4219 4.11159 17.2023 3.94687C16.921 3.73593 16.6653 3.49724 16.429 3.23733C16.3396 3.13894 16.2483 3.04157 16.1657 2.93729C16.1025 2.85761 16.0436 2.77547 15.9661 2.70863C15.8735 2.62872 15.7443 2.60904 15.6287 2.58113C15.4851 2.54647 15.3424 2.54278 15.1956 2.53402C14.9361 2.51852 14.7279 2.61878 14.4875 2.69893C14.4288 2.71848 14.3689 2.734 14.3101 2.75298C14.286 2.76073 14.4052 2.77285 14.4098 2.77376C14.5924 2.80991 14.7646 2.87176 14.9385 2.9366C15.1733 3.0241 15.4144 3.0946 15.646 3.19021C15.7797 3.24536 15.9063 3.3138 16.034 3.37937C16.0934 3.40986 16.1529 3.44376 16.2156 3.46668C16.2728 3.48759 16.3185 3.53935 16.377 3.55399C16.5217 3.59015 16.4775 3.29394 16.4775 3.21862C16.4775 2.87944 16.2939 2.56224 16.0285 2.3594C15.8605 2.23106 15.6944 2.0996 15.4908 2.03234C15.2639 1.95742 15.0235 1.92168 14.7937 1.85496C14.699 1.82747 14.6174 1.82031 14.5193 1.82031C14.5 1.82031 14.3471 1.82846 14.3606 1.87575C14.3657 1.89328 14.5445 1.89906 14.5554 1.90069C14.7891 1.93556 15.0207 1.99531 15.2497 2.05313C15.6828 2.16254 16.1062 2.26756 16.5108 2.46126C16.7468 2.57427 17.0483 2.72196 17.1621 2.97402C17.1942 3.04518 17.2101 3.15195 17.2231 3.2297C17.2366 3.31083 17.1897 3.3258 17.1185 3.28236C17.0419 3.23571 16.9839 3.15904 16.9168 3.10082C16.7179 2.9282 16.4891 2.78906 16.2565 2.66706C15.7824 2.41841 15.2743 2.23305 14.7646 2.07253C14.4868 1.98503 14.2171 1.89515 13.9234 1.89515C13.7613 1.89515 13.5991 1.89515 13.437 1.89515C13.151 1.89515 12.7971 1.8491 12.6242 2.12658C12.5419 2.25875 12.475 2.40488 12.4045 2.54372C12.3549 2.64151 12.3956 2.63102 12.4912 2.63102C12.6609 2.63102 12.8338 2.64075 13.0032 2.62964C13.0755 2.6249 13.142 2.598 13.2125 2.58391C13.3144 2.56351 13.4181 2.55988 13.5215 2.55342C13.6671 2.54432 13.8109 2.54098 13.9553 2.51877C14.0056 2.51103 14.0324 2.48222 14.0578 2.44117C14.0922 2.38581 14.1041 2.30276 14.0939 2.23883C14.08 2.15224 13.9119 2.126 13.8458 2.10718C13.5924 2.03506 13.3212 2.02794 13.0725 1.94504" stroke="black" stroke-linecap="round"/>
<path d="M14.1578 1.58274C13.7778 1.58274 13.3979 1.58274 13.0179 1.58274C12.8798 1.58274 12.7444 1.58044 12.607 1.57096C12.5545 1.56734 12.495 1.56631 12.4435 1.57581C12.2689 1.60802 12.1051 1.76295 12 1.90148C11.8836 2.05496 11.7784 2.21878 11.666 2.37544C11.6015 2.4654 11.5244 2.54501 11.4526 2.62905C11.3462 2.75354 11.2458 2.87181 11.1505 3.00599C11.0062 3.20906 10.8344 3.43752 10.793 3.69059C10.7635 3.8703 10.8007 4.07228 10.8463 4.24423C10.8955 4.42978 11.0113 4.59372 11.0798 4.77293C11.1204 4.87885 11.1652 4.98479 11.199 5.09305C11.2352 5.20881 11.2892 5.31672 11.3258 5.43189C11.3621 5.54631 11.3874 5.66431 11.4145 5.78112C11.435 5.8694 11.4372 5.97817 11.4762 6.06037C11.5063 6.12405 11.5144 6.19065 11.5261 6.25992C11.5344 6.30926 11.5311 6.40033 11.5635 6.44078C11.5712 6.45042 11.6735 6.46521 11.6882 6.46919C11.7437 6.48419 11.7933 6.49396 11.8441 6.46572C11.8863 6.44228 11.9681 6.43178 11.9848 6.38188C12.0167 6.286 12.0324 6.18684 12.0582 6.08947C12.0929 5.95874 12.1409 5.83263 12.167 5.69936C12.2158 5.45 12.1246 5.18979 12.0624 4.95239C12.0353 4.84911 11.9957 4.7479 11.9557 4.6489C11.9068 4.52799 11.8878 4.40317 11.86 4.2768C11.8157 4.07469 11.7381 3.87169 11.7381 3.66218C11.7381 3.57831 11.7351 3.49376 11.7388 3.40996C11.7435 3.30456 11.793 3.20097 11.8379 3.10716C11.8781 3.02302 11.9362 2.9365 11.9945 2.86325C12.0356 2.8115 12.0374 2.87657 12.0374 2.91106C12.0374 3.43559 11.9456 3.95244 11.928 4.47636C11.9123 4.93883 11.9065 5.41493 11.9439 5.87605C11.9546 6.00784 11.9751 6.13686 11.9938 6.26755C12.0113 6.39036 12.0175 6.5181 12.0499 6.63826C12.0721 6.72049 12.1138 6.6953 12.1947 6.72141C12.2687 6.74527 12.3858 6.75588 12.4213 6.67152C12.4288 6.65377 12.4241 6.62824 12.4241 6.60915C12.4241 6.5446 12.4437 6.48968 12.4608 6.4283C12.4704 6.39397 12.5168 6.23838 12.4587 6.21281C12.4124 6.19241 12.3635 6.25811 12.3382 6.28348C12.2009 6.42076 12.0796 6.56801 11.9577 6.71864C11.8676 6.83008 11.5981 7.09449 11.8441 7.18913C11.9477 7.22895 12.0907 7.20783 12.1996 7.20783" stroke="black" stroke-linecap="round"/>
<path d="M21.3418 8.45463C21.4163 8.32572 21.4767 8.18822 21.5441 8.05551C21.6135 7.91888 21.6953 7.7887 21.77 7.65501C21.8841 7.45091 21.9677 7.23324 22.0707 7.02376C22.1769 6.80797 22.3005 6.61925 22.4587 6.43894C22.6656 6.20328 22.8278 5.91663 22.9895 5.64971C23.0442 5.55938 23.0951 5.46673 23.1503 5.3767C23.1779 5.33157 23.0749 5.45124 23.0408 5.49172C22.5219 6.10757 22.1005 6.80269 21.6148 7.44436C21.4458 7.66752 21.3073 7.9139 21.1381 8.13589C21.1367 8.13765 21.0937 8.19105 21.0826 8.17746C21.0462 8.13297 21.1594 7.97102 21.1734 7.94464C21.3485 7.61443 21.5389 7.29217 21.7194 6.96486C21.9663 6.51721 22.2141 6.06764 22.4892 5.63654C22.6346 5.4087 22.7863 5.18429 22.9445 4.96511C22.9839 4.91054 23.0381 4.86329 23.0754 4.80989C23.1562 4.69452 23.2272 4.56663 23.3277 4.46621C23.3837 4.41014 23.45 4.36304 23.512 4.31377C23.5479 4.28522 23.5945 4.23583 23.6422 4.22715C23.7389 4.20958 23.5815 4.59107 23.5757 4.60687C23.3948 5.1051 23.2141 5.60328 23.0429 6.10495C22.8179 6.76414 22.634 7.4373 22.4033 8.09431C22.2609 8.5001 22.0414 8.8884 21.7735 9.22585C21.73 9.28056 21.6792 9.33133 21.6411 9.39007C21.5883 9.47157 21.5787 9.57688 21.5787 9.67139C21.5787 9.80203 21.7443 9.56543 21.7624 9.54181C21.9915 9.24273 22.1961 8.92115 22.3749 8.58975C22.3833 8.57413 22.4181 8.48096 22.4449 8.48096C22.4608 8.48096 22.4518 8.62517 22.4518 8.63202C22.4518 8.96412 22.4784 9.31234 22.5765 9.6312C22.6149 9.7558 22.644 9.75177 22.7685 9.75177C23.1794 9.75177 23.5777 9.62648 23.9776 9.54528C24.1028 9.51985 24.2305 9.496 24.3573 9.48015C24.4117 9.47335 24.4662 9.47059 24.5181 9.45174C24.6849 9.39108 24.8573 9.34029 25.026 9.28405C25.121 9.25239 25.2163 9.22227 25.3115 9.1912C25.3216 9.18789 25.4275 9.16556 25.3829 9.16556C25.2677 9.16556 25.1534 9.18659 25.0419 9.21545C24.7358 9.29475 24.4347 9.39068 24.1224 9.44481C24.0685 9.45416 24.0132 9.4649 23.9582 9.4649C23.9307 9.4649 24.012 9.45281 24.0386 9.4455C24.4212 9.34029 24.7944 9.15729 25.1528 8.99095C25.3373 8.90533 25.5198 8.82842 25.7168 8.77614C25.8798 8.73292 26.0463 8.70879 26.2095 8.66736C26.3063 8.64276 26.3826 8.62246 26.443 8.54194" stroke="black" stroke-linecap="round"/>
<path d="M25.7446 8.75445C26.1484 8.62399 26.5097 8.32945 26.847 8.08371C27.3633 7.70759 27.8815 7.32034 28.431 6.99375C28.5873 6.90088 28.8795 6.75994 28.9375 6.56345C28.9477 6.52898 28.955 6.49449 28.968 6.4609C28.9774 6.43669 28.9293 6.49609 28.914 6.51703C28.4838 7.10279 28.0793 7.70694 27.6175 8.26941C27.3401 8.60739 27.0422 8.93146 26.7507 9.25751C26.6006 9.42534 26.4377 9.59141 26.2462 9.71206C26.1823 9.75237 26.0712 9.81623 25.9899 9.80145C25.9519 9.79454 25.9132 9.78967 25.8686 9.78967C25.8583 9.78967 25.7819 9.79765 25.7778 9.78413C25.768 9.75141 25.917 9.68015 25.9358 9.6691C26.4461 9.36952 26.8459 8.9195 27.3424 8.59924C27.7198 8.35585 28.1156 8.15066 28.465 7.86613C28.4841 7.85054 28.7703 7.58809 28.7033 7.58273C28.4911 7.56576 28.3099 7.60351 28.1199 7.7033C27.8464 7.84695 27.6023 8.04451 27.3473 8.21744C27.0078 8.44766 26.6677 8.67694 26.3266 8.90482C26.0018 9.12181 25.6792 9.38519 25.3136 9.53052C25.2307 9.56347 25.1446 9.58359 25.0614 9.61505C24.9837 9.64439 25.0364 9.52859 25.0482 9.49033C25.1892 9.0319 25.513 8.65422 25.8728 8.34702C26.0842 8.16645 26.341 8.04422 26.5899 7.92434C26.9333 7.75895 27.2739 7.58669 27.6224 7.43237C27.985 7.27176 28.3466 7.09522 28.634 6.81567C28.9201 6.53744 29.114 6.18134 29.2909 5.82758C29.3416 5.72617 29.3816 5.62078 29.4364 5.52131C29.4824 5.43793 29.5349 5.36086 29.5986 5.28987C29.6219 5.26385 29.6466 5.23906 29.6713 5.21435C29.6803 5.20533 29.6997 5.17595 29.6997 5.18871C29.6997 5.20845 29.656 5.25381 29.6478 5.27324C29.5894 5.41037 29.5639 5.5626 29.5307 5.70701C29.4973 5.85184 29.4498 5.99624 29.4233 6.14216C29.3936 6.30528 29.2686 6.46451 29.187 6.60364C29.1162 6.72432 29.0381 6.86477 28.9375 6.96534C28.9159 6.98699 28.8882 6.98751 28.8655 7.01108C28.8352 7.04251 28.7944 7.08262 28.7754 7.12056" stroke="black" stroke-linecap="round"/>
<path d="M27.6655 7.20886C27.676 7.04527 27.7957 6.90009 27.8762 6.76401C27.9664 6.61142 28.0469 6.42801 28.17 6.29837C28.2439 6.22046 28.3431 6.16594 28.4263 6.09881C28.6248 5.93872 28.7959 5.79007 28.9322 5.56942C29.0421 5.39146 29.139 5.20568 29.244 5.02479C29.278 4.96621 29.319 4.91217 29.3493 4.85156" stroke="black" stroke-linecap="round"/>
<path d="M29.3492 4.84975C29.3492 4.47595 29.3866 4.10483 29.3866 3.73138C29.3866 3.52859 29.3866 3.3258 29.3866 3.123C29.3866 3.03467 29.3948 2.94168 29.3811 2.85415C29.3691 2.77826 29.3492 2.70932 29.3492 2.63173C29.3492 2.58428 29.3572 2.60781 29.3686 2.63796C29.397 2.71297 29.4201 2.78814 29.442 2.86524C29.521 3.14288 29.6201 3.41438 29.6707 3.69951C29.7285 4.02509 29.7683 4.35461 29.7857 4.68484C29.7947 4.85527 29.8231 5.02637 29.8231 5.1969C29.8231 5.36715 29.8222 5.17857 29.8231 5.11583C29.8261 4.91253 29.8633 4.70885 29.8924 4.50814C29.9392 4.18644 29.9938 3.86514 30.0255 3.54153C30.0553 3.23623 30.1007 2.93156 30.1218 2.62549C30.1246 2.58442 30.1127 2.53261 30.0712 2.51185C30.0402 2.49633 29.9911 2.50268 29.9576 2.49799C29.8495 2.48287 29.7478 2.45461 29.6444 2.42039C29.5619 2.39312 29.4784 2.36755 29.3998 2.33031C29.3429 2.30338 29.2997 2.26256 29.2466 2.23053C28.9806 2.07008 28.7457 1.90095 28.4456 1.80092C28.3192 1.75877 28.1657 1.78152 28.034 1.78152C27.8022 1.78152 27.5666 1.76896 27.3356 1.78845C26.8705 1.82767 26.4054 1.82169 25.9414 1.86883C25.829 1.88025 25.7187 1.89951 25.6074 1.91872C25.5609 1.92676 25.494 1.9277 25.4515 1.95059C25.3422 2.00946 25.2483 2.08434 25.1453 2.15569C24.9839 2.26742 24.8165 2.36857 24.6471 2.46751C24.4396 2.58865 24.2676 2.72983 24.1052 2.90682C24.0189 3.00084 23.92 3.09181 23.8488 3.19853C23.7647 3.32478 23.711 3.47412 23.6423 3.60874C23.5806 3.72973 23.5323 3.84989 23.4844 3.97668C23.4424 4.08766 23.4287 4.19708 23.3998 4.31066C23.368 4.43606 23.3993 4.56215 23.4677 4.66959C23.4789 4.68716 23.5017 4.77534 23.537 4.75967C23.5553 4.75155 23.5697 4.72984 23.5869 4.71879C23.6164 4.69984 23.6415 4.70439 23.6742 4.69731C23.7644 4.67782 23.8523 4.66579 23.9361 4.62386C24.0777 4.55308 24.1926 4.4232 24.2951 4.3065C24.4027 4.18395 24.465 4.03063 24.5341 3.88383C24.5941 3.75636 24.6488 3.62627 24.7032 3.49649C24.7606 3.35951 24.859 3.23783 24.9464 3.11885C25.0797 2.93742 25.2331 2.8 25.4356 2.70171C25.6952 2.57572 25.9492 2.47185 26.2352 2.41762C26.5297 2.36177 26.8269 2.31944 27.1249 2.28735C27.3497 2.26314 27.5797 2.2583 27.8054 2.25547C27.9602 2.25354 28.1144 2.24994 28.2669 2.28042C28.3826 2.30358 28.5018 2.30963 28.6126 2.35525C28.7404 2.40787 28.7973 2.50181 28.8551 2.62203C28.8961 2.70711 28.9118 2.7978 28.9224 2.89157C28.9377 3.02811 28.9607 3.16507 28.9847 3.30039C28.9931 3.34767 28.9878 3.38753 28.9307 3.35097C28.7846 3.2575 28.6541 3.12629 28.5198 3.01699C28.3738 2.89826 28.2169 2.79869 28.0382 2.73913C27.7965 2.65858 27.5422 2.67954 27.2905 2.67954C27.0371 2.67954 26.7774 2.67783 26.5318 2.74744C26.341 2.80152 26.1504 2.87102 25.965 2.94146C25.9103 2.96225 25.8869 2.9994 25.843 3.03639C25.6945 3.16171 25.5461 3.31086 25.3774 3.40779C25.2847 3.46102 25.176 3.51306 25.067 3.5152C24.8424 3.5196 24.6099 3.57235 24.3921 3.62468C24.1636 3.67955 23.9355 3.73227 23.7109 3.80137C23.5007 3.86606 23.3321 3.96661 23.1628 4.10764C22.9943 4.24808 22.8113 4.35764 22.6764 4.52824C22.6313 4.58524 22.6145 4.63849 22.5891 4.7077C22.4923 4.97115 22.4472 5.24663 22.402 5.52257C22.3391 5.90719 22.2887 6.31213 22.165 6.68321" stroke="black" stroke-linecap="round"/>
<path d="M28.9619 4.69336C28.9426 4.70764 28.8877 4.74515 28.8877 4.77539" stroke="black" stroke-linecap="round"/>
<rect x="20.04" y="18.6191" width="1" height="23" fill="#E0C467"/>
</g>
<rect x="23.04" y="17.6191" width="14" height="21" fill="black"/>
<rect x="2.04004" y="10.6191" width="37" height="6" fill="black"/>
<rect x="4.04004" y="17.6191" width="14" height="21" fill="black"/>
<path d="M3.04004 18.6191H38.04V18.2841V17.9491H3.04004V18.6191Z" fill="#E0C467"/>
<defs>
<clipPath id="clip0">
<rect width="41.08" height="41.08" fill="white"/>
</clipPath>
</defs>
</svg>
