<svg width="44" height="44" viewBox="0 0 44 44" fill="none" xmlns="http://www.w3.org/2000/svg">
<circle cx="22" cy="22" r="22" fill="#7294C7"/>
<path d="M32.7867 27.6267C32.7867 27.5354 32.6954 27.5354 32.6954 27.444C32.3301 26.7134 31.5082 25.8002 30.4123 24.7956C29.8643 24.339 29.5903 23.9737 29.4077 23.791C29.1337 23.4257 29.1337 23.1518 29.2251 22.7865C29.3164 22.5125 29.6817 22.0558 30.3209 21.2339C30.6862 20.7773 30.8689 20.5033 31.1429 20.2293C32.5127 18.4028 33.152 17.2156 32.9694 16.6677L32.8781 16.5763C32.7867 16.485 32.6954 16.3937 32.5127 16.3937C32.3301 16.3024 32.0561 16.3024 31.7822 16.3937H28.3118C28.2205 16.3937 28.2205 16.3937 28.0378 16.3937C27.9465 16.3937 27.8552 16.3937 27.8552 16.3937H27.7639H27.6725L27.5812 16.485C27.4899 16.5763 27.4899 16.5763 27.4899 16.6677C27.1246 17.6722 26.6679 18.4942 26.2113 19.4074C25.9373 19.864 25.6634 20.3207 25.3894 20.686C25.1154 21.0513 24.9328 21.3252 24.7501 21.5079C24.5675 21.6905 24.3848 21.7819 24.2935 21.9645C24.2022 22.0558 24.0195 22.1472 24.0195 22.0559C23.9282 22.0559 23.8369 22.0558 23.8369 21.9645C23.7455 21.8732 23.6542 21.7819 23.5629 21.6905C23.4716 21.5992 23.4716 21.4166 23.3802 21.2339C23.3802 21.0513 23.3802 20.8686 23.3802 20.7773C23.3802 20.686 23.3802 20.412 23.3802 20.2293C23.3802 19.9554 23.3802 19.7727 23.3802 19.6814C23.3802 19.4074 23.3802 19.0421 23.3802 18.6768C23.3802 18.3115 23.3802 18.0375 23.3802 17.8549C23.3802 17.6722 23.3802 17.3983 23.3802 17.2156C23.3802 16.9416 23.3802 16.759 23.3802 16.6677C23.3802 16.5763 23.2889 16.3937 23.2889 16.3024C23.1976 16.211 23.1063 16.1197 23.0149 16.0284C22.9236 15.9371 22.741 15.9371 22.6496 15.8457C22.193 15.7544 21.6451 15.6631 21.0058 15.6631C19.5446 15.6631 18.54 15.7544 18.1747 15.9371C17.9921 16.0284 17.8094 16.1197 17.7181 16.3024C17.5354 16.485 17.5354 16.5763 17.6267 16.5763C18.0834 16.6677 18.4487 16.8503 18.6313 17.1243L18.7227 17.3069C18.814 17.3983 18.814 17.5809 18.9053 17.8549C18.9966 18.1289 18.9966 18.4028 18.9966 18.7681C18.9966 19.3161 18.9966 19.864 18.9966 20.2293C18.9966 20.686 18.9053 20.9599 18.9053 21.2339C18.9053 21.5079 18.814 21.6905 18.7227 21.7819C18.6313 21.9645 18.6313 22.0559 18.54 22.0559C18.54 22.0559 18.54 22.1472 18.4487 22.1472C18.3573 22.1472 18.266 22.2385 18.0834 22.2385C17.992 22.2385 17.8094 22.1472 17.7181 22.0559C17.5354 21.9645 17.3528 21.7819 17.2615 21.5992C17.0788 21.4166 16.8961 21.1426 16.7135 20.7773C16.5308 20.412 16.2569 20.0467 16.0742 19.4987L15.8916 19.1334C15.8002 18.9508 15.6176 18.5855 15.4349 18.1289C15.2523 17.6722 15.0696 17.3069 14.887 16.8503C14.7957 16.6677 14.7044 16.5763 14.613 16.485H14.5217C14.5217 16.485 14.4304 16.3937 14.339 16.3937C14.2477 16.3937 14.1564 16.3024 14.0651 16.3024H10.7774C10.4121 16.3024 10.2294 16.3937 10.1381 16.485L10.0468 16.5763C10.0468 16.5763 10.0468 16.6677 10.0468 16.759C10.0468 16.8503 10.0468 16.9416 10.1381 17.1243C10.5947 18.2202 11.1427 19.3161 11.6906 20.412C12.2386 21.4166 12.7865 22.3298 13.1518 22.9691C13.6084 23.6084 13.9737 24.2477 14.4304 24.7956C14.887 25.3436 15.161 25.7089 15.2523 25.8915C15.4349 26.0742 15.5263 26.1655 15.6176 26.2568L15.8916 26.5308C16.0742 26.7134 16.3482 26.9874 16.7135 27.2614C17.0788 27.5354 17.5354 27.8093 17.992 28.0833C18.4487 28.3573 18.9966 28.5399 19.5446 28.7226C20.1839 28.9052 20.7318 28.9966 21.2798 28.9052H22.6496C22.9236 28.9052 23.1063 28.8139 23.2889 28.6313L23.3802 28.5399C23.3802 28.4486 23.4716 28.4486 23.4716 28.3573C23.4716 28.266 23.4716 28.1746 23.4716 27.992C23.4716 27.6267 23.4716 27.3527 23.5629 27.0787C23.6542 26.8048 23.6542 26.6221 23.7455 26.4395C23.8369 26.2568 23.9282 26.1655 24.0195 26.0742C24.1108 25.9828 24.2022 25.8915 24.2022 25.8915H24.2935C24.4761 25.8002 24.7501 25.8915 24.9328 26.0742C25.2067 26.2568 25.4807 26.5308 25.6634 26.8048C25.846 27.0787 26.12 27.3527 26.4853 27.718C26.8506 28.0833 27.1246 28.3573 27.3072 28.4486L27.5812 28.6313C27.7638 28.7226 27.9465 28.8139 28.2205 28.9052C28.4945 28.9966 28.6771 28.9966 28.8597 28.9966L31.9648 28.9052C32.2388 28.9052 32.5128 28.8139 32.6954 28.7226C32.8781 28.6313 32.9694 28.5399 32.9694 28.3573C32.9694 28.266 32.9694 28.0833 32.9694 27.992C32.7867 27.8093 32.7867 27.718 32.7867 27.6267Z" fill="white"/>
</svg>
