<svg width="27" height="27" viewBox="0 0 27 27" fill="none" xmlns="http://www.w3.org/2000/svg">
<ellipse cx="13.5" cy="13.3612" rx="13.5" ry="13.3612" fill="#7294C7"/>
<path d="M20.1194 16.7786C20.1194 16.6941 20.0445 16.628 20.0019 16.5551C19.7544 16.1316 19.2791 15.6187 18.6623 15.0592C18.5994 15.0073 18.5424 14.9574 18.4905 14.9097C18.1764 14.6213 17.8292 14.2599 17.932 13.846C17.9326 13.8437 17.9332 13.8413 17.9338 13.839C17.9899 13.6726 18.214 13.3952 18.6063 12.8961C18.6564 12.834 18.701 12.7775 18.7418 12.7254C18.9773 12.4242 19.2296 12.1348 19.4512 11.8232C20.0051 11.0443 20.2796 10.5031 20.2477 10.1996C20.2423 10.1481 20.2123 10.1038 20.1754 10.0673C20.0546 9.94778 19.8684 9.9043 19.6989 9.91664C19.6944 9.91696 19.6899 9.91734 19.6854 9.91775C19.5621 9.92906 19.4399 9.95642 19.3161 9.95642H17.3734C17.3174 9.95642 17.3174 9.95642 17.2053 9.95642C17.1492 9.95642 17.0932 9.95642 17.0932 9.95642H17.0372C17.0013 9.95642 16.9668 9.97058 16.9413 9.99584L16.9251 10.0119C16.8636 10.0727 16.8541 10.1645 16.8228 10.2451C16.607 10.8007 16.3457 11.2696 16.0845 11.7868C15.9163 12.0641 15.7482 12.3414 15.5801 12.5633C15.412 12.7851 15.2999 12.9515 15.1878 13.0625C15.0845 13.1647 14.9811 13.2199 14.9217 13.3148C14.9116 13.3309 14.901 13.3469 14.8862 13.3588C14.8668 13.3745 14.8443 13.3891 14.8229 13.3999C14.7733 13.4249 14.6802 13.4147 14.6406 13.3758C14.6214 13.357 14.6167 13.3292 14.5976 13.3103C14.5515 13.2646 14.5054 13.219 14.4593 13.1734C14.4537 13.1678 14.4486 13.1617 14.444 13.1551C14.3399 13.0054 14.3472 12.8011 14.3472 12.6187C14.3472 12.5633 14.3472 12.3969 14.3472 12.286C14.3472 12.1196 14.3472 12.0086 14.3472 11.9532C14.3472 11.7868 14.3472 11.5649 14.3472 11.343C14.3472 11.1212 14.3472 10.9548 14.3472 10.8439C14.3472 10.7329 14.3472 10.5665 14.3472 10.4556C14.3472 10.2892 14.3472 10.1783 14.3472 10.1228C14.3472 9.97586 14.2324 9.84279 14.128 9.73942C14.1263 9.7378 14.1247 9.73617 14.1231 9.73455C14.0061 9.61877 13.8131 9.60496 13.6507 9.5783C13.4262 9.54147 13.1727 9.5127 12.8902 9.5127C11.9935 9.5127 11.3771 9.56816 11.1529 9.67909C11.0841 9.71314 11.0153 9.74719 10.9595 9.79408C10.8892 9.85311 10.7671 9.95298 10.7802 10.0438C10.7881 10.0988 10.8443 10.0721 10.8982 10.0854C11.1401 10.1453 11.3321 10.2502 11.4331 10.4001C11.4702 10.4736 11.5205 10.5425 11.5416 10.6221C11.5569 10.6797 11.5708 10.7536 11.6012 10.8439C11.6573 11.0102 11.6573 11.1766 11.6573 11.3985C11.6573 11.7313 11.6573 12.0641 11.6573 12.286C11.6573 12.5633 11.6012 12.7297 11.6012 12.8961C11.6012 13.0428 11.5577 13.1464 11.5089 13.2069C11.4966 13.2221 11.4845 13.2378 11.4762 13.2555C11.4598 13.2907 11.449 13.3192 11.4391 13.3411C11.419 13.3856 11.3699 13.4507 11.321 13.4507C11.265 13.4507 11.209 13.5062 11.0969 13.5062C11.0822 13.5062 11.0637 13.5024 11.0434 13.4958C10.9177 13.455 10.8061 13.3707 10.7121 13.2779C10.6175 13.1844 10.5412 13.0723 10.4629 12.9649C10.394 12.8704 10.3251 12.7551 10.2563 12.6187C10.1722 12.4523 10.0566 12.2859 9.95676 12.0727C9.88659 11.9228 9.82652 11.7681 9.75191 11.6204C9.69587 11.5094 9.58378 11.2876 9.4717 11.0103C9.35962 10.7329 9.24754 10.5111 9.13546 10.2337C9.08604 10.1359 9.03663 10.0812 8.98721 10.0316C8.97454 10.0189 8.95727 10.0119 8.93932 10.0119C8.92137 10.0119 8.90424 10.0046 8.88993 9.99381C8.86852 9.97762 8.83387 9.95642 8.79921 9.95642C8.74317 9.95642 8.68714 9.90095 8.6311 9.90095H6.61364C6.38948 9.90095 6.2774 9.95641 6.22136 10.0119C6.18549 10.0474 6.16531 10.0957 6.16531 10.1462C6.16531 10.1566 6.16531 10.1674 6.16531 10.1783C6.16531 10.2337 6.16532 10.2892 6.22136 10.4001C6.50156 11.0657 6.8378 11.7313 7.17404 12.3969C7.51029 13.007 7.84653 13.5616 8.07069 13.9499C8.3509 14.3382 8.57505 14.7264 8.85526 15.0592C8.9907 15.2201 9.09995 15.355 9.18302 15.464C9.30961 15.6302 9.43531 15.7997 9.58377 15.9466L9.75191 16.113C9.86399 16.224 10.0321 16.3904 10.2563 16.5568C10.4804 16.7232 10.7606 16.8895 11.0408 17.0559C11.321 17.2223 11.6573 17.3333 11.9935 17.4442C12.1086 17.4768 12.2189 17.5045 12.3257 17.5261C12.8067 17.6233 13.3049 17.5551 13.7956 17.5551H13.8989C14.067 17.5551 14.1791 17.4997 14.2912 17.3887C14.327 17.3532 14.3518 17.3049 14.3854 17.2673C14.3953 17.2563 14.4033 17.2432 14.4033 17.2223C14.4033 17.1669 14.4033 17.1114 14.4033 17.0005C14.4033 16.7786 14.4033 16.6122 14.4593 16.4458C14.5153 16.2794 14.5153 16.1685 14.5714 16.0576C14.6274 15.9466 14.6835 15.8912 14.7395 15.8357C14.7721 15.8035 14.8047 15.7712 14.8262 15.7499C14.8425 15.7338 14.8644 15.7248 14.8873 15.7248C14.9007 15.7248 14.9137 15.7214 14.9263 15.7168C15.0056 15.6874 15.1075 15.7069 15.198 15.7584C15.2721 15.8007 15.3368 15.8581 15.4036 15.9111C15.5351 16.0154 15.6593 16.1474 15.7482 16.2794C15.8603 16.4458 16.0284 16.6122 16.2526 16.8341C16.4768 17.0559 16.6449 17.2223 16.757 17.2778L16.9251 17.3887C17.0372 17.4442 17.1492 17.4997 17.3174 17.5551C17.4855 17.6106 17.5976 17.6106 17.7096 17.6106L19.615 17.5551C19.7831 17.5551 19.9513 17.4997 20.0633 17.4442C20.1754 17.3887 20.2315 17.3333 20.2315 17.2223C20.2315 17.0804 20.1324 16.9554 20.1204 16.8139C20.1194 16.8018 20.1194 16.7902 20.1194 16.7786Z" fill="white"/>
</svg>
