<svg width="44" height="44" viewBox="0 0 44 44" fill="none" xmlns="http://www.w3.org/2000/svg">
<circle cx="22" cy="22" r="22" fill="#F40000"/>
<path d="M31.5844 20.8043C31.5844 20.3777 31.5134 19.8799 31.5134 19.311C31.4422 18.7421 31.3711 18.1732 31.3 17.6755C31.1578 17.1066 30.9444 16.6799 30.5178 16.3243C30.1622 15.9688 29.6645 15.7555 29.1667 15.6843C27.5311 15.471 25.1133 15.3999 21.8422 15.3999C18.5711 15.3999 16.0822 15.471 14.5178 15.6843C14.02 15.7555 13.5222 15.9688 13.1667 16.3243C12.8111 16.6799 12.5267 17.1066 12.3844 17.6755C12.2422 18.1732 12.1711 18.671 12.1711 19.311C12.1 19.8799 12.1 20.3777 12.1 20.8043C12.1 21.231 12.1 21.7288 12.1 22.4399C12.1 23.151 12.1 23.7199 12.1 24.0755C12.1 24.5021 12.1711 24.9999 12.1711 25.5688C12.2422 26.1377 12.3133 26.7066 12.3844 27.2043C12.5267 27.7732 12.74 28.1999 13.1667 28.5555C13.5222 28.911 14.02 29.1243 14.5178 29.1955C16.1533 29.4088 18.5711 29.4799 21.8422 29.4799C25.1133 29.4799 27.6022 29.4088 29.1667 29.1955C29.6645 29.1243 30.1622 28.911 30.5178 28.5555C30.8733 28.1999 31.1578 27.7732 31.3 27.2043C31.4422 26.7066 31.5134 26.2088 31.5134 25.5688C31.5845 24.9999 31.5844 24.5021 31.5844 24.0755C31.5844 23.6488 31.5844 23.151 31.5844 22.4399C31.5844 21.7288 31.5844 21.1599 31.5844 20.8043ZM25.6111 23.0088L19.9933 26.4932C19.9222 26.5643 19.78 26.6355 19.6378 26.6355C19.4956 26.6355 19.4245 26.6355 19.2822 26.5643C19.0689 26.4221 18.9267 26.2088 18.9267 25.9244V18.8843C18.9267 18.5999 19.0689 18.3866 19.2822 18.2443C19.4956 18.1021 19.78 18.1021 19.9933 18.2443L25.6111 21.7288C25.8245 21.871 25.9667 22.0843 25.9667 22.2977C25.9667 22.511 25.8245 22.8666 25.6111 23.0088Z" fill="white"/>
</svg>
